<svg xmlns="http://www.w3.org/2000/svg" viewBox="0 0 612 792"><path opacity=".5" fill="#37CFDC" d="M306 107.1c-102.1 0-184.9 82.8-184.9 184.9S203.9 476.9 306 476.9 490.9 394.1 490.9 292 408.1 107.1 306 107.1zm50.3 262.3L306 343l-50.3 26.5 9.6-56-40.7-39.7 56.3-8.2 25.2-51 25.2 51 56.3 8.2-40.7 39.7 9.4 55.9z"/><g fill="#37CFDC"><path d="M462.9 467c-9.5 0-17.1 7.7-17.1 17.1v112.2L394 561.5c-5.8-3.9-13.3-3.9-19.1 0l-51.8 34.9v-63.7c0-9.5-7.7-17.1-17.1-17.1-9.5 0-17.1 7.7-17.1 17.1v120.1l-51.8-34.9c-5.8-3.9-13.3-3.9-19.1 0l-51.8 34.9v-215C202.5 472.6 251.8 494 306 494c111.4 0 202-90.6 202-202S417.4 90 306 90s-202 90.6-202 202c0 37.4 10.2 72.4 28 102.5v290.4c0 6.3 3.5 12.1 9.1 15.1s12.4 2.6 17.6-.9l68.9-46.4 68.9 46.4c2.9 1.9 6.2 2.9 9.6 2.9 2.8 0 5.5-.7 8-2 5.6-3 9.1-8.8 9.1-15.1v-47.3l61.3-41.3 68.9 46.4c2.9 1.9 6.2 2.9 9.6 2.9 2.8 0 5.5-.7 8-2 5.6-3 9.1-8.8 9.1-15.1V484.1c-.1-9.5-7.7-17.1-17.2-17.1zM306 124.2c92.5 0 167.8 75.3 167.8 167.8S398.5 459.8 306 459.8 138.2 384.5 138.2 292 213.5 124.2 306 124.2z"/><path d="M246.9 319.4l-8.1 47.2c-1.1 6.4 1.5 12.9 6.8 16.7 5.3 3.8 12.3 4.3 18 1.3l42.3-22.3 42.3 22.3c2.5 1.3 5.2 2 8 2 3.5 0 7.1-1.1 10.1-3.3 5.3-3.8 7.9-10.3 6.8-16.7l-8.1-47.2 34.3-33.4c4.7-4.5 6.3-11.4 4.3-17.5-2-6.2-7.4-10.7-13.8-11.7l-47.3-6.9-21.1-42.9c-2.9-5.8-8.8-9.5-15.4-9.5s-12.5 3.7-15.4 9.5l-21.2 42.9-47.3 6.9c-6.4.9-11.8 5.5-13.8 11.7-2 6.2-.3 13 4.3 17.5l34.3 33.4zm36.4-36.9c5.6-.8 10.4-4.3 12.9-9.4l9.8-19.9 9.8 19.9c2.5 5.1 7.3 8.6 12.9 9.4l21.9 3.2-15.9 15.5c-4 3.9-5.9 9.6-4.9 15.2l3.7 21.8-19.5-10.4c-2.5-1.3-5.2-2-8-2-2.7 0-5.5.7-8 2l-19.6 10.3 3.7-21.8c1-5.6-.9-11.2-4.9-15.2l-15.9-15.5 22-3.1z"/></g></svg>