<?xml version="1.0" standalone="no"?><!DOCTYPE svg PUBLIC "-//W3C//DTD SVG 1.1//EN" "http://www.w3.org/Graphics/SVG/1.1/DTD/svg11.dtd"><svg t="1639967353616" class="icon" viewBox="0 0 1024 1024" version="1.1" xmlns="http://www.w3.org/2000/svg" p-id="6991" xmlns:xlink="http://www.w3.org/1999/xlink" width="30" height="30"><defs><style type="text/css"></style></defs><path d="M904 120H120c-30.9 0-56 25.1-56 56v672c0 30.9 25.1 56 56 56h784c30.9 0 56-25.1 56-56V176c0-30.9-25.1-56-56-56z m0 728H120V292.7h784V848zM120 232v-56h784v56H120z" p-id="6992"></path><path d="M232 708c0 15.5 12.5 28 28 28 9 0 16.6-4.5 21.8-11.1l0.4 0.3 179.7-231.7 123.3 82.2c12.4 8.3 27.2 11.4 42.1 8.3 14.7-3 27.3-11.4 33.5-21.1l124.5-144.7-0.2-0.2c4.2-4.9 7-11.1 7-18.1 0-15.5-12.5-28-28-28-8.5 0-15.8 4-21 9.9l-0.2-0.2-126.7 147.6L492.9 447c-24.6-16.3-56.6-11.2-75 12l-180 231.9 0.4 0.3c-3.7 4.7-6.3 10.3-6.3 16.8z" p-id="6993"></path></svg>