<?xml version="1.0" standalone="no"?>
<!DOCTYPE svg PUBLIC "-//W3C//DTD SVG 1.1//EN" "http://www.w3.org/Graphics/SVG/1.1/DTD/svg11.dtd">
<svg xmlns="http://www.w3.org/2000/svg">
<metadata>Generated by Fontastic.me</metadata>
<defs>
<font id="landy" horiz-adv-x="512">
<font-face font-family="landy" units-per-em="512" ascent="480" descent="-32"/>
<missing-glyph horiz-adv-x="512" />

<glyph glyph-name="abc" unicode="&#97;" d="M210 107l-15 0c-13 0-23-10-23-23l0-27c0-13 10-23 23-23l15 0c9 0 16 7 16 15l0 4c0 4-4 8-8 8-4 0-7-4-7-8l0-4c0 0 0 0-1 0l-15 0c-5 0-8 4-8 8l0 27c0 5 3 8 8 8l15 0c1 0 1 0 1 0l0-4c0-4 3-7 7-7 4 0 8 3 8 7l0 4c0 8-7 15-16 15z m-11 34c-39 0-71-31-71-70 0-39 32-71 71-71 39 0 70 32 70 71 0 39-31 70-70 70z m0-126c-31 0-56 25-56 56 0 30 25 55 56 55 30 0 55-25 55-55 0-31-25-56-55-56z m190 254l-26 0c-4 0-7-3-7-7l0-97c0-4 3-8 7-8l42 0c21 0 37 17 37 37 0 17-12 32-29 36 2 3 3 8 3 12 0 15-12 27-27 27z m-18-15l18 0c7 0 12-5 12-12 0-6-5-12-12-12l-18 0z m56-60c0-12-10-22-22-22l-34 0 0 43 34 0c12 0 22-9 22-21z m-306 70l18 53 67 0 18-53c1-3 4-5 7-5 1 0 1 0 2 1 4 1 6 5 5 9l-19 58c-1 0-1 0-1 0l-26 78c-2 9-10 15-19 15-10 0-18-6-20-15l-26-78c0 0 0 0 0 0l-20-58c-1-4 1-8 5-9 4-2 8 0 9 4z m46 137c1 2 3 4 6 4 2 0 4-2 5-4l23-69-57 0z m294-88c-3 3-8 2-10-1-3-4-2-8 1-11 28-20 45-53 45-88 0-60-49-109-109-109-56 0-104 44-109 100 34 26 57 65 64 109 14 6 29 9 45 9 16 0 31-3 45-9 4-2 8-1 10 3 2 4 0 8-4 10-16 8-33 11-51 11-15 0-29-2-43-7 0 3 0 6 0 9 0 96-77 173-172 173-96 0-173-77-173-173 0-44 17-86 48-119 3-3 7-3 10 0 3 3 3 8 1 11-29 29-44 68-44 108 0 87 71 158 158 158 86 0 157-71 157-158 0-86-71-157-157-157-35 0-68 11-95 32-4 2-8 1-11-2-2-3-2-8 2-10 30-23 66-35 104-35 34 0 66 10 92 27 5-27 18-52 38-71 23-22 54-34 85-34 68 0 124 56 124 124 0 40-19 77-51 100z"/>
<glyph glyph-name="add-user" unicode="&#98;" d="M134 126l-29 0c-4 0-8-4-8-8 0-4 4-7 8-7l29 0c4 0 8 3 8 7 0 4-4 8-8 8z m174 84l-43 16-22 22c-2 2-4 3-6 3l0 18c11 11 18 25 21 40 0 0 0 0 0 0 2 0 4 0 6 1 10 2 18 11 18 22l0 6c0 7-3 13-7 17 7 38 1 69-17 89-17 20-45 30-80 28-33-2-54-17-60-23-10-1-36-7-36-44 0-20 4-37 6-46-8-4-13-12-13-21l0-6c0-11 8-20 18-22 2-1 4-1 6-1 0 0 0 0 0 0 3-15 10-29 20-40l0-18c-2 0-3-1-5-3l-22-22-43-16c-20-8-34-28-33-50l6-153c0-4 4-7 8-7 0 0 0 0 0 0 4 0 7 4 7 8l-6 152c0 4 0 8 2 12l24-24c7-7 11-17 11-26l0-115c0-4 3-7 7-7 4 0 8 3 8 7l0 115c0 13-6 26-15 36l-28 28c4 4 9 8 15 10l40 15 30-46c4-5 10-9 17-9 0 0 1 0 2 0 4 0 8 1 11 3l-6-151c0-4 3-8 7-8 0 0 0 0 0 0 4 0 8 3 8 7l6 140 17 0 6-140c0-4 3-7 7-7 1 0 1 0 1 0 4 0 7 4 7 8l-7 151c4-2 8-3 12-3 1 0 1 0 2 0 7 0 13 4 16 9l31 46 40-15c6-2 11-6 15-10l-28-28c-10-10-15-23-15-36l0-115c0-4 3-7 8-7 4 0 7 3 7 7l0 115c0 9 4 19 11 26l24 24c1-4 2-8 2-12l-7-152c0-4 4-8 8-8 0 0 0 0 0 0 4 0 7 3 7 7l7 153c0 22-13 42-33 50z m-195 102c-1 7-8 13-15 12-1 0-1 0-2 0-3 1-6 5-6 8l0 6c0 4 3 7 6 8 3 1 5-1 7-3 1-2 3-3 5-3 4-1 7-1 10 1 6 4 11 10 15 16 2 4 1 8-2 11-4 2-8 1-11-3-2-3-5-7-8-9-3 2-6 3-9 4-2 8-6 25-6 45 0 12 4 21 12 26 5 3 12 4 12 4 2 0 3 0 5 2 0 0 19 18 53 20 30 1 54-6 68-23 14-16 19-41 14-73-3 0-5 0-8 0l-7 18c-2 3-5 5-9 4-1 0-74-19-104 19-3 4-8 4-11 2-3-3-4-8-1-11 31-39 93-30 113-26l6-14c3-6 9-9 15-7 2 0 5 0 6 0 3-1 6-4 6-8l0-6c0-3-3-7-6-8-1 0-1 0-2 0-7 1-14-5-16-12-5-31-33-54-65-54-32 0-59 23-65 54z m36-139c-2-2-4-3-6-2-2 0-4 1-5 3l-31 46 13 13 47-42z m21-11l1 12 7 7 8-7 0-12z m8 39l-44 39 0 16c13-8 28-13 44-13 16 0 32 5 44 13l0-16z m41-27c-1-2-3-3-5-3-3-1-5 0-6 2l-19 18 48 42 13-13z m141 338c-36 0-70-14-95-39-3-3-3-8 0-11 3-3 7-3 10 0 23 23 53 35 85 35 67 0 121-54 121-121 0-66-54-121-121-121-30 0-58 11-81 31-3 3-7 3-10 0-3-3-3-8 0-11 25-22 58-35 91-35 75 0 136 61 136 136 0 75-61 136-136 136z m64-128l-56 0 0 56c0 5-4 8-8 8-4 0-7-3-7-8l0-56-49 0c-4 0-7-4-7-8 0-4 3-7 7-7l49 0 0-57c0-4 3-7 7-7 4 0 8 3 8 7l0 57 56 0c4 0 8 3 8 7 0 4-4 8-8 8z"/>
<glyph glyph-name="admin" unicode="&#99;" d="M240 424l-88 0c-4 0-8-4-8-8l0-32c0-4 4-7 8-7l88 0c4 0 7 3 7 7l0 32c0 4-3 8-7 8z m-8-32l-73 0 0 17 73 0z m-200 32c-5 0-8-4-8-8l0-32c0-4 3-7 8-7 4 0 7 3 7 7l0 32c0 4-3 8-7 8z m24 0c-5 0-8-4-8-8l0-32c0-4 3-7 8-7 4 0 7 3 7 7l0 32c0 4-3 8-7 8z m24 0c-4 0-8-4-8-8l0-32c0-4 4-7 8-7 4 0 7 3 7 7l0 32c0 4-3 8-7 8z m24 0c-4 0-8-4-8-8l0-32c0-4 4-7 8-7 4 0 7 3 7 7l0 32c0 4-3 8-7 8z m24 0c-4 0-8-4-8-8l0-1c0-4 4-7 8-7 4 0 7 3 7 7l0 1c0 4-3 8-7 8z m0-31c-4 0-8-4-8-8l0-1c0-4 4-7 8-7 4 0 7 3 7 7l0 1c0 4-3 8-7 8z m112-113l-88 0c-4 0-8-4-8-8l0-32c0-4 4-8 8-8l88 0c4 0 7 4 7 8l0 32c0 4-3 8-7 8z m-8-33l-73 0 0 18 73 0z m-200 33c-5 0-8-4-8-8l0-32c0-4 3-8 8-8 4 0 7 4 7 8l0 32c0 4-3 8-7 8z m24 0c-5 0-8-4-8-8l0-32c0-4 3-8 8-8 4 0 7 4 7 8l0 32c0 4-3 8-7 8z m24 0c-4 0-8-4-8-8l0-32c0-4 4-8 8-8 4 0 7 4 7 8l0 32c0 4-3 8-7 8z m24 0c-4 0-8-4-8-8l0-32c0-4 4-8 8-8 4 0 7 4 7 8l0 32c0 4-3 8-7 8z m24 0c-4 0-8-4-8-8l0-1c0-4 4-7 8-7 4 0 7 3 7 7l0 1c0 4-3 8-7 8z m0-32c-4 0-8-3-8-7l0-1c0-4 4-8 8-8 4 0 7 4 7 8l0 1c0 4-3 7-7 7z m112-113l-88 0c-4 0-8-3-8-7l0-32c0-4 4-8 8-8l88 0c4 0 7 4 7 8l0 32c0 4-3 7-7 7z m-8-32l-73 0 0 17 73 0z m-200 32c-5 0-8-3-8-7l0-32c0-4 3-8 8-8 4 0 7 4 7 8l0 32c0 4-3 7-7 7z m24 0c-5 0-8-3-8-7l0-32c0-4 3-8 8-8 4 0 7 4 7 8l0 32c0 4-3 7-7 7z m24 0c-4 0-8-3-8-7l0-32c0-4 4-8 8-8 4 0 7 4 7 8l0 32c0 4-3 7-7 7z m24 0c-4 0-8-3-8-7l0-32c0-4 4-8 8-8 4 0 7 4 7 8l0 32c0 4-3 7-7 7z m24 0c-4 0-8-3-8-7l0-1c0-4 4-8 8-8 4 0 7 4 7 8l0 1c0 4-3 7-7 7z m0-31c-4 0-8-3-8-7l0-1c0-4 4-8 8-8 4 0 7 4 7 8l0 1c0 4-3 7-7 7z m363 209c-3 3-8 4-11 1-3-3-3-7-1-11 12-13 18-30 18-47 0-17-6-33-16-45-8 25-23 43-41 50 9 5 16 15 16 27 0 17-14 32-32 32-17 0-31-15-31-32 0-12 6-22 16-27-18-7-33-25-42-50-9 12-15 28-15 45 0 40 32 73 72 73 11 0 22-3 32-8 4-1 8 0 10 4 2 4 0 8-4 10-11 6-24 9-38 9-45 0-83-36-87-80l-25 0 0 136c0 4-4 8-8 8l-32 0 0 32c0 5-4 8-8 8l-256 0c-5 0-8-3-8-8l0-80c0-4 3-7 8-7l256 0c4 0 8 3 8 7l0 33 25 0 0-129-25 0 0 32c0 4-4 8-8 8l-256 0c-5 0-8-4-8-8l0-80c0-4 3-8 8-8l256 0c4 0 8 4 8 8l0 32 25 0 0-129-25 0 0 33c0 4-4 7-8 7l-256 0c-5 0-8-3-8-7l0-80c0-5 3-8 8-8l256 0c4 0 8 3 8 8l0 32 32 0c4 0 8 4 8 8l0 136 25 0c4-44 42-80 87-80 49 0 88 40 88 88 0 21-8 41-21 57z m-234 55l-242 0 0 65 242 0z m0-145l-242 0 0 66 242 0z m0-144l-242 0 0 65 242 0z m151 209c0 9 7 17 16 17 9 0 17-8 17-17 0-9-8-16-17-16-9 0-16 7-16 16z m16-105c-17 0-32 6-44 16 7 30 25 49 44 49 20 0 37-19 45-49-12-10-28-16-45-16z"/>
<glyph glyph-name="alarm" unicode="&#100;" d="M105 93l-12 12 42 41 11-12z m341 155l16 0 0-17-16 0z m-33 0l16 0 0-17-16 0z m16 16l17 0 0-16-17 0z m0-33l17 0 0-16-17 0z m-231 132l17 0 0-16-17 0z m-33 0l17 0 0-16-17 0z m17 17l16 0 0-17-16 0z m0-33l16 0 0-17-16 0z m173-165l17 0 0-17-17 0z m-33 0l17 0 0-17-17 0z m17 16l16 0 0-16-16 0z m0-33l16 0 0-16-16 0z m-83 297l17 0 0-16-17 0z m-33 0l16 0 0-16-16 0z m16 17l17 0 0-17-17 0z m0-33l17 0 0-17-17 0z m141 0l33 0c9 0 16-7 16-17l17 0c0 19-15 33-33 33l-8 0 0 17-17 0 0-17-8 0c-18 0-33-14-33-33l0-8c0-18 15-33 33-33l33 0c9 0 16-7 16-16l0-9c0-9-7-16-16-16l-33 0c-9 0-17 7-17 16l-16 0c0-18 15-33 33-33l8 0 0-16 17 0 0 16 8 0c18 0 33 15 33 33l0 9c0 18-15 33-33 33l-33 0c-9 0-17 7-17 16l0 8c0 10 8 17 17 17z m16 66c-52 0-97-35-111-84l-66-140c-4 1-8 1-13 1-6 0-12-1-18-2l-15 14-41-42 0-49-124-124c-5-5-8-12-8-20 0-7 3-15 8-20l38-38c5-5 13-8 20-8 8 0 15 3 20 8l124 124 49 0 42 41-14 15c1 6 2 12 2 18 0 5 0 9-1 13l140 66c49 14 84 59 84 111 0 64-52 116-116 116z m-190-239c37 0 67-30 67-67 0-1-1-3-1-4l-70 70c1 0 3 1 4 1z m-132-253c-4-4-12-4-16 0l-38 38c-2 2-3 5-3 8 0 3 1 6 3 8l120 121 55-55z m182 132l-19 19-12-12 11-10-26 0-61 61 0 26 66-66 11 12-74 74 21 21 104-104z m28 83c-9 23-26 40-49 49l47 98c6-52 48-94 100-100z m112 62c-54 0-99 45-99 99 0 55 45 99 99 99 55 0 99-44 99-99 0-54-44-99-99-99z"/>
<glyph glyph-name="analytics" unicode="&#101;" d="M384 182l-80 0c-4 0-8-3-8-8 0-4 4-7 8-7l80 0c5 0 8 3 8 7 0 5-3 8-8 8z m-1-85l0-10c0-4 3-7 7-7 4 0 8 3 8 7l0 10c0 4-4 7-8 7-4 0-7-3-7-7z m-12-56c4 0 8 3 8 7l0 10c0 4-4 7-8 7-4 0-7-3-7-7l0-10c0-4 3-7 7-7z m-245 281c4 0 7 4 7 8 0 4-3 7-7 7l-20 0c-4 0-7-3-7-7 0-4 3-8 7-8z m305 190l-296 0c-4 0-8-2-10-6l-59-90c-2-2-2-4-2-7l0-294c0-4 3-7 7-7 4 0 8 3 8 7l0 288 44 0c9 0 17 8 17 18l0 76 291 0c2 0 3-1 3-2l0-49c0-4 3-8 7-8 4 0 8 4 8 8l0 49c0 9-8 17-18 17z m-306-91c0-2-1-3-2-3l-38 0 40 61z m251-334l0 10c0 4-3 7-7 7-5 0-8-3-8-7l0-10c0-4 3-7 8-7 4 0 7 3 7 7z m65 338c-4 0-7-3-7-8l0-400c0-1-1-2-3-2l-350 0c-2 0-2 1-2 2l0 69c0 4-4 8-8 8-4 0-7-4-7-8l0-69c0-9 7-17 17-17l350 0c10 0 18 8 18 17l0 400c0 5-4 8-8 8z m-335-384l146 0c4 0 8 3 8 7 0 4-4 8-8 8l-8 0 0 80c0 9-7 17-17 17l-19 0c-1 0-1 0-2 0l0 31c0 10-8 17-17 17l-19 0c-10 0-17-7-17-17l0-60c-1 0-2 0-2 0l-20 0c-9 0-17-8-17-17l0-51-8 0c-4 0-7-4-7-8 0-4 3-7 7-7z m100 95c0 1 1 2 2 2l19 0c1 0 2-1 2-2l0-80-23 0z m-38 48c0 1 1 2 2 2l19 0c1 0 2-1 2-2l0-128-23 0z m-39-77c0 1 1 2 2 2l20 0c1 0 2-1 2-2l0-51-24 0z m131 337c-2 0-4-1-5-2-2-1-3-3-3-5l0-3c-55-2-99-48-99-104 0-58 46-105 103-105 54 0 99 43 103 97l2 0c5 0 8 4 8 8 0 0 0 0 0 0 0 30-11 58-32 79-20 22-48 34-77 35z m-4-73c22 0 40-19 40-41 0-23-18-41-40-41-22 0-40 18-40 41 0 22 18 41 40 41z m-88-41c0 48 37 87 84 89l0-33c-29-2-51-26-51-56 0-13 4-25 11-34l-24-24c-13 16-20 36-20 58z m88-90c-22 0-42 8-57 21l23 24c10-7 21-11 34-11 28 0 51 21 55 48l33 0c-4-46-42-82-88-82z m97 97c-1 0-2 0-2 0l-40 0c-3 24-21 43-44 48l0 43c47-5 83-43 87-91z m22 117l-19 0c-4 0-8-4-8-8 0-4 4-7 8-7l19 0c4 0 7 3 7 7 0 4-3 8-7 8z m0-229c4 0 7 4 7 8 0 4-3 7-7 7l-19 0c-4 0-8-3-8-7 0-4 4-8 8-8z m-28-145c4 0 8 3 8 7l0 10c0 4-4 7-8 7-4 0-7-3-7-7l0-10c0-4 3-7 7-7z m2-39c4 0 7 3 7 7l0 10c0 4-3 7-7 7-4 0-8-3-8-7l0-10c0-4 4-7 8-7z m-103 281l20 0c4 0 7 4 7 8 0 4-3 7-7 7l-20 0c-4 0-7-3-7-7 0-4 3-8 7-8z m79-242c5 0 8 3 8 7l0 10c0 4-3 7-8 7-4 0-7-3-7-7l0-10c0-4 3-7 7-7z m29 65c0 4-4 8-8 8l-42 0c-4 0-8-4-8-8 0-4 4-7 8-7l42 0c4 0 8 3 8 7z m-50-80c-4 0-8-3-8-7l0-10c0-4 4-7 8-7 4 0 7 3 7 7l0 10c0 4-3 7-7 7z m22-24c4 0 8 3 8 7l0 10c0 4-4 7-8 7-4 0-7-3-7-7l0-10c0-4 3-7 7-7z m-15 56c0 4-3 7-7 7-4 0-8-3-8-7l0-10c0-4 4-7 8-7 4 0 7 3 7 7z"/>
<glyph glyph-name="analytics-1" unicode="&#102;" d="M436 217l-101 0c-3 11-13 19-26 19-12 0-22-8-25-19l-13 0c-5 0-8-3-8-8 0-4 3-7 8-7l13 0c3-11 13-19 25-19 13 0 23 8 26 19l101 0c4 0 7 3 7 7 0 5-3 8-7 8z m-127-19c-6 0-12 5-12 11 0 7 6 12 12 12 7 0 12-5 12-12 0-6-5-11-12-11z m-90 46l9 0c3 0 6 2 8 4 2 2 3 5 3 8-1 23-11 45-28 62-17 17-39 27-63 27-3 1-6-1-8-3-2-2-4-4-4-7l0-10c-37-3-67-35-67-73 0-20 8-38 21-52 1 0 1 0 1 0 0 0 0-1 1-1 13-13 32-21 52-21 39 0 71 29 75 66z m-68 86c39-3 69-33 73-71l-73 0z m-67-78c0 30 23 55 52 58l0-55c0 0 0 0 0 0l-39-39c-8 10-13 22-13 36z m60-59c-14 0-27 5-37 12l40 39c0 0 0 0 0 0l56 0c-3-29-29-51-59-51z m368-55c-2 7-8 11-14 11l-5 0 0 251c0 9-8 16-18 16l-438 0c-10 0-18-7-18-16l0-251-5 0c-6 0-12-4-13-10-2-6 0-11 5-15l15-11c15-11 33-17 51-17l367 0c18 0 35 5 49 16l18 12c5 3 7 9 6 14z m-478 234l365 0c4 0 7 4 7 8 0 4-3 7-7 7l-365 0 0 13c1 0 1 1 3 1l438 0c2 0 2-1 3-1l0-13-53 0c-4 0-8-3-8-7 0-4 4-8 8-8l53 0 0-223-142 0c-7 0-14-2-19-6-3-2-7-3-11-3l-101 0c-3 0-7 1-10 2l-3 2c-5 3-11 5-17 5l-141 0z m446-248c-12-9-26-13-41-13l-367 0c-15 0-30 5-42 14l-13 9 158 0c3 0 7-1 10-3l3-1c5-4 11-5 17-5l101 0c7 0 14 2 19 6 4 2 7 3 11 3l158 0z m-209 130l100 0c3-11 14-19 26-19 12 0 22 8 26 19l13 0c4 0 7 4 7 8 0 4-3 7-7 7l-13 0c-4 11-14 19-26 19-12 0-23-8-26-19l-100 0c-5 0-8-3-8-7 0-4 3-8 8-8z m126 19c6 0 12-5 12-11 0-7-6-12-12-12-7 0-12 5-12 12 0 6 5 11 12 11z m-126 34l42 0c3-11 13-19 26-19 12 0 22 8 25 19l72 0c4 0 7 3 7 7 0 4-3 8-7 8l-72 0c-3 11-13 19-25 19-13 0-23-8-26-19l-42 0c-5 0-8-4-8-8 0-4 3-7 8-7z m68 19c6 0 11-5 11-12 0-6-5-11-11-11-7 0-12 5-12 11 0 7 5 12 12 12z"/>
<glyph glyph-name="arrow" unicode="&#103;" d="M198 15l-21 0 0 179c0 17 14 31 31 31l61 0c4 0 7 4 7 8 0 4-3 7-7 7l-138 0c-25 0-46-21-46-46l0-179-21 0c-5 0-8-3-8-8 0-4 3-7 8-7l134 0c4 0 8 3 8 7 0 5-4 8-8 8z m-36 179l0-179-62 0 0 179c0 17 14 31 31 31l43 0c-8-8-12-19-12-31z m246 184c0 4-1 7-4 10l-50 65c-5 7-13 10-21 10-8 0-16-3-21-10l-50-65c-3-3-4-6-4-10 0-9 8-17 17-17l12 0 0-167c0-17-14-31-31-31l-60 0c-4 0-7-4-7-8 0-4 3-7 7-7l137 0c25 0 46 20 46 46l0 167 12 0c9 0 17 8 17 17z m-36-2c-5 0-8-3-8-7l0-175c0-17-14-31-31-31l-43 0c7 8 12 19 12 31l0 175c0 4-3 7-7 7l-20 0c-1 0-2 1-2 2 0 0 0 1 1 1l49 65c3 3 6 4 10 4 4 0 7-1 10-4l49-65c1 0 1-1 1-1 0-1-1-2-2-2z m-39 136c-68 0-123-56-123-124 0-42 21-81 56-104 3-2 8-1 10 2 2 4 1 8-2 11-31 20-49 54-49 91 0 60 48 109 108 109 60 0 108-49 108-109 0-38-19-72-51-92-3-3-4-7-2-11 1-2 4-3 6-3 2 0 3 0 4 1 36 23 58 62 58 105 0 68-55 124-123 124z"/>
<glyph glyph-name="backup" unicode="&#104;" d="M504 512l-496 0c-5 0-8-3-8-8l0-144c0-4 3-7 8-7l285 0c4 0 7 3 7 7 0 4-3 8-7 8l-278 0 0 129 482 0 0-129-169 0c-4 0-7-4-7-8 0-4 3-7 7-7l176 0c5 0 8 3 8 7l0 144c0 5-3 8-8 8z m-456-32c-5 0-8-3-8-8l0-80c0-4 3-7 8-7 4 0 7 3 7 7l0 80c0 5-3 8-7 8z m48 0c-4 0-8-3-8-8l0-80c0-4 4-7 8-7 4 0 7 3 7 7l0 80c0 5-3 8-7 8z m48 0c-4 0-8-3-8-8l0-80c0-4 4-7 8-7 4 0 7 3 7 7l0 80c0 5-3 8-7 8z m48 0c-4 0-8-3-8-8l0-80c0-4 4-7 8-7 4 0 7 3 7 7l0 80c0 5-3 8-7 8z m48 0c-4 0-8-3-8-8l0-80c0-4 4-7 8-7 4 0 7 3 7 7l0 80c0 5-3 8-7 8z m64-16c-17 0-31-14-31-32 0-17 14-31 31-31 17 0 32 14 32 31 0 18-15 32-32 32z m0-48c-9 0-16 7-16 16 0 9 7 17 16 17 9 0 17-8 17-17 0-9-8-16-17-16z m144 48c-17 0-31-14-31-32 0-17 14-31 31-31 18 0 32 14 32 31 0 18-14 32-32 32z m0-48c-9 0-16 7-16 16 0 9 7 17 16 17 9 0 17-8 17-17 0-9-8-16-17-16z m-72 48c-17 0-31-14-31-32 0-17 14-31 31-31 18 0 32 14 32 31 0 18-14 32-32 32z m0-48c-9 0-16 7-16 16 0 9 7 17 16 17 9 0 17-8 17-17 0-9-8-16-17-16z m128-257l-496 0c-5 0-8-3-8-7l0-144c0-5 3-8 8-8l496 0c5 0 8 3 8 8l0 144c0 4-3 7-8 7z m-7-144l-482 0 0 129 482 0 0-129z m-449 112c-5 0-8-3-8-7l0-80c0-5 3-8 8-8 4 0 7 3 7 8l0 80c0 4-3 7-7 7z m48 0c-4 0-8-3-8-7l0-80c0-5 4-8 8-8 4 0 7 3 7 8l0 80c0 4-3 7-7 7z m48 0c-4 0-8-3-8-7l0-80c0-5 4-8 8-8 4 0 7 3 7 8l0 80c0 4-3 7-7 7z m48 0c-4 0-8-3-8-7l0-80c0-5 4-8 8-8 4 0 7 3 7 8l0 80c0 4-3 7-7 7z m48 0c-4 0-8-3-8-7l0-80c0-5 4-8 8-8 4 0 7 3 7 8l0 80c0 4-3 7-7 7z m64-16c-17 0-31-14-31-31 0-18 14-32 31-32 17 0 32 14 32 32 0 17-15 31-32 31z m0-48c-9 0-16 8-16 17 0 9 7 16 16 16 9 0 17-7 17-16 0-9-8-17-17-17z m144 48c-17 0-31-14-31-31 0-18 14-32 31-32 18 0 32 14 32 32 0 17-14 31-32 31z m0-48c-9 0-16 8-16 17 0 9 7 16 16 16 9 0 17-7 17-16 0-9-8-17-17-17z m-72 48c-17 0-31-14-31-31 0-18 14-32 31-32 18 0 32 14 32 32 0 17-14 31-32 31z m0-48c-9 0-16 8-16 17 0 9 7 16 16 16 9 0 17-7 17-16 0-9-8-17-17-17z m-160 168l-25 0 0 105c0 4-3 8-7 8l-48 0c-4 0-8-4-8-8l0-105-24 0c-7 0-10-8-5-13l56-48c3-2 7-2 10 0l56 48c5 5 2 13-5 13z m-56-45l-36 30 12 0c4 0 7 4 7 8l0 105 33 0 0-105c0-4 4-8 8-8l12 0z m253 108l-56 48c-3 2-7 2-10 0l-56-48c-5-5-2-13 5-13l25 0 0-105c0-4 3-8 7-8l48 0c4 0 8 4 8 8l0 105 24 0c7 0 10 8 5 13z m-37 2c-4 0-7-4-7-8l0-105-33 0 0 105c0 4-4 8-8 8l-12 0 36 30 36-30z"/>
<glyph glyph-name="bank" unicode="&#105;" d="M264 355l0 33-16 0 0-33-4 0c-30 0-54-24-54-54 0-29 24-53 54-53l24 0c21 0 38-17 38-37 0-21-17-38-38-38l-24 0c-21 0-38 17-38 38l0 20-16 0 0-20c0-30 24-54 54-54l4 0 0-33 16 0 0 33 4 0c30 0 54 24 54 54 0 29-24 53-54 53l-24 0c-21 0-38 17-38 37 0 21 17 38 38 38l24 0c21 0 38-17 38-38l0-20 16 0 0 20c0 30-24 54-54 54z m108 124l0 33-103-75c-4 0-9 1-13 1-100 0-182-82-182-182 0-46 18-90 49-124l-123 0 0-16 157 0 0 16 68-49-68-50 0 17-157 0 0-17 140 0 0-33 103 75c4 0 9-1 13-1 100 0 182 82 182 182 0 46-18 90-49 124l123 0 0 16-157 0 0-16-68 49 68 50 0-17 157 0 0 17z m0-132l0 27c31-31 49-74 49-118 0-91-74-165-165-165-5 0-10 0-15 1l-101 73 0-27c-31 31-49 74-49 118 0 91 74 165 165 165 5 0 10 0 15-1z m123 91l17 0 0-17-17 0z m-140 0l124 0 0-17-124 0z m-355-347l17 0 0-17-17 0z m33 0l124 0 0-17-124 0z m330 140c14 0 25 11 25 25 0 14-11 25-25 25-13 0-24-11-24-25 0-14 11-25 24-25z m0 33c5 0 9-3 9-8 0-5-4-8-9-8-4 0-8 3-8 8 0 5 4 8 8 8z m-214 17c-14 0-25-11-25-25 0-14 11-25 25-25 13 0 24 11 24 25 0 14-11 25-24 25z m0-33c-5 0-9 3-9 8 0 5 4 8 9 8 4 0 8-3 8-8 0-5-4-8-8-8z m-108 223l17 0 0-25-17 0z m-21-9l18-17-12-12-17 17z m-20-33l25 0 0-16-25 0z m20-49l-11 12 17 17 12-11z m21 16l17 0 0-24-17 0z m32 13l17-17-11-12-18 18z m1 20l25 0 0-16-25 0z m5 33l11-12-17-17-12 12z m375-289l17 0 0-24-17 0z m-15-37l-17 17 11 12 18-18z m-26-4l25 0 0-16-25 0z m20-49l-11 12 17 17 12-12z m21 16l17 0 0-25-17 0z m38-16l-18 17 12 12 17-17z m-5 49l25 0 0-16-25 0z m5 33l11-12-17-17-12 11z m-203-115l17 0 0-17-17 0z m0-33l17 0 0-17-17 0z m17 16l16 0 0-16-16 0z m-33 0l16 0 0-16-16 0z m-100 479l17 0 0-17-17 0z m0-33l17 0 0-17-17 0z m17 16l16 0 0-16-16 0z m-33 0l16 0 0-16-16 0z"/>
<glyph glyph-name="bar-chart" unicode="&#106;" d="M105 89l-49 0c-4 0-7-4-7-8 0-4 3-7 7-7l49 0c4 0 7 3 7 7 0 4-3 8-7 8z m-88 335l-9 0c-5 0-8-4-8-8 0-4 3-7 8-7l9 0c4 0 8 3 8 7 0 4-4 8-8 8z m107-306l-68 0c-4 0-7-3-7-8 0-4 3-7 7-7l68 0c4 0 7 3 7 7 0 5-3 8-7 8z m-107 112l-9 0c-5 0-8-4-8-8 0-4 3-7 8-7l9 0c4 0 8 3 8 7 0 4-4 8-8 8z m0-112l-9 0c-5 0-8-3-8-8 0-4 3-7 8-7l9 0c4 0 8 3 8 7 0 5-4 8-8 8z m39 67l39 0c4 0 7 4 7 8 0 4-3 7-7 7l-39 0c-4 0-7-3-7-7 0-4 3-8 7-8z m-39 142l-9 0c-5 0-8-4-8-8 0-4 3-7 8-7l9 0c4 0 8 3 8 7 0 4-4 8-8 8z m107 97l-68 0c-4 0-7-4-7-8 0-4 3-7 7-7l68 0c4 0 7 3 7 7 0 4-3 8-7 8z m0-194l-68 0c-4 0-7-4-7-8 0-4 3-7 7-7l68 0c4 0 7 3 7 7 0 4-3 8-7 8z m371 208l-325 0 0 66c0 5-3 8-7 8-4 0-8-3-8-8l0-497c0-4 4-7 8-7 4 0 7 3 7 7l0 67 199 0c9 0 17 7 17 17l0 39c0 9-8 17-17 17l-199 0 0 24 228 0c9 0 17 8 17 17l0 39c0 9-8 17-17 17l-149 0c-5 0-8-3-8-7 0-5 3-8 8-8l149 0c1 0 2-1 2-2l0-39c0-1-1-2-2-2l-228 0 0 43 53 0c4 0 8 3 8 8 0 4-4 7-8 7l-53 0 0 24 267 0c9 0 17 8 17 17l0 39c0 9-8 17-17 17l-267 0 0 24 200 0c4 0 7 3 7 7 0 5-3 8-7 8l-200 0 0 43 325 0c1 0 2-1 2-2l0-39c0-1-1-2-2-2l-91 0c-4 0-7-3-7-8 0-4 3-7 7-7l91 0c9 0 17 8 17 17l0 39c0 10-8 17-17 17z m-325-112l267 0c1 0 2-1 2-2l0-39c0-1-1-2-2-2l-267 0z m0-194l199 0c1 0 2-1 2-2l0-39c0-1-1-2-2-2l-199 0z m-114 248l39 0c4 0 7 3 7 7 0 4-3 8-7 8l-39 0c-4 0-7-4-7-8 0-4 3-7 7-7z m68-53l-68 0c-4 0-7-4-7-8 0-4 3-7 7-7l68 0c4 0 7 3 7 7 0 4-3 8-7 8z m-68-45l19 0c5 0 8 4 8 8 0 4-3 7-8 7l-19 0c-4 0-7-3-7-7 0-4 3-8 7-8z"/>
<glyph glyph-name="bar-chart-1" unicode="&#107;" d="M456 298c15 0 27 12 27 27 0 15-12 27-27 27-15 0-27-12-27-27 0-15 12-27 27-27z m0 39c7 0 12-6 12-12 0-7-5-12-12-12-7 0-12 5-12 12 0 6 5 12 12 12z m42-262l-5 0 0 207c11 11 19 26 19 43 0 31-25 56-56 56-23 0-44-15-52-35l-67 0 0 82c0 4-3 8-7 8-4 0-8-4-8-8l0-356c-2-1-4-2-5-4-3-2-7-3-11-3l-13 0 0 47c0 8-6 15-14 17l0 345c0 1 1 2 2 2l39 0c1 0 2-1 2-2l0-19c0-4 4-8 8-8 4 0 7 4 7 8l0 19c0 9-7 17-17 17l-39 0c-9 0-17-8-17-17l0-128-227 0c-10 0-18-7-18-16l0-255-5 0c-6 0-12-5-14-11-1-5 1-11 6-14l15-12c15-11 33-17 51-17l367 0c18 0 35 5 49 16l18 13c5 3 7 8 6 14-2 6-8 11-14 11z m-42 291c23 0 41-19 41-41 0-23-18-41-41-41-23 0-41 18-41 41 0 22 18 41 41 41z m-119-35l63 0c0-2 0-4 0-6 0-3 0-6 1-8l-64 0z m0-29l68 0c1-3 2-5 4-8l-72-58z m0-86l82 67c10-9 23-14 37-14 8 0 15 1 22 4l0-198-98 0 0 100c0 9-8 17-17 17l-26 0z m28-41l0-100-28 0 0 102 26 0c1 0 2-1 2-2z m-90-61c2 0 3-1 3-2l0-47-30 0 0 49z m-85 39l0 114c0 1 1 2 2 2l39 0c1 0 2-1 2-2l0-84c0-4 3-7 7-7 5 0 8 3 8 7l0 28 16 0 0-82-16 0 0 27c0 4-3 8-8 8-4 0-7-4-7-8l0-91-28 0 0 71c0 9-7 16-15 17z m0-17l0-65c-5 2-10 4-15 4l-28 0 0 61c0 1 1 2 2 2l39 0c1 0 2-1 2-2z m-156 194c1 0 1 1 3 1l227 0 0-14-230 0z m0-28l230 0 0-76-16 0 0 41c0 9-8 17-17 17l-39 0c-10 0-17-8-17-17l0-63-102-65-39 0z m0-178l41 0c2 0 3 0 5 1l95 61 0-33-26 0c-9 0-17-8-17-17l0-61-98 0z m446-75c-12-8-26-13-41-13l-367 0c-15 0-30 5-42 14l-13 10 122 0c0 0 1 0 1 0l35 0c3 0 7-1 10-3l2-2c6-3 12-5 18-5l35 0c0 0 1 0 1 0l65 0c7 0 14 2 19 6 4 3 7 4 11 4l159 0z"/>
<glyph glyph-name="bar-chart-2" unicode="&#108;" d="M353 449l10 10 0-61c0-47 38-85 85-85l25 0c5 0 8 3 8 7 0 4-3 8-8 8l-25 0c-38 0-70 31-70 70l0 61 11-10c2-3 7-3 10 0 3 3 3 7 0 10l-23 24c-3 3-8 3-11 0l-23-24c-3-3-3-7 0-10 3-3 8-3 11 0z m-95-384l-10-10 0 61c0 47-38 85-85 85l-126 0c-5 0-8-3-8-7 0-4 3-8 8-8l126 0c38 0 70-31 70-70l0-61-11 10c-2 3-7 3-10 0-3-3-3-7 0-10l23-24c2-1 4-2 5-2 2 0 4 1 6 2l23 24c3 3 3 7 0 10-3 3-8 3-11 0z m247 198l-22 0c0 1 0 1 0 0l-58 0c0 1 0 1 0 0l-39 0c0 1 0 1 0 0l-58 0c0 1 0 1 0 0l-31 0 0 144c0 10-8 18-18 18l-39 0c-9 0-17-8-17-18l0-144-24 0 0 185c0 4-3 7-7 7-4 0-8-3-8-7l0-185-43 0 0 232c0 1 1 2 2 2l39 0c1 0 2-1 2-2l0-20c0-4 4-7 8-7 4 0 7 3 7 7l0 20c0 9-7 17-17 17l-39 0c-9 0-17-8-17-17l0-232-24 0 0 39c0 4-3 8-7 8-4 0-8-4-8-8l0-39-43 0 0 200c0 1 1 2 2 2l39 0c1 0 2-1 2-2l0-131c0-4 4-8 8-8 4 0 7 4 7 8l0 131c0 9-7 17-17 17l-39 0c-9 0-17-8-17-17l0-200-21 0c-5 0-8-3-8-7 0-4 3-8 8-8l312 0 0-231c0-9 8-17 18-17l38 0c10 0 18 8 18 17l0 137c0 4-4 8-8 8-4 0-7-4-7-8l0-137c0-1-1-2-3-2l-38 0c-2 0-3 1-3 2l0 231 44 0 0-64c0-4 3-7 7-7 4 0 8 3 8 7l0 64 23 0 0-132c0-9 8-17 18-17l38 0c10 0 18 8 18 17l0 132 14 0c4 0 7 4 7 8 0 4-3 7-7 7z m-223 0l-44 0 0 144c0 2 1 3 2 3l39 0c2 0 3-1 3-3z m194-147c0-1-1-2-3-2l-38 0c-2 0-3 1-3 2l0 132 44 0z"/>
<glyph glyph-name="bar-chart-3" unicode="&#109;" d="M299 168c4 0 7 3 7 7l0 203c0 4-3 8-7 8-4 0-8-4-8-8l0-203c0-4 4-7 8-7z m-180 41c-49 0-90-40-90-90 0-15 4-29 11-42 2-4 6-5 10-3 3 2 5 6 3 10-6 11-9 23-9 35 0 41 34 75 75 75 40 0 73-31 75-70l-24 0 0 31c0 4-3 8-7 8-4 0-8-4-8-8l0-31-43 0 0 51c0 4-3 7-7 7-5 0-8-3-8-7l0-51-31 0c-4 0-8-4-8-8 0-4 4-7 8-7l127 0c-5-37-36-65-74-65-19 0-37 7-50 20-3 3-8 2-11-1-3-3-3-8 0-10 17-16 39-24 61-24 48 0 88 38 90 86 0 0 0 1 0 1 0 0 0 1 0 1 0 1 0 1 0 2 0 50-40 90-90 90z m376-57l-33 0 0 265c0 10-8 17-18 17l-39 0c-9 0-17-7-17-17l0-239c0-4 4-7 8-7 4 0 7 3 7 7l0 239c0 1 1 2 2 2l39 0c2 0 3-1 3-2l0-265-83 0 0 343c0 9-7 17-17 17l-39 0c-9 0-17-8-17-17l0-88c0-4 4-8 8-8 4 0 7 4 7 8l0 88c0 1 1 2 2 2l39 0c1 0 2-1 2-2l0-343-33 0c-9 0-18-4-24-11l-25 0 0 247c0 10-7 17-17 17l-39 0c-9 0-17-7-17-17l0-158c0-4 3-8 8-8 4 0 7 4 7 8l0 158c0 1 1 2 2 2l39 0c1 0 2-1 2-2l0-247-16 0c-7 38-32 70-66 86l0 74c0 9-7 17-17 17l-39 0c-9 0-17-8-17-17l0-65c-55-10-97-59-97-117 0-66 53-119 119-119 58 0 107 42 117 97l56 0c6-6 15-11 24-11l179 0c9 0 17 8 17 18l0 31c0 9-8 17-17 17z m-381 151l39 0c1 0 2-1 2-2l0-68c-11 3-23 5-36 5-2 0-5 0-7 0l0 63c0 1 1 2 2 2z m5-288c-57 0-104 47-104 104 0 58 47 104 104 104 58 0 104-46 104-104 0-57-46-104-104-104z m165 97l-46 0c0 2 0 5 0 7 0 2 0 5 0 7l46 0c0-2-1-4-1-7 0-2 1-5 1-7z m213-8c0-2-1-3-2-3l-179 0c-10 0-18 8-18 18 0 10 8 18 18 18l179 0c1 0 2-1 2-2z"/>
<glyph glyph-name="bar-chart-4" unicode="&#110;" d="M505 15l-120 0 0 201 39 18c5-5 12-9 20-9 15 0 27 12 27 27 0 12-8 23-19 26l0 142c11 4 19 14 19 26 0 15-12 27-27 27-15 0-27-12-27-27 0-12 9-22 20-26l0-142c-11-3-20-14-20-26 0-1 1-3 1-4l-33-16 0 263c0 9-8 17-17 17l-39 0c-10 0-17-8-17-17l0-187-18 0 0 90c0 9-8 17-18 17l-38 0c-10 0-18-8-18-17l0-68c0-4 4-7 8-7 4 0 7 3 7 7l0 68c0 1 1 2 3 2l38 0c2 0 3-1 3-2l0-90c-8-2-13-9-13-17l0-276-19 0 0 150c0 7-5 14-12 16l0 120c0 4-3 7-7 7-4 0-8-3-8-7l0-119-20 0 0 80c0 9-7 17-17 17l-39 0c-9 0-17-8-17-17l0-152-31-15c-5 6-13 9-21 9-14 0-26-12-26-27 0-12 8-22 19-25l0-37-60 0c-5 0-8-3-8-8 0-4 3-7 8-7l497 0c4 0 7 3 7 7 0 5-3 8-7 8z m-73 431c0 7 6 12 12 12 7 0 12-5 12-12 0-6-5-12-12-12-6 0-12 6-12 12z m12-182c7 0 12-5 12-12 0-6-5-12-12-12-6 0-12 6-12 12 0 7 6 12 12 12z m-380-187c0 7 5 12 11 12 7 0 12-5 12-12 0-6-5-12-12-12-6 0-11 6-11 12z m63-62l-44 0 0 37c11 3 19 13 19 25 0 2 0 3 0 5l25 12z m105 0l-43 0 0 72c0 4-4 8-8 8-4 0-7-4-7-8l0-72-32 0 0 90c0 0 0 1 0 1l0 156c0 1 1 2 2 2l39 0c1 0 2-1 2-2l0-81c-6-2-11-9-11-16l0-49c0-5 3-8 7-8 4 0 8 3 8 8l0 49c0 1 1 2 2 2l39 0c1 0 2-1 2-2z m138 0l-31 0 0 174c0 4-3 8-7 8-4 0-8-4-8-8l0-174-43 0 0 276c0 1 1 2 2 2l39 0c1 0 2-1 2-2l0-72c0-4 4-7 8-7 4 0 7 3 7 7l0 72c0 8-5 15-12 17l0 187c0 1 1 2 2 2l39 0c1 0 2-1 2-2z"/>
<glyph glyph-name="bar-chart-5" unicode="&#111;" d="M290 15l-9 0 0 72c0 4-4 8-8 8-4 0-7-4-7-8l0-72-22 0 0 198c0 8-4 14-11 16l0 52c0 4-3 8-7 8-4 0-8-4-8-8l0-51-21 0 0 80c0 10-8 18-17 18l-39 0c-10 0-17-8-17-18l0-194c0-5 3-8 7-8 4 0 8 3 8 8l0 194c0 2 1 3 2 3l39 0c1 0 2-1 2-3l0-81c-6-2-11-8-11-16l0-198-21 0 0 62c0 10-8 18-18 18l-30 0 0 31c0 9-7 17-17 17l-39 0c-9 0-17-8-17-17l0-111-21 0c-5 0-8-3-8-8 0-4 3-7 8-7l282 0c4 0 7 3 7 7 0 5-3 8-7 8z m-203 78c-6-2-11-8-11-16l0-62-32 0 0 111c0 1 1 2 2 2l39 0c1 0 2-1 2-2z m48-78l-44 0 0 62c0 2 1 3 3 3l38 0c2 0 3-1 3-3z m94 0l-43 0 0 198c0 2 1 2 2 2l39 0c1 0 2 0 2-2z m276 0l-24 0 0 62c0 10-8 18-17 18l-39 0c-10 0-17-8-17-18l0-21-22 0 0 87c0 4-3 7-7 7-4 0-8-3-8-7l0-88c-6-3-11-9-11-16l0-24-21 0 0 121c0 7-5 13-11 16l0 120c0 1 1 2 2 2l39 0c1 0 2-1 2-2l0-100c0-4 4-7 8-7 4 0 7 3 7 7l0 100c0 9-7 17-17 17l-39 0c-9 0-17-8-17-17l0-119-21 0 0 186c0 10-8 18-18 18l-38 0c-10 0-18-8-18-18l0-28c0-4 4-8 8-8 4 0 7 4 7 8l0 28c0 2 1 3 3 3l38 0c2 0 3-1 3-3l0-187c-7-3-11-9-11-16l0-20c0-4 3-8 7-8 4 0 8 4 8 8l0 20c0 1 1 2 2 2l39 0c1 0 2-1 2-2l0-121-9 0c-4 0-7-3-7-8 0-4 3-7 7-7l190 0c4 0 7 3 7 7 0 5-3 8-7 8z m-86 0l-44 0 0 24c0 1 1 2 3 2l38 0c2 0 3-1 3-2z m47 0l-32 0 0 24c0 7-5 13-11 16l0 22c0 2 1 3 2 3l39 0c1 0 2-1 2-3z m-226 373c4-5 10-7 17-7 0 0 1 0 2 0 7 0 13 4 17 10l51 88c3 5 4 11 3 16-2 6-5 11-10 14-5 3-11 4-17 2-6-1-11-5-14-10l-36-61-6 6c-4 5-9 7-15 8-6 0-11-2-16-6-4-4-7-9-7-15-1-6 1-12 5-16z m-16 44c0 2 1 4 2 5 1 1 3 2 5 2 0 0 0 0 0 0 2 0 4-1 5-3l13-14c1-2 4-3 6-2 2 0 5 1 6 3l41 71c1 1 3 2 5 3 1 0 3 0 5-1 2-1 3-2 3-4 1-2 0-4-1-6l-51-87c-1-2-3-3-6-3 0 0 0 0 0 0 0 0 0 0 0 0-2 0-4 0-6 2l-26 29c-1 1-1 3-1 5z"/>
<glyph glyph-name="book" unicode="&#112;" d="M140 318c0 11-9 21-20 21-12 0-21-10-21-21 0-11 9-21 21-21 11 0 20 10 20 21z m-24 0c0 2 1 4 4 4 2 0 4-2 4-4 0-2-2-4-4-4-3 0-4 2-4 4z m111-21c11 0 21 10 21 21 0 11-10 21-21 21-11 0-21-10-21-21 0-11 10-21 21-21z m0 25c2 0 4-2 4-4 0-2-2-4-4-4-2 0-4 2-4 4 0 2 2 4 4 4z m12-49l-16 0c0-28-22-50-50-50-27 0-49 22-49 50l-17 0c0-37 30-67 66-67 37 0 66 30 66 67z m166 66l-33 0c-9 0-17 7-17 16l-16 0c0-18 14-33 33-33l8 0 0-16 16 0 0 16 9 0c18 0 33 15 33 33l0 8c0 19-15 33-33 33l-33 0c-9 0-17 8-17 17l0 8c0 9 8 17 17 17l33 0c9 0 16-8 16-17l17 0c0 18-15 33-33 33l-9 0 0 17-16 0 0-17-8 0c-19 0-33-15-33-33l0-8c0-18 14-33 33-33l33 0c9 0 16-8 16-17l0-8c0-9-7-16-16-16z m-73-203c-9 10-21 17-35 19l-66 9 0 9c28 16 49 43 55 75 12 2 21 8 28 17l0-9 16 0 0-17-16 0 0-16 16 0 0-33 116 0 0 33 16 0 0 16-16 0 0 17 16 0 0 17-16 0 0 6c40 21 66 63 66 109 0 68-56 124-124 124-42 0-79-21-101-53-28 33-70 53-114 53-82 0-148-67-148-149l0-74c0-21 15-38 35-41 7-32 28-59 56-75l0-9-66-9c-29-4-50-29-50-58l0-97 347 0 0 116-15 0 56 39 57-39-16 0 0-116 17 0 0 99 51 0-109 76z m-26 153c0-11-8-20-17-23 0 2 0 4 0 7l0 41c5-7 11-13 17-18l-1-1c0-2 1-4 1-6z m24-16l-11 0c1 3 2 7 3 11 2-2 5-4 8-5z m99-34l-16 0 0-16 16 0 0-17-82 0 0 17 49 0 0 16-49 0 0 17 82 0z m-41 256c59 0 107-48 107-107 0-41-24-79-61-97l-5-2 0-16-82 0 0 16-5 2c-37 18-61 56-61 97 0 59 48 107 107 107z m-347-206c0 11 7 20 17 23l0-39c0-3 0-5 0-7-10 3-17 12-17 23z m17 74l0-34c-6-1-12-3-17-7l0 41c0 73 60 132 132 132 41 0 80-19 105-51-9-17-14-36-14-56l-181 0c-14 0-25-11-25-25z m16-90l0 90c0 5 4 9 9 9l182 0c2-10 4-19 8-28l0-71c0-55-45-100-100-100-54 0-99 45-99 100z m141-108l0-7c-2-4-11-26-42-26-31 0-39 22-41 26l0 7c13-5 27-8 41-8 15 0 29 3 42 8z m-51-148l-147 0 0 49 57 0 0-16 66 0c14 0 25-12 25-25 0-3 0-6-1-8z m166 0l-147 0c-1 2-1 5-1 8 0 13 11 25 24 25l67 0 0 16 57 0z m0 66l-57 0 0 24-17 0 0-41-50 0c-13 0-25-7-33-17-7 10-19 17-33 17l-49 0 0 41-17 0 0-24-57 0 0 14c0 21 15 38 35 41l66 10c7-14 24-32 55-32 32 0 49 18 55 32l67-10c9-1 17-5 23-12l-39-27 51 0z m33 33l17 0 0-58-17 0z m33-50l17 0 0-66-17 0z m0 33l17 0 0-16-17 0z"/>
<glyph glyph-name="boss" unicode="&#113;" d="M363 460c-2 3-7 3-10 1-4-3-4-7-2-11 38-48 33-116-10-159-3-3-6-7-10-9-3 5-7 9-13 11l-26 13c-3 2-4 5-4 8l0 17c14 10 24 26 24 45l0 16c0 20-11 37-26 47 1 3 2 6 2 9 0 18-15 32-32 32-17 0-32-14-32-32 0-3 1-6 2-9-15-10-26-27-26-47l0-16c0-19 10-35 24-45l0-17c0-3-1-6-4-8l-26-13c-6-2-10-6-13-11-4 2-7 6-10 9-47 47-47 124 0 171 43 43 111 47 159 10 3-3 8-2 11 1 2 3 2 8-2 11-54 41-131 37-179-12-53-53-53-139 0-192 26-26 61-39 96-39 35 0 70 13 96 39 48 49 53 126 11 180z m-107 5c9 0 17-7 17-17 0-1-1-2-1-3-5 2-10 3-16 3-6 0-11-1-16-3 0 1-1 2-1 3 0 10 8 17 17 17z m0-32c22 0 41-18 41-41l0-2c-32-10-50 14-51 15-1 2-3 3-5 3-3 0-5-1-6-2-7-8-15-11-20-13 1 22 19 40 41 40z m-41-57l0 2c6 1 15 4 25 12 3-3 7-7 13-10 7-4 17-8 29-8 5 0 9 1 15 2-2-21-19-38-41-38-22 0-41 18-41 40z m34-120c-20 1-39 7-56 17 2 3 4 5 8 7l25 13c2 1 3 1 4 2l19-18z m-10 52c0 2 0 4 0 6l0 9c6-1 11-2 17-2 6 0 11 1 17 2l0-9c0-2 0-4 0-6l-17-17z m25-52l0 21 18 18c1-1 2-1 4-2l26-13c3-2 5-4 7-7-17-10-36-16-55-17z m120-81l-120 0 0 41c0 4-4 7-8 7-4 0-7-3-7-7l0-41-121 0c-18 0-32-14-32-31l0-56c0-4 4-8 8-8 4 0 7 4 7 8l0 56c0 9 8 16 17 16l120 0 0-72c0-4 4-8 8-8 4 0 7 4 7 8l0 72 121 0c9 0 17-7 17-16l0-56c0-4 3-8 7-8 4 0 8 4 8 8l0 56c0 17-14 31-32 31z m-104-136c-4 0-7-3-7-7 0-10-8-17-17-17-9 0-17 7-17 17 0 9 8 16 17 16 4 0 8 3 8 8 0 4-4 7-8 7-17 0-32-14-32-31 0-18 15-32 32-32 17 0 32 14 32 32 0 4-4 7-8 7z m152 0c-4 0-7-3-7-7 0-10-8-17-17-17-9 0-16 7-16 17 0 9 7 16 16 16 4 0 8 3 8 8 0 4-4 7-8 7-17 0-31-14-31-31 0-18 14-32 31-32 18 0 32 14 32 32 0 4-3 7-8 7z m-304 0c-4 0-8-3-8-7 0-10-7-17-16-17-9 0-17 7-17 17 0 9 8 16 17 16 4 0 7 3 7 8 0 4-3 7-7 7-18 0-32-14-32-31 0-18 14-32 32-32 17 0 31 14 31 32 0 4-3 7-7 7z"/>
<glyph glyph-name="box" unicode="&#114;" d="M448 336l-16 0 0 96c0 9-7 16-16 16l-16 0c-8 0-15-7-15-16l0 0-49 0 0 48c0 9-7 16-16 16l-16 0c-8 0-15-7-15-16l0 0-17 0 0 16c0 9-7 16-16 16l-80 0c-3 0-6-1-8-2-3 1-5 2-8 2l-80 0c-9 0-16-7-16-16l0-160 0 0c-18 0-32-15-32-32l0-272c0-18 14-32 32-32l384 0c18 0 32 14 32 32l0 272c0 17-14 32-32 32z m-48 96c0 1 0 1 0 1l16 0c1 0 1 0 1-1l0-96-17 0z m-64-15l49 0 0-81-49 0z m-64 48l17 0 0-9c0-4 3-7 7-7 4 0 8 3 8 7l0 24c0 1 0 1 0 1l16 0c0 0 1 0 1-1l0-144-17 0 0 88c0 4-4 8-8 8-4 0-7-4-7-8l0-88-17 0z m-97 31c0 1 1 1 1 1l80 0c0 0 1 0 1-1l0-160-82 0z m-96 0c0 1 0 1 1 1l80 0c0 0 0 0 0-1l0-160-81 0z m369-481l-384 0c-10 0-17 7-17 17l0 272c0 9 7 17 17 17l384 0c10 0 17-8 17-17l0-272 0 0c0-10-7-17-17-17z m-312 449l-32 0c-4 0-8-3-8-8 0-4 4-7 8-7l32 0c4 0 7 3 7 7 0 5-3 8-7 8z m0-32l-32 0c-4 0-8-4-8-8 0-4 4-7 8-7l32 0c4 0 7 3 7 7 0 4-3 8-7 8z m0-32l-32 0c-4 0-8-4-8-8 0-4 4-7 8-7l32 0c4 0 7 3 7 7 0 4-3 8-7 8z m96 64l-32 0c-4 0-8-3-8-8 0-4 4-7 8-7l32 0c4 0 7 3 7 7 0 5-3 8-7 8z m0-32l-32 0c-4 0-8-4-8-8 0-4 4-7 8-7l32 0c4 0 7 3 7 7 0 4-3 8-7 8z m0-32l-32 0c-4 0-8-4-8-8 0-4 4-7 8-7l32 0c4 0 7 3 7 7 0 4-3 8-7 8z m68-112l-60 0c-4 0-8-4-8-8 0-4 4-7 8-7l60 0c7 0 13-6 13-13 0-7-6-13-13-13l-88 0c-7 0-13 6-13 13 0 6 5 11 10 12 4 1 7 5 6 9-1 4-5 7-9 6-12-3-22-14-22-27 0-15 13-28 28-28l88 0c15 0 28 13 28 28 0 15-13 28-28 28z m122-140l-24 32c-1 2-3 3-6 3-2 0-4-1-6-3l-24-32c-2-3-2-8 2-10 1-1 3-2 4-2 3 0 5 1 6 3l11 14 0-73c0-4 3-8 7-8 4 0 8 4 8 8l0 73 10-14c3-3 8-4 11-1 3 2 4 7 1 10z m-6-93l-48 0c-4 0-7-3-7-7 0-5 3-8 7-8l48 0c4 0 8 3 8 8 0 4-4 7-8 7z"/>
<glyph glyph-name="boy" unicode="&#115;" d="M462 263l0 18 17 0 0 8c0 123-100 223-223 223-123 0-223-100-223-223l0-8 17 0 0-18c-10-4-17-13-17-24 0-13 11-24 25-24 13 0 25 11 25 24 0 11-7 20-17 24l0 18 99 0 0-18c-9-4-16-13-16-24 0-13 11-24 24-24 14 0 25 11 25 24 0 11-7 20-16 24l0 18 66 0 0-116-9 0c-22 0-41-18-41-41 0-23 19-41 41-41l34 0c13 0 24-12 24-25 0-14-11-25-24-25l-34 0c-13 0-24 11-24 25l-17 0c0-23 19-41 41-41l9 0 0-17 16 0 0 17 9 0c22 0 41 18 41 41 0 23-19 41-41 41l-34 0c-13 0-24 11-24 25 0 14 11 25 24 25l34 0c13 0 24-11 24-25l17 0c0 23-19 41-41 41l-9 0 0 116 66 0 0-18c-9-4-16-13-16-24 0-13 11-24 25-24 13 0 24 11 24 24 0 11-7 20-16 24l0 18 99 0 0-18c-10-4-17-13-17-24 0-13 12-24 25-24 14 0 25 11 25 24 0 11-7 20-17 24z m-404-32c-5 0-8 4-8 8 0 5 3 9 8 9 4 0 8-4 8-9 0-4-4-8-8-8z m115 0c-4 0-8 4-8 8 0 5 4 9 8 9 5 0 9-4 9-9 0-4-4-8-9-8z m-8 66l-115 0c4 102 82 185 181 197l-8-11c-38-55-58-119-58-186z m99 0l-82 0c0 63 19 124 55 176l15 22c1 0 3 0 4 0 1 0 3 0 4 0l15-22c36-52 55-113 55-176z m75-66c-5 0-9 4-9 8 0 5 4 9 9 9 4 0 8-4 8-9 0-4-4-8-8-8z m8 66c0 67-20 131-58 186l-8 11c99-12 177-95 181-197z m107-66c-4 0-8 4-8 8 0 5 4 9 8 9 5 0 8-4 8-9 0-4-3-8-8-8z m-24 118l-16-5c1-5 2-10 3-15l17 3c-2 6-3 11-4 17z m-61 101l-11-12c22-22 40-48 50-78l16 6c-12 32-31 61-55 84z m85-252l17 0 0-25-17 0z m-15-38l-17 18 11 12 18-18z m-26-3l25 0 0-17-25 0z m20-49l-11 11 17 18 12-12z m21 16l17 0 0-25-17 0z m38-16l-18 17 12 12 17-18z m-5 49l25 0 0-17-25 0z m16 21l-17-18-12 12 18 18z m-140-104l17 0 0-16-17 0z m0-33l17 0 0-16-17 0z m17 17l16 0 0-17-16 0z m-33 0l16 0 0-17-16 0z m-306 41l17 0 0-25-17 0z m-15-38l-17 18 11 11 18-17z m-26-3l25 0 0-17-25 0z m20-49l-11 11 17 18 12-12z m21 16l17 0 0-25-17 0z m38-16l-18 17 12 12 17-18z m-5 49l25 0 0-17-25 0z m5 32l11-11-17-18-12 12z m4 92l16 0 0-17-16 0z m0-33l16 0 0-17-16 0z m16 16l17 0 0-16-17 0z m-33 0l17 0 0-16-17 0z m74-58l17 0 0-16-17 0z m0-33l17 0 0-16-17 0z m17 17l16 0 0-17-16 0z m-33 0l16 0 0-17-16 0z"/>
<glyph glyph-name="briefcase" unicode="&#116;" d="M256 200c-35 0-64-29-64-64 0-35 29-64 64-64 35 0 64 29 64 64 0 35-29 64-64 64z m0-108c-24 0-44 20-44 44 0 24 20 44 44 44 24 0 44-20 44-44 0-24-20-44-44-44z m246 313l-106 0 0 46c0 23-18 41-41 41l-198 0c-23 0-41-18-41-41l0-46-106 0c-6 0-10-4-10-10l0-338c0-20 17-37 37-37l438 0c20 0 37 17 37 37l0 338c0 6-4 10-10 10z m-61-20l51 0 0-169-37 0 0 41c0 6-4 10-10 10l-4 0z m-6-169l-87 0 0 31 87 0z m-14-20l0-38-50 0c0 0 0 0 0 0 0 0 0 0 0 0 0 1 0 1 0 1-1 0-1 0-1 0 0 0 0 0 0 1 0 0 0 0-1 0 0 0 0 0 0 0 0 1 0 1 0 1 0 0 0 0-1 0 0 0 0 1 0 1 0 0 0 0 0 0-1 0-1 0-1 0 0 0 0 0 0 0-1 1-1 1-1 1 0 0 0 0 0 0-1 0-1 0-1 0l-2 1 0 32z m0 189l0-118-19 0 0 54c0 6-5 10-10 10-6 0-10-4-10-10l0-54-19 0 0 118z m-285 66c0 12 9 21 21 21l198 0c12 0 21-9 21-21l0-46-20 0 0 37c0 6-5 10-10 10l-180 0c-5 0-10-4-10-10l0-37-20 0z m31-184l-4 0 0 118 180 0 0-118-5 0c-5 0-10-4-10-10l0-35-5 5c-2 2-5 3-7 3-1 0-3 0-4 0 0 0-1-1-1-1l-8-4c-6 3-11 5-17 7l-3 13c-1 4-5 7-10 7l-34 0c-5 0-9-3-10-7l-3-13c-6-2-11-4-17-7l-8 4c-1 1-3 1-4 1 0 0-1 0-1 0-2 0-5-1-7-3l-11-11-1 0 0 41c0 6-4 10-10 10z m0-84c-1-3-3-7-4-10l0 18z m9 222l0 27 160 0 0-27z m-92-20l59 0 0-118-19 0 0 54c0 6-5 10-10 10-6 0-10-4-10-10l0-54-20 0z m-14-138l87 0 0-31-87 0z m73-51l0-35c0 0 0-1 0-1 0 0 0 0-1 0 0 0 0 0 0 0 0 0 0 0 0-1 0 0 0 0 0 0 0 0-1 0-1 0 0 0 0-1 0-1 0 0 0 0 0 0 0 0 0 0 0 0l-57 0 0 38z m-123 189l44 0 0-118-4 0c-5 0-10-4-10-10l0-41-30 0z m17-345c-10 0-17 8-17 17l0 139 44 0 0-48c0-6 5-10 10-10l66 0 0-19c0-5 3-9 7-10l14-3c1-6 4-11 6-16l-4-9c-2-4-1-9 2-12l24-24c3-3 8-4 12-2l8 4c6-2 11-5 17-6l0-1z m231 11l-3-11-18 0-3 11c-1 4-4 7-8 7-7 2-14 5-21 9-3 2-7 2-10 1l-7-4-14 14 4 7c1 2 1 4 1 6-1 2-1 3-2 4-4 7-7 14-9 22-1 3-3 6-7 7l-11 3 0 19 11 2c4 1 6 4 7 8 2 7 5 15 9 21 1 1 1 3 2 4 0 2 0 4-1 6l-4 7 5 5c0 0 0 0 0 0l9 9 7-3c3-2 7-2 10 0 2 1 3 2 5 3 5 2 11 4 16 6 4 1 7 4 8 7l3 11 18 0 3-11c1-3 3-5 5-6 1-1 2-1 3-1 7-2 14-5 21-9 3-2 7-2 10 0l7 3 9-9c0 0 0 0 0 0l5-5-4-7c-1-3-1-7 1-10 4-6 7-14 9-21 1-4 3-7 7-8l11-2 0 0 0-19-11-3c-4-1-6-4-7-7-2-8-5-15-9-22-2-3-2-7-1-10l4-7-14-14-7 4c-3 1-7 1-10-1-7-4-14-7-21-9-4 0-7-3-8-7z m207-11l-189 0 0 1c6 1 11 4 17 6l8-4c4-2 9-1 12 2l24 24c2 2 3 5 3 7 0 2 0 3-1 5l-4 9c2 5 5 10 6 16l14 3c4 1 7 5 7 10l0 19 59 0c6 0 10 4 10 10l0 48 51 0 0-139c0-9-7-17-17-17z m-352 320c0 1 0 2 0 2 0 1-1 1-1 2 0 0-1 1-1 1-1 1-1 1-2 2 0 0-1 0-1 1-1 0-2 0-2 0-2 0-3 0-4 0-1 0-2 0-2 0-1-1-1-1-2-1 0-1-1-1-1-2-1 0-1-1-2-1 0-1 0-1-1-2 0 0 0-1 0-2 0 0 0-1 0-2 0 0 0-1 0-2 0 0 0-1 0-1 1-1 1-2 1-2 1-1 1-1 2-2 0 0 1-1 1-1 1 0 1-1 2-1 0 0 1 0 2 0 0-1 1-1 2-1 0 0 1 0 2 1 0 0 1 0 2 0 0 0 1 1 1 1 1 0 1 1 2 1 0 1 1 1 1 2 0 0 1 1 1 2 0 0 0 1 0 1 1 1 1 2 1 2 0 1 0 2-1 2z m279 0c-1 1-1 2-1 2 0 1-1 1-1 2 0 0-1 1-1 1-1 1-1 1-2 2 0 0-1 0-1 1-1 0-2 0-2 0-2 0-3 0-4 0-1 0-1 0-2 0-1-1-1-1-2-1 0-1-1-1-1-2-1 0-1-1-2-1 0-1 0-1 0-2-1 0-1-1-1-2 0 0 0-1 0-2 0 0 0-1 0-2 0 0 0-1 1-1 0-1 0-2 0-2 1-1 1-1 2-2 0 0 1-1 1-1 1 0 1-1 2-1 1 0 1 0 2 0 0-1 1-1 2-1 0 0 1 0 2 1 0 0 1 0 2 0 0 0 1 1 1 1 1 0 1 1 2 1 0 1 1 1 1 2 0 0 1 1 1 2 0 0 0 1 1 1 0 1 0 2 0 2 0 1 0 2 0 2z"/>
<glyph glyph-name="browser" unicode="&#117;" d="M502 443l-492 0c-6 0-10-4-10-10l0-354c0-6 4-10 10-10l492 0c6 0 10 4 10 10l0 354c0 6-4 10-10 10z m-10-315l-39 0c-6 0-10-4-10-10 0-5 4-10 10-10l39 0 0-19-472 0 0 236 39 0c6 0 10 4 10 10 0 5-4 10-10 10l-39 0 0 19 472 0z m0 256l-472 0 0 39 472 0z m-118 30l-20 0c-5 0-9-5-9-10 0-6 4-10 9-10l20 0c6 0 10 4 10 10 0 5-4 10-10 10z m49 0l-19 0c-6 0-10-5-10-10 0-6 4-10 10-10l19 0c6 0 10 4 10 10 0 5-4 10-10 10z m50 0l-20 0c-6 0-10-5-10-10 0-6 4-10 10-10l20 0c5 0 9 4 9 10 0 5-4 10-9 10z m-361-188l72 72c4 4 4 10 0 14-4 4-10 4-14 0l-78-79c-4-3-4-10 0-14l78-78c2-2 5-3 7-3 3 0 5 1 7 3 4 4 4 10 0 14z m309 7l-79 79c-4 4-10 4-14 0-4-4-4-10 0-14l72-72-72-71c-4-4-4-10 0-14 2-2 4-3 7-3 2 0 5 1 7 3l79 78c3 4 3 11 0 14z m-121 81c-5 2-11 0-13-4l-79-158c-3-5-1-11 4-13 2-1 3-1 5-1 3 0 7 2 8 5l79 158c3 5 1 11-4 13z m-202 23c0 0 0 1 0 2-1 0-1 1-1 1-1 1-1 1-1 2-1 0-1 1-2 1 0 0-1 1-2 1 0 0-1 0-1 0-2 1-3 1-4 0-1 0-2 0-2 0-1 0-1-1-2-1 0 0-1-1-1-1-1-1-1-1-2-2 0 0 0-1 0-1-1-1-1-2-1-2 0-1 0-2 0-2 0-1 0-2 0-2 0-1 0-1 1-2 0-1 0-1 0-2 1 0 1-1 2-1 0-1 1-1 1-1 1-1 1-1 2-1 0-1 1-1 2-1 0 0 1 0 2 0 0 0 1 0 2 0 0 0 1 0 1 1 1 0 2 0 2 1 1 0 1 0 2 1 0 0 0 1 1 1 0 1 0 1 1 2 0 1 0 1 0 2 0 0 0 1 0 2 0 0 0 1 0 2z m335-217c0 1 0 1-1 2 0 1 0 1 0 2-1 0-1 1-2 1 0 1-1 1-1 1-1 1-1 1-2 1 0 0-1 1-2 1-1 0-2 0-4 0 0 0-1-1-1-1-1 0-2 0-2-1-1 0-1 0-2-1 0 0 0-1-1-1 0-1 0-1-1-2 0-1 0-1 0-2 0-1 0-1 0-2 0 0 0-1 0-2 0 0 0-1 0-2 1 0 1-1 1-1 1-1 1-1 1-2 1 0 1-1 2-1 0 0 1-1 2-1 0 0 1 0 1-1 1 0 2 0 2 0 1 0 2 0 2 0 1 1 2 1 2 1 1 0 1 1 2 1 0 0 1 1 1 1 1 1 1 1 2 2 0 0 0 1 0 1 1 1 1 2 1 2 0 1 0 2 0 2 0 1 0 1 0 2z"/>
<glyph glyph-name="browser-1" unicode="&#118;" d="M502 443l-492 0c-6 0-10-4-10-10l0-354c0-6 4-10 10-10l492 0c6 0 10 4 10 10l0 354c0 6-4 10-10 10z m-10-354l-472 0 0 275 472 0z m0 295l-472 0 0 39 472 0z m-118 30l-20 0c-5 0-9-5-9-10 0-6 4-10 9-10l20 0c6 0 10 4 10 10 0 5-4 10-10 10z m49 0l-19 0c-6 0-10-5-10-10 0-6 4-10 10-10l19 0c6 0 10 4 10 10 0 5-4 10-10 10z m50 0l-20 0c-6 0-10-5-10-10 0-6 4-10 10-10l20 0c5 0 9 4 9 10 0 5-4 10-9 10z m-10-69l-414 0c-6 0-10-5-10-10l0-79c0-5 4-10 10-10l414 0c6 0 10 5 10 10l0 79c0 5-4 10-10 10z m-10-79l-394 0 0 59 394 0z m-295-40l-109 0c-5 0-10-4-10-9l0-99c0-5 5-10 10-10l109 0c5 0 9 5 9 10l0 99c0 5-4 9-9 9z m-10-98l-89 0 0 79 89 0z m162 98l-108 0c-6 0-10-4-10-9l0-99c0-5 4-10 10-10l108 0c6 0 10 5 10 10l0 99c0 5-4 9-10 9z m-10-98l-88 0 0 79 88 0z m163 98l-109 0c-5 0-9-4-9-9l0-99c0-5 4-10 9-10l109 0c5 0 10 5 10 10l0 99c0 5-5 9-10 9z m-10-98l-89 0 0 79 89 0z"/>
<glyph glyph-name="browser-2" unicode="&#119;" d="M502 443l-492 0c-6 0-10-4-10-10l0-354c0-6 4-10 10-10l492 0c6 0 10 4 10 10l0 354c0 6-4 10-10 10z m-10-315l-39 0c-6 0-10-4-10-10 0-5 4-10 10-10l39 0 0-19-472 0 0 236 39 0c6 0 10 4 10 10 0 5-4 10-10 10l-39 0 0 19 472 0z m0 256l-472 0 0 39 472 0z m-118 30l-20 0c-5 0-9-5-9-10 0-6 4-10 9-10l20 0c6 0 10 4 10 10 0 5-4 10-10 10z m49 0l-19 0c-6 0-10-5-10-10 0-6 4-10 10-10l19 0c6 0 10 4 10 10 0 5-4 10-10 10z m50 0l-20 0c-6 0-10-5-10-10 0-6 4-10 10-10l20 0c5 0 9 4 9 10 0 5-4 10-9 10z m-375-77c0 0 0 1 0 2-1 0-1 1-1 1-1 1-1 1-1 2-1 0-1 1-2 1 0 0-1 1-2 1 0 0-1 0-1 0-2 1-3 1-4 0-1 0-2 0-2 0-1 0-1-1-2-1 0 0-1-1-1-1-1-1-1-1-2-2 0 0 0-1 0-1-1-1-1-2-1-2 0-1 0-2 0-2 0-1 0-2 0-2 0-1 0-1 1-2 0-1 0-1 0-2 1 0 1-1 2-1 0-1 1-1 1-1 1-1 1-1 2-1 0-1 1-1 2-1 0 0 1 0 2 0 0 0 1 0 2 0 0 0 1 0 1 1 1 0 2 0 2 1 1 0 1 0 2 1 0 0 0 1 1 1 0 1 0 1 1 2 0 1 0 1 0 2 0 0 0 1 0 2 0 0 0 1 0 2z m335-217c0 1 0 1-1 2 0 1 0 1 0 2-1 0-1 1-2 1 0 1-1 1-1 1-1 1-1 1-2 1 0 0-1 1-2 1-1 0-2 0-4 0 0 0-1-1-1-1-1 0-2 0-2-1-1 0-1 0-2-1 0 0 0-1-1-1 0-1 0-1-1-2 0-1 0-1 0-2 0-1 0-1 0-2 0 0 0-1 0-2 0 0 0-1 0-2 1 0 1-1 1-1 1-1 1-1 1-2 1 0 1-1 2-1 0 0 1-1 2-1 0 0 1 0 1 0 1-1 2-1 2-1 1 0 2 0 2 1 1 0 2 0 2 0 1 0 1 1 2 1 0 0 1 1 1 1 1 1 1 1 2 2 0 0 0 1 0 1 1 1 1 2 1 2 0 1 0 2 0 2 0 1 0 1 0 2z m-74 115l-157 89c-3 1-7 1-10 0-3-2-5-5-5-9l0-177c0-4 2-7 5-9 1-1 3-1 5-1 2 0 3 0 5 1l157 89c3 2 5 5 5 8 0 4-2 7-5 9z m-152-80l0 143 127-72z"/>
<glyph glyph-name="browser-3" unicode="&#120;" d="M502 443l-492 0c-6 0-10-4-10-10l0-354c0-6 4-10 10-10l492 0c6 0 10 4 10 10l0 354c0 6-4 10-10 10z m-10-315l-39 0c-6 0-10-4-10-10 0-5 4-10 10-10l39 0 0-19-472 0 0 236 39 0c6 0 10 4 10 10 0 5-4 10-10 10l-39 0 0 19 472 0z m0 256l-472 0 0 39 472 0z m-118 30l-20 0c-5 0-9-5-9-10 0-6 4-10 9-10l20 0c6 0 10 4 10 10 0 5-4 10-10 10z m49 0l-19 0c-6 0-10-5-10-10 0-6 4-10 10-10l19 0c6 0 10 4 10 10 0 5-4 10-10 10z m50 0l-20 0c-6 0-10-5-10-10 0-6 4-10 10-10l20 0c5 0 9 4 9 10 0 5-4 10-9 10z m-375-77c0 0 0 1 0 2-1 0-1 1-1 1-1 1-1 1-1 2-3 2-6 3-9 2-1 0-2 0-2 0-1 0-1-1-2-1 0 0-1-1-1-1-1-1-1-1-2-2 0 0 0-1 0-1-1-1-1-2-1-2 0-1 0-2 0-2 0-1 0-2 0-2 0-1 0-1 1-2 0-1 0-1 0-2 1 0 1-1 2-1 0-1 1-1 1-1 1-1 1-1 2-1 0-1 1-1 2-1 0 0 1 0 2 0 0 0 1 0 2 0 0 0 1 0 1 1 1 0 2 0 2 1 1 0 1 0 2 1 0 0 0 1 1 1 0 1 0 1 1 2 0 1 0 1 0 2 0 0 0 1 0 2 0 0 0 1 0 2z m335-217c0 1 0 1-1 2 0 1 0 1 0 2-1 0-1 1-2 1 0 1-1 1-1 1-1 1-1 1-2 1 0 0-1 1-2 1-1 0-2 0-4 0 0 0-1-1-1-1-1 0-2 0-2-1-1 0-1 0-2-1 0 0 0-1-1-1 0-1 0-1-1-2 0-1 0-1 0-2 0-1 0-1 0-2 0 0 0-1 0-2 0 0 0-1 0-2 1 0 1-1 1-1 1-1 1-1 1-2 1 0 1-1 2-1 0 0 1-1 2-1 0 0 1 0 1 0 1-1 2-1 2-1 3 0 6 1 7 3 1 1 1 1 2 2 0 0 0 1 0 1 1 1 1 2 1 2 0 1 0 2 0 2 0 1 0 1 0 2z m-177 175c-38 0-69-31-69-69 0-38 31-68 69-68 38 0 69 30 69 68 0 38-31 69-69 69z m0-118c-27 0-49 22-49 49 0 28 22 50 49 50 27 0 49-22 49-50 0-27-22-49-49-49z m92 85c-1 1-1 1-2 2 0 0 0 1 1 2 4 9 3 20-4 27l-20 20c-8 7-18 9-27 4-1-1-2 0-3 0 0 0-1 1-1 2-3 9-12 16-22 16l-28 0c-10 0-19-7-22-16 0-1-1-2-1-2-1 0-2-1-3 0-9 5-19 3-27-4l-20-20c-7-7-8-18-4-27 1-1 1-2 1-2-1-1-1-1-2-2-10-3-16-11-16-21l0-29c0-10 6-18 16-21 1-1 1-2 2-2 0 0 0-1-1-2-4-9-3-20 4-27l20-20c8-7 18-9 27-4 1 1 2 0 3 0 0 0 1-1 1-2 3-9 12-16 22-16l28 0c10 0 19 7 22 16 0 1 1 2 1 2 1 0 2 1 3 0 9-5 19-3 27 4l20 20c7 7 8 18 4 27-1 1-1 2-1 2 1 0 1 1 2 2 10 3 16 11 16 21l0 29c0 10-6 18-16 21z m-3-50l0 0c0-1-1-2-2-2-7-2-12-7-15-13-2-7-2-14 1-20 1-1 1-2 0-3l-20-20c-1-1-3-1-4-1-6 4-13 4-19 1-6-2-11-8-13-14 0-1-2-2-3-2l-28 0c-1 0-3 1-3 2-2 6-7 12-13 14-3 1-6 2-9 2-3 0-7-1-10-3-1 0-3 0-4 1l-20 20c-1 1-1 2 0 3 3 6 3 13 1 20-3 6-8 11-15 13-1 0-2 1-2 2l0 29c0 1 1 2 2 2 7 2 12 7 15 13 2 7 2 14-1 20-1 1-1 2 0 3l20 20c1 1 3 1 4 1 6-4 13-4 19-1 6 2 11 7 13 14 0 1 2 2 3 2l28 0c1 0 3-1 3-2 2-6 7-12 13-14 6-3 13-3 19 1 1 0 3 0 4-1l20-20c1-1 1-2 0-3-3-6-3-13-1-20 3-6 8-11 15-13 1 0 2-1 2-2z"/>
<glyph glyph-name="bug" unicode="&#121;" d="M504 464l-496 0c-5 0-8-3-8-8l0-400c0-5 3-8 8-8l496 0c5 0 8 3 8 8l0 400c0 5-3 8-8 8z m-7-80l-65 0c-4 0-7-4-7-8 0-4 3-7 7-7l65 0 0-306-482 0 0 306 381 0c4 0 7 3 7 7 0 4-3 8-7 8l-381 0 0 65 482 0 0-65z m-33 56c-13 0-23-11-23-24 0-13 10-23 23-23 13 0 24 10 24 23 0 13-11 24-24 24z m0-32c-4 0-8 4-8 8 0 5 4 9 8 9 5 0 9-4 9-9 0-4-4-8-9-8z m-64 32c-13 0-23-11-23-24 0-13 10-23 23-23 13 0 24 10 24 23 0 13-11 24-24 24z m0-32c-4 0-8 4-8 8 0 5 4 9 8 9 5 0 9-4 9-9 0-4-4-8-9-8z m-64 32c-13 0-23-11-23-24 0-13 10-23 23-23 13 0 24 10 24 23 0 13-11 24-24 24z m0-32c-5 0-8 4-8 8 0 5 3 9 8 9 5 0 9-4 9-9 0-4-4-8-9-8z m-288 16l-8 0c-5 0-8-4-8-8 0-4 3-7 8-7l8 0c4 0 7 3 7 7 0 4-3 8-7 8z m40 0l-16 0c-5 0-8-4-8-8 0-4 3-7 8-7l16 0c4 0 7 3 7 7 0 4-3 8-7 8z m32 0l-8 0c-4 0-8-4-8-8 0-4 4-7 8-7l8 0c4 0 7 3 7 7 0 4-3 8-7 8z m255-189c-2 4-6 6-10 4l-28-14-17 11c0 1 0 3 0 4 0 12-3 24-7 35l25-5c3-1 7 1 8 3l21 35c2 4 1 9-3 11-4 2-8 0-10-3l-18-31-32 7c-11 17-29 28-48 28-19 0-37-11-48-28l-32-7-18 31c-2 3-6 5-10 3-4-2-5-7-3-11l21-35c1-2 5-4 8-3l25 5c-4-11-7-23-7-35 0-1 0-3 0-4l-17-11-28 14c-4 2-8 0-10-4-2-3 0-8 3-10l32-16c3-1 6-1 8 1l15 9c2-11 7-22 13-31l-20-14c-2-1-4-4-4-6l0-32c0-4 4-8 8-8 4 0 7 4 7 8l0 28 19 12c3-3 7-6 11-8-3-5-5-10-5-16 0-18 15-32 32-32 17 0 32 14 32 32 0 6-2 11-5 16 4 2 8 5 11 8l19-12 0-28c0-4 3-8 7-8 4 0 8 4 8 8l0 32c0 2-2 5-4 6l-20 14c6 9 11 20 13 31l15-9c2-2 5-2 8-1l32 16c3 2 5 7 3 10z m-119-100c-9 0-17 8-17 17 0 9 8 16 17 16 9 0 17-7 17-16 0-9-8-17-17-17z m16 44c-5 3-10 4-16 4-6 0-11-1-16-4-20 9-33 34-33 61 0 15 4 29 11 40 0 1 1 1 1 2 9 14 22 23 37 23 15 0 28-9 37-23 0-1 1-1 1-2 7-11 11-25 11-40 0-27-13-52-33-61z m-16 101c-4 0-8-4-8-8l0-40c0-4 4-8 8-8 4 0 8 4 8 8l0 40c0 4-4 8-8 8z m7-69c0 0-1 2-2 2-1 2-4 3-6 2-1 0-1 0-2 0-3-2-5-5-4-9 0-3 3-6 7-6 5 0 9 6 7 11z m205 24l-40 56c-6 9-18 11-27 5-9-6-11-19-5-27l32-45-32-45c-6-8-4-21 5-27 9-6 21-4 27 4l40 57c5 6 5 15 0 22z m-12-14l-40-56c-1-2-4-2-6-1-2 1-3 4-1 6l35 50c2 2 2 6 0 8l-35 49c-2 2-1 5 1 7 2 1 5 1 6-1l40-56c1-2 1-4 0-6z m-372 3l32 45c3 4 4 9 3 14-1 5-4 10-8 13-9 6-21 4-27-5l-40-56c-5-7-5-16 0-22l40-57c6-8 18-10 27-4 9 6 11 19 5 27z m18-60c-2-1-5-1-6 1l-40 56c-1 2-1 4 0 6l40 56c1 2 4 2 6 1 2-2 3-5 1-7l-35-49c-2-2-2-6 0-8l35-50c2-2 1-5-1-6z"/>
<glyph glyph-name="bug-1" unicode="&#122;" d="M318 418c-61 62-162 62-224 0-62-62-62-163 0-224 31-31 72-47 112-47 41 0 81 16 112 47 62 61 62 162 0 224z m-14-210c-54-54-142-54-196 0-54 54-54 142 0 196 27 27 63 40 98 40 36 0 71-13 98-40 54-54 54-142 0-196z m191-110l-76 76c-1 2-4 3-7 3-2 0-5-1-6-3l-27-27-20 20c73 81 71 207-7 285-39 39-91 60-146 60-55 0-107-21-146-60-39-39-60-91-60-146 0-55 21-107 60-146 39-39 91-61 146-61 52 0 101 19 139 54l20-20-27-27c-4-3-4-10 0-13l76-76c11-11 26-17 41-17 14 0 29 6 40 17 23 22 23 59 0 81z m-157 76c-35-35-82-55-132-55-50 0-96 20-132 55-35 35-54 82-54 132 0 50 19 96 54 132 36 35 82 54 132 54 50 0 97-19 132-54 73-73 73-191 0-264z m143-143c-14-15-38-15-53 0l-41 40 13 13c4 4 4 10 0 14-4 4-10 4-14 0l-13-13-14 15 27 26c0 0 0 0 0 0 0 0 0 0 0 0l26 27 69-69c15-15 15-39 0-53z m-57 83c-1 1-1 1-1 2 0 0-1 1-1 1 0 1-1 2-1 2-1 0-1 1-2 1 0 1-1 1-1 1-1 0-2 1-2 1-1 0-3 0-4 0-1 0-1-1-2-1 0 0-1 0-2-1 0 0-1-1-1-1-2-2-3-4-3-7 0-3 1-5 3-7 0 0 1-1 1-1 1-1 2-1 2-1 1 0 1-1 2-1 1 0 1 0 2 0 2 0 5 1 7 3 0 1 1 1 1 2 0 0 1 1 1 1 0 1 0 1 1 2 0 1 0 1 0 2 0 1 0 1 0 2z m-136 148l-26 7c1 4 1 7 1 10l0 2 22 0c5 0 10 4 10 9 0 6-5 10-10 10l-22 0 0 14 25 7c5 2 8 7 6 13-1 5-7 8-12 6l-20-6c-3 15-17 27-34 27l-3 0 9 13c3 5 2 11-2 14-5 3-11 1-14-3l-11-17-12 17c-3 4-9 6-13 3-5-3-6-9-3-14l9-13-4 0c-16 0-30-12-34-27l-19 6c-6 2-11-1-13-6-1-6 2-11 7-13l24-7 0-14-21 0c-6 0-10-4-10-10 0-5 4-9 10-9l21 0 0-2c0-3 0-6 1-10l-25-7c-5-2-8-8-7-13 2-4 5-7 10-7 1 0 2 0 3 1l26 8c10-17 28-29 49-29 21 0 40 12 50 29l26-8c1-1 2-1 3-1 4 0 8 3 9 7 2 5-1 11-6 13z m-92-19c-15 4-27 19-27 36l0 14 27 0z m48 36c0-17-12-32-28-36l0 50 28 0z m0 42c0 0 0 0 0 0l0-8-75 0 0 8c0 0 0 0 0 0l0 5c0 8 7 15 15 15l44 0c9 0 16-7 16-15z"/>
<glyph glyph-name="building" unicode="&#65;" d="M421 182c-16 0-31-5-45-12l-29 41c12 10 21 22 27 37l55 0c46 0 83 37 83 82 0 38-24 70-60 80-10 49-53 85-105 85-19 0-38-5-53-14-25 20-56 31-88 31-55 0-106-33-128-84-44-6-78-44-78-89 0-51 41-91 91-91l74 0 0 16-74 0c-41 0-74 34-74 75 0 41 33 74 74 74 41 0 74-33 74-74l17 0c0 48-38 87-85 90 21 40 63 66 109 66 27 0 52-8 74-23-25-20-41-50-41-84l17 0c0 50 41 91 91 91 50 0 91-41 91-91 0-10-2-20-5-30l15-6c4 12 6 24 6 36 0 1 0 2 0 4 25-10 41-34 41-62 0-36-29-66-66-66l-51 0c1 6 2 11 2 17 0 50-41 91-91 91-50 0-91-41-91-91 0-6 1-11 2-17l-18 0 0-16 23 0c1-5 3-9 6-13l-51-36c-17 20-42 32-69 32-50 0-91-41-91-91 0-50 41-90 91-90 50 0 91 40 91 90 0 17-5 32-13 46l51 36c17-20 41-32 69-32 16 0 32 4 45 12l29-42c-20-16-33-41-33-69 0-50 41-91 91-91 50 0 91 41 91 91 0 50-41 91-91 91z m-330-116c-41 0-74 33-74 74 0 41 33 75 74 75 41 0 74-34 74-75 0-41-33-74-74-74z m198 140c-41 0-74 34-74 75 0 41 33 74 74 74 41 0 74-33 74-74 0-41-33-75-74-75z m132-189c-41 0-74 33-74 74 0 41 33 74 74 74 41 0 74-33 74-74 0-41-33-74-74-74z m-8 99l16 0c5 0 9-4 9-9l16 0c0 14-11 25-25 25l0 17-16 0 0-17c-14 0-25-11-25-25 0-13 11-24 25-24l16 0c5 0 9-4 9-9 0-4-4-8-9-8l-16 0c-5 0-8 4-8 8l-17 0c0-13 11-24 25-24l0-17 16 0 0 17c14 0 25 11 25 24 0 14-11 25-25 25l-16 0c-5 0-8 4-8 8 0 5 3 9 8 9z m-132 190l16 0c5 0 9-4 9-9l16 0c0 14-11 25-25 25l0 17-16 0 0-17c-14 0-25-11-25-25 0-13 11-24 25-24l16 0c5 0 9-4 9-9 0-4-4-8-9-8l-16 0c-5 0-8 4-8 8l-17 0c0-13 11-25 25-25l0-16 16 0 0 16c14 0 25 12 25 25 0 14-11 25-25 25l-16 0c-5 0-8 4-8 8 0 5 3 9 8 9z m-198-141l16 0c5 0 8-4 8-8l17 0c0 14-11 25-25 25l0 16-16 0 0-16c-14 0-25-11-25-25 0-14 11-25 25-25l16 0c5 0 8-4 8-8 0-5-3-8-8-8l-16 0c-5 0-9 3-9 8l-16 0c0-14 11-25 25-25l0-16 16 0 0 16c14 0 25 11 25 25 0 14-11 25-25 25l-16 0c-5 0-9 3-9 8 0 4 4 8 9 8z"/>
<glyph glyph-name="bullhorn" unicode="&#66;" d="M456 512l-8 0c-12 0-22-7-28-17l-262-95-86 0c-27 0-48-22-48-48l0-96c0-26 21-48 48-48l2 0 44-190c2-11 11-18 22-18l32 0c7 0 14 3 18 9 5 6 6 13 5 20l-42 179 5 0 262-95c6-10 16-17 28-17l8 0c18 0 32 14 32 32l0 352c0 18-14 32-32 32z m-276-487c1-2 0-5-2-7-1-2-4-3-6-3l-32 0c-3 0-7 3-8 7l-43 186 49 0z m276 86l-8 0c-9 0-16 8-16 17l0 304c0 4-4 8-8 8-4 0-7-4-7-8l0-302-250 91 0 19c0 4-3 7-7 7-4 0-8-3-8-7l0-17-80 0c-18 0-33 15-33 33l0 96c0 18 15 33 33 33l80 0 0-113c0-4 4-7 8-7 4 0 7 3 7 7l0 115 250 91 0-14c0-4 3-7 7-7 4 0 8 3 8 7l0 16c0 10 7 17 16 17l8 0c10 0 17-7 17-17l0-352 0 0c0-9-7-17-17-17z"/>
<glyph glyph-name="businessman" unicode="&#67;" d="M405 74l-17 0c-4 0-8 4-8 9l-17 0c0-14 11-25 25-25l0-17 17 0 0 17c13 0 24 11 24 25 0 13-11 24-24 24l-17 0c-4 0-8 4-8 9 0 4 4 8 8 8l17 0c4 0 8-4 8-8l16 0c0 13-11 24-24 24l0 17-17 0 0-17c-14 0-25-11-25-24 0-14 11-25 25-25l17 0c4 0 8-4 8-8 0-5-4-9-8-9z m90 124l0 58c0 42-26 78-63 92l1 1c-19 80-104 138-202 138-24 0-48-3-70-10-20 22-48 35-78 35l-9 0 0-8c0-23 4-45 12-67-17-14-31-30-41-49l-45 0 0-149 45 0c18-32 49-60 87-77l0-38c0-9 8-17 17-17l66 0c9 0 16 8 16 17l0 16c6 0 11 1 17 1l0-17c0-9 7-17 16-17l17 0 0-107 231 0 0 198z m-16 58l0-58-17 0 0 58c0 36-29 66-66 66-36 0-66-30-66-66l0-58-16 0 0 58c0 46 37 83 82 83 46 0 83-37 83-83z m-44 31c7-9 11-19 11-31l0-58-61 0c27 25 44 56 50 89z m-76-89l-12 0 0 58c0 27 22 50 49 50 9 0 17-3 24-7-4-39-25-74-61-101z m-78-74l-17 0 0 35-9-1c-10-1-20-1-29-1l-11 0 0-33-66 0 0 49-5 2c-39 16-70 44-87 77l-2 4-38 0 0 116 38 0 2 4c10 20 25 37 44 52l5 4-2 6c-8 18-12 37-13 57 24-2 45-14 60-33l4-4 5 1c23 8 47 12 71 12 87 0 162-49 184-118-6 1-12 2-19 2-54 0-99-44-99-99l0-58-16 0z m214-107l-198 0 0 165 198 0z m-379 396c-14 0-25-11-25-25 0-14 11-25 25-25 13 0 24 11 24 25 0 14-11 25-24 25z m0-33c-5 0-9 4-9 8 0 5 4 8 9 8 4 0 8-3 8-8 0-4-4-8-8-8z m165 41l0-16 25 0 0 49-133 0 0-49 91 0 0 16-74 0 0 17 99 0 0-17z m165-314l16 0 0-16-16 0z m-116 0l17 0 0-16-17 0z"/>
<glyph glyph-name="businessman-1" unicode="&#68;" d="M319 285l-10 13c-15-11-34-17-53-17-50 0-91 41-91 91 0 50 41 90 91 90 50 0 91-40 91-90 0-25-10-49-28-66l11-12c22 20 33 48 33 78 0 59-48 107-107 107-59 0-107-48-107-107 0-60 48-108 107-108 23 0 45 7 63 21z m-38-202l16 0 0-17-16 0z m-75-17l17 0 0-16-17 0z m108-16l16 0 0-17-16 0z m-66-9l16 0 0-16-16 0z m-75 0l17 0 0-16-17 0z m58 58l17 0 0-16-17 0z m66 289l0 8c0 19-15 33-33 33l0 17-16 0 0-17c-18 0-33-14-33-33 0-18 15-33 33-33l16 0c9 0 17-7 17-16 0-9-8-17-17-17l-16 0c-9 0-17 8-17 17l0 8-16 0 0-8c0-18 15-33 33-33l0-17 16 0 0 17c18 0 33 15 33 33 0 18-15 33-33 33l-16 0c-9 0-17 7-17 16 0 9 8 17 17 17l16 0c9 0 17-8 17-17l0-8z m17-273c48 17 82 63 82 116l0 8-8 0c-46 0-86-25-107-62l0 57c65 11 115 69 115 138 0 77-63 140-140 140-77 0-140-63-140-140 0-69 50-127 115-138l0-57c-21 37-61 62-107 62l-8 0 0-8c0-53 34-99 82-116-52-16-96-53-121-103l-5-12 368 0-5 12c-25 50-69 87-121 103z m66 108c-5-53-47-95-99-99 4 53 46 94 99 99z m-248 149c0 68 56 123 124 123 68 0 124-55 124-123 0-69-56-124-124-124-68 0-124 55-124 124z m132-140l0-108c-2 0-5 0-8 0-3 0-6 0-8 0l0 108c2-1 5-1 8-1 3 0 6 0 8 1z m-132-9c53-5 95-46 99-99-52 4-94 46-99 99z m-33-206c32 55 92 90 157 90 65 0 125-35 157-90z m256 33l17 0 0-17-17 0z m-206 16l16 0 0-16-16 0z m305 446l17 0 0-25-17 0z m-21-9l18-17-12-12-17 18z m-20-32l25 0 0-17-25 0z m20-49l-11 11 17 18 12-12z m21 16l17 0 0-25-17 0z m38-16l-18 17 12 12 17-18z m-5 49l25 0 0-17-25 0z m5 32l11-11-17-18-12 12z m-451-156l17 0 0-25-17 0z m-15-38l-17 17 11 12 18-17z m-26-3l25 0 0-17-25 0z m20-50l-11 12 17 18 12-12z m21 17l17 0 0-25-17 0z m32 13l17-18-11-12-18 18z m1 20l25 0 0-17-25 0z m5 32l11-12-17-17-12 12z m359-24l16 0 0-17-16 0z m0-33l16 0 0-17-16 0z m16 16l17 0 0-16-17 0z m-33 0l17 0 0-16-17 0z m-330 215l16 0 0-17-16 0z m0-33l16 0 0-17-16 0z m16 16l17 0 0-16-17 0z m-33 0l17 0 0-16-17 0z"/>
<glyph glyph-name="captain" unicode="&#69;" d="M342 333l-43 19c-3 1-4 4-4 7l0 12c14 11 23 29 23 48l0 16c5 3 8 8 8 14l0 1c0 34-28 62-62 62l-16 0c-34 0-62-28-62-62l0-14c0-5 3-10 6-13 1 0 1 0 2-1l0-3c0-19 9-37 23-48l0-12c0-3-1-6-4-7l-43-19c-13-6-22-20-22-35l0-73c0-4 3-8 7-8 4 0 8 4 8 8l0 73c0 1 0 1 0 2l19-19c3-3 4-7 4-11l0-30c0-4 4-7 8-7 4 0 7 3 7 7l0 30c0 8-3 16-9 21l-23 23c2 3 5 4 8 5l41 19 31-31 0-20c0-4 3-7 7-7 4 0 8 3 8 7l0 20 30 31 41-19c3-1 6-2 8-5l-23-23c-6-5-9-13-9-21l0-30c0-4 3-7 7-7 4 0 8 3 8 7l0 30c0 4 1 8 4 11l19 19c0-1 0-1 0-2l0-73c0-4 4-8 8-8 4 0 7 4 7 8l0 73c0 15-9 29-22 35z m-86-12l-27 27c2 3 3 7 3 11l0 3c8-3 16-5 24-5 8 0 16 2 24 5l0-3c0-4 1-8 3-11z m0 51c-26 0-47 21-47 47l0 3c5 2 9 5 13 9 3 3 3 7 1 10-3 3-8 4-11 1-4-4-7-6-11-7 0 0 0 1 0 1l0 14c0 26 21 47 47 47l16 0c26 0 47-21 47-47l0-1c0-1 0-1-1-1-43-8-65 8-72 15-3 3-8 3-11 0-3-3-3-7 0-10 23-23 56-23 76-21l0-13c0-26-21-47-47-47z m111-296l-20 12c6 13 10 28 10 44 0 15-4 30-10 43l20 12c4 2 5 7 3 11-2 3-7 4-10 2l-21-12c-17 25-44 42-75 44l0 24c0 4-4 7-8 7-4 0-7-3-7-7l0-24c-32-2-59-19-76-44l-21 12c-3 2-8 1-10-2-2-4-1-9 3-11l20-12c-6-13-10-28-10-43 0-16 4-31 10-44l-20-12c-4-2-5-7-3-10 1-3 4-4 6-4 2 0 3 0 4 1l21 12c17-25 44-41 76-44l0-24c0-4 3-7 7-7 4 0 8 3 8 7l0 24c31 3 58 19 75 44l21-12c1-1 2-1 4-1 2 0 5 1 6 4 2 3 1 8-3 10z m-111-30c-47 0-86 38-86 86 0 47 39 85 86 85 47 0 86-38 86-85 0-48-39-86-86-86z m58 61l-35 20c0 2 0 3 0 5 0 1 0 3 0 4l35 20c3 2 4 7 2 11-2 3-6 4-10 2l-35-20c-2 2-5 4-7 5l0 40c0 4-4 7-8 7-4 0-7-3-7-7l0-40c-3-1-6-3-8-5l-35 20c-4 2-8 1-10-2-2-4-1-9 2-11l35-20c0-1 0-3 0-4 0-2 0-3 0-5l-35-20c-3-2-4-6-2-10 1-2 4-4 6-4 1 0 3 1 4 1l35 20c2-2 5-3 8-4l0-40c0-5 3-8 7-8 4 0 8 3 8 8l0 40c2 1 5 2 7 4l35-20c1 0 3-1 4-1 2 0 5 2 6 4 2 4 1 8-2 10z m-58 17c-4 0-8 3-8 8 0 4 4 8 8 8 4 0 8-4 8-8 0-5-4-8-8-8z"/>
<glyph glyph-name="career" unicode="&#70;" d="M489 171l-44 19c-3 2-5 5-5 8l0 12c14 12 24 30 24 50l0 17c5 3 8 8 8 13l0 2c0 35-29 64-64 64l-16 0c-35 0-63-29-63-64l0-15c0-5 2-9 6-12 0-1 1-1 2-2l0-3c0-20 9-38 24-50l0-12c0-3-2-6-5-8l-44-19c-14-6-23-20-23-36l0-99c0-5 3-8 7-8 4 0 8 3 8 8l0 99c0 1 0 2 0 3l20-21c3-3 5-7 5-11l0-70c0-5 3-8 7-8 4 0 8 3 8 8l0 70c0 8-4 16-10 22l-24 24c3 2 5 4 8 5l43 19 32-31 0-109c0-5 3-8 7-8 4 0 8 3 8 8l0 109 32 31 42-19c3-1 6-3 8-5l-24-24c-6-6-9-14-9-22l0-70c0-5 3-8 7-8 5 0 8 3 8 8l0 70c0 4 2 8 5 11l20 21c0-1 0-2 0-3l0-99c0-5 3-8 8-8 4 0 7 3 7 8l0 99c0 16-9 30-23 36z m-89-13l-28 28c3 4 4 8 4 12l0 3c7-3 16-5 24-5 9 0 17 2 25 5l0-3c0-4 1-8 3-12z m0 53c-27 0-48 22-48 49l0 3c4 2 9 5 13 9 3 3 4 8 1 11-3 3-8 3-11 0-4-3-7-5-11-6 0 0 0 0 0 0 0 0 0 0 0 0l0 15c0 27 21 49 48 49l16 0c27 0 49-22 49-49l0-2c0 0 0 0 0 0-45-9-68 8-75 15-3 3-8 3-11 0-3-3-3-7 0-10 23-24 57-24 78-21l0-14c0-27-22-49-49-49z m-168 89l-16 0c-26 0-48-22-48-48l0-16c0-4 4-8 8-8 0 0 0 0 0 0l0-8c0-14 7-27 16-36l0-10c0-4-1-6-4-8l-42-21c-11-5-18-16-18-28l0-81c0-5 4-8 8-8 4 0 7 3 7 8l0 81c0 1 0 3 1 4l11-12c4-3 5-7 5-11l0-62c0-5 4-8 8-8 4 0 7 3 7 8l0 62c0 8-3 16-9 22l-12 12 40 21c2 0 3 1 4 2l18-18 0-101c0-5 4-8 8-8 4 0 7 3 7 8l0 101 19 18c1-1 2-2 3-2l8-4c1 0 2-1 3-1 3 0 5 2 7 4 2 4 0 9-4 11l-7 3c-3 2-5 4-5 8l0 10c10 9 17 22 17 36l0 8c0 0 0 0 0 0 4 0 8 4 8 8l0 16c0 26-22 48-48 48z m-8-150l-17 18c0 2 0 4 0 6l0 1c6-2 11-3 17-3 6 0 11 1 16 3l0-1c0-2 1-4 1-6z m33 70c0-18-15-33-33-33-18 0-33 15-33 33l0 12c6 2 12 5 18 11 8-4 24-11 48-14z m8 24c-33 1-53 14-53 14-1 1-3 1-4 1-2 0-4 0-5-2-8-7-15-10-20-12l0 7c0 18 15 33 33 33l16 0c18 0 33-15 33-33z m-154-64l0 16c0 22-18 39-39 39-22 0-40-17-40-39 0 0 0 0 0 0 0 0 0 0 0 0l0-16c0-13 6-25 16-32l0-11c0 0 0-1 0-1l-35-17c-8-4-13-12-13-21l0-62c0-5 3-8 8-8 4 0 7 3 7 8l0 62c0 3 2 6 5 7l23 12 21-20 0-61c0-5 3-8 8-8 4 0 7 3 7 8l0 61 21 20 0 0c1-1 3-1 4-1 2 0 5 2 6 4 2 4 1 9-3 10l-12 6c0 0 0 1 0 1l0 11c10 7 16 19 16 32z m-39 40c13 0 24-11 24-24l0 0c-20 0-39 4-48 6 2 10 12 18 24 18z m0-110l-15 15c4 3 6 7 6 12l0 4c3 0 6-1 9-1 3 0 5 1 8 1l0-4c0-5 2-9 6-12z m0 45c-14 0-25 11-25 25l0 7c11-3 29-6 49-7l0 0c0-14-11-25-24-25z m-32-72c-5 0-8-3-8-7l0-40c0-5 3-8 8-8 4 0 7 3 7 8l0 40c0 4-3 7-7 7z m471 388c-1 2-3 4-6 5l-64 8c-4 0-7-2-8-7-1-4 2-7 6-8l37-5-470-192c-4-2-6-6-4-10 1-3 4-5 7-5 1 0 2 0 3 1l469 192-22-28c-3-4-2-8 1-11 2-1 3-1 5-1 2 0 4 1 6 3l39 50c2 3 2 5 1 8z"/>
<glyph glyph-name="cash-point" unicode="&#71;" d="M256 231c-27 0-50-22-50-49 0-28 23-50 50-50 27 0 50 22 50 50 0 27-23 49-50 49z m-8-81c-12 3-21 12-24 23l24 0z m0 40l-24 0c3 11 12 21 24 24z m16-40l0 23 24 0c-3-11-12-20-24-23z m0 40l0 24c12-3 21-13 24-24z m-25-124l17 0 0-16-17 0z m233 16c-8 15-24 25-43 25-5 0-11-1-16-3l0 61c1 0 2 0 4 0 16 0 29 13 29 30 0 10-6 19-14 25l-57 34c25 28 38 64 38 101 0 87-70 157-157 157-87 0-157-70-157-157 0-37 13-73 38-101l-57-34c-8-6-14-15-14-25 0-17 13-30 29-30 2 0 3 0 4 0l0-61c-5 2-11 3-16 3-19 0-35-10-43-25-22 0-40-19-40-41 0-22 19-41 41-41l430 0c22 0 41 19 41 41 0 22-18 41-40 41z m-356 273c0 78 63 140 140 140 77 0 140-62 140-140 0-34-12-67-35-93l-15 9c4 4 8 9 12 13l-14 10c-4-5-8-10-12-14l-41 24c9 6 15 16 15 26 0 19-17 33-36 33l-28 0c-10 0-19 8-19 17 0 9 9 16 19 16l28 0c10 0 19-7 19-16l17 0c0 18-17 33-36 33l-6 0 0 16-16 0 0-16-6 0c-19 0-36-15-36-33 0-18 17-33 36-33l28 0c10 0 19-8 19-17 0-9-9-16-19-16l-28 0c-10 0-19 7-19 16l-17 0c0-10 6-20 15-26l-41-24c-20 20-31 47-31 75 0 59 48 107 107 107 59 0 107-48 107-107 0-18-4-34-12-50l14-8c10 18 15 38 15 58 0 68-56 124-124 124-68 0-124-56-124-124 0-31 12-61 34-84l-15-9c-23 26-35 59-35 93z m-21-173c-7 0-12 5-12 13 0 4 2 8 6 11l141 84c16 10 36 10 52 0l141-84c4-3 6-7 6-11 0-8-5-13-12-13-7 0-13 1-18 5l-123 72c-6 3-13 5-20 5-7 0-14-2-20-5l-123-72c-5-4-11-5-18-5z m29-165l-83 0c-13 0-24 11-24 24 0 11 7 20 17 24-1-3-1-5-1-7 0-7 1-14 4-20l15 7c-2 4-2 8-2 13 0 18 14 33 33 33 18 0 33-15 33-33 0-5-1-9-3-13l15-7c3 6 4 13 4 20 0 2 0 4 0 7 9-4 17-13 17-24 0-13-11-24-25-24z m165 0l-66 0 0 82 66 0z m66 0l-49 0 0 99-100 0 0-99-49 0c5 6 8 15 8 24 0 22-17 41-39 41-3 5-6 9-10 13l0 74c2 1 4 2 6 3l123 73c7 4 15 4 22 0l123-73c2-1 4-2 6-3l0-74c-4-4-7-8-10-13-22 0-39-19-39-41 0-9 3-18 8-24z m116 0l-83 0c-14 0-25 11-25 24 0 11 8 20 17 24 0-3 0-5 0-7 0-7 1-14 4-20l15 7c-2 4-3 8-3 13 0 18 15 33 33 33 19 0 33-15 33-33 0-5 0-9-2-13l15-7c3 6 4 13 4 20 0 2 0 4-1 7 10-4 17-13 17-24 0-13-11-24-24-24z"/>
<glyph glyph-name="chart" unicode="&#72;" d="M510 259c-2 6-62 129-254 129-192 0-252-123-254-129l-2-3 2-3c2-6 62-129 254-129 192 0 252 123 254 129l2 3z m-492-3c5 9 20 32 49 56 24 19 61 40 113 52-34-24-56-64-56-108 0-44 22-84 56-108-108 24-152 92-162 108z m123 0c0 64 51 115 115 115 64 0 115-51 115-115 0-64-51-115-115-115-64 0-115 51-115 115z m304-56c-24-19-61-40-113-52 34 24 56 64 56 108 0 44-22 84-56 108 108-24 152-92 162-108-5-9-20-32-49-56z m-177 122l-4 0 0 33-16 0 0-33-4 0c-21 0-37-17-37-37 0-21 16-37 37-37l24 0c12 0 21-9 21-21 0-11-9-20-21-20l-24 0c-12 0-21 9-21 20l0 4-16 0 0-4c0-20 16-37 37-37l4 0 0-33 16 0 0 33 4 0c21 0 37 17 37 37 0 21-16 37-37 37l-24 0c-12 0-21 9-21 21 0 11 9 20 21 20l24 0c12 0 21-9 21-20l0-4 16 0 0 4c0 20-16 37-37 37z m-226 189l16 0 0-25-16 0z m-21-9l18-17-12-12-17 18z m-20-32l25 0 0-16-25 0z m20-49l-11 12 17 17 12-12z m21 16l16 0 0-25-16 0z m32 13l17-17-12-12-17 17z m1 20l25 0 0-16-25 0z m4 32l12-11-17-18-12 12z m202-402l16 0 0-25-16 0z m-15-38l-18 17 12 12 17-18z m-26-4l24 0 0-16-24 0z m20-48l-12 11 18 18 11-12z m21 16l16 0 0-25-16 0z m37-16l-17 17 11 12 18-18z m-4 48l24 0 0-16-24 0z m4 33l12-12-18-17-11 12z m119 42l17 0 0-17-17 0z m0-33l17 0 0-17-17 0z m17 16l16 0 0-16-16 0z m-33 0l16 0 0-16-16 0z m-173 346l16 0 0-17-16 0z m0-33l16 0 0-17-16 0z m16 16l17 0 0-16-17 0z m-33 0l17 0 0-16-17 0z m181 66l17 0 0-16-17 0z m0-33l17 0 0-16-17 0z m17 17l16 0 0-17-16 0z m-33 0l16 0 0-17-16 0z m-313-362l17 0 0-17-17 0z m0-33l17 0 0-17-17 0z m17 16l16 0 0-16-16 0z m-33 0l16 0 0-16-16 0z m271 140c0-15-4-29-11-42l14-8c9 15 14 32 14 50 0 30-13 57-36 76l-11-13c19-15 30-38 30-63z m-30-63l11-13c5 4 9 8 13 13l-13 11c-3-4-7-8-11-11z m-134 63c0 15 4 29 11 42l-14 8c-9-15-14-32-14-50 0-30 13-57 36-76l11 13c-19 15-30 38-30 63z m6 63l13-11c3 4 7 8 11 11l-11 13c-5-4-9-8-13-13z"/>
<glyph glyph-name="chat" unicode="&#73;" d="M187 207l-8 21c-3 6-12 6-14 0l-9-21c-2-5 2-11 7-11l18 0c5 0 8 6 6 11z m43-40l-40 97c-3 7-10 12-18 12-8 0-15-5-18-12l-40-97c-4-10 0-21 10-25 10-4 22 0 26 10l8 20 28 0 8-20c2-5 7-9 12-11 6-2 13-1 18 3 7 6 9 15 6 23z m-14-9c-1-4-7-4-8 0l-11 25c-1 3-3 4-6 4l-38 0c-3 0-6-1-7-4l-10-25c-1-2-4-3-6-2-2 1-3 3-2 6l40 96c1 3 6 3 8 0l40-96c1-2 1-3 0-4z m234 89c39 28 62 71 62 117 0 36-14 70-39 97-3 3-8 3-11 1-3-3-3-8 0-11 22-24 35-55 35-87 0-43-23-83-61-108-3-2-4-6-3-9l24-55-76 41c-1 0-3 1-4 0-8-1-17-2-25-2-80 0-145 60-145 133 0 73 65 133 145 133 30 0 59-8 84-24 3-3 8-2 10 2 2 3 1 8-2 10-27 18-59 27-92 27-88 0-160-66-160-148 0-4 1-8 1-12l-153 0c-22 0-40-18-40-40l0-200c0-22 18-40 40-40l47 0-7-64c0-3 1-6 4-7 3-2 6-1 8 1l87 70 117 0c22 0 40 18 40 40l0 105c5 0 11-1 16-1 8 0 16 1 24 2l93-49c3-1 6-1 9 2 2 2 3 5 1 8z m-129-135c0-14-11-25-25-25l-119 0c-2 0-4 0-5-2l-75-60 6 54c1 4-3 8-7 8l-56 0c-14 0-25 11-25 25l0 200c0 14 11 25 25 25l155 0c12-59 62-106 126-118z m93 218c0 0 0 0 0 0l-8 8c4 9 6 20 6 30 0 18-6 36-16 49-11 15-27 23-44 23-17 0-32-8-44-23-10-13-15-31-15-49 0-18 5-35 15-49 12-14 27-22 44-22 11 0 21 3 30 9l4-4c8-7 21-7 28 0 8 8 8 20 0 28z m-11-17c-1-2-4-2-6 0l-9 9c-2 2-7 3-10 0-8-7-16-10-26-10-12 0-23 6-32 17-8 10-12 24-12 39 0 15 4 29 12 40 9 11 20 17 32 17 12 0 24-6 32-17 8-11 13-25 13-40 0-10-2-20-6-29-2-3-1-6 1-8l11-12c2-1 2-4 0-6z m-51 103c-19 0-35-22-35-48 0-26 16-47 35-47 7 0 13 2 19 7 3 2 3 8 0 11l-6 6c-2 2-2 5 0 6 2 2 5 2 6 0 2-2 4-3 7-4 3 0 7 2 8 6 1 5 2 10 2 15 0 26-16 48-36 48z m21-49c-7 2-14 0-19-5-7-7-7-19-1-26 0 0 0 0-1 0-11 0-20 15-20 32 0 18 9 33 20 33 11 0 21-15 21-33 0 0 0 0 0-1z"/>
<glyph glyph-name="chat-1" unicode="&#74;" d="M502 512l-282 0c-6 0-10-4-10-10l0-155c-33-17-55-51-55-90 0-1 0-2 0-3l-145 0c-6 0-10-4-10-10l0-195c0-5 4-10 10-10l108 0 25-35c2-2 5-4 8-4 3 0 6 2 8 4l26 35 107 0c6 0 10 5 10 10l0 116c34 17 57 52 57 92 0 0 0 1 0 1 0 0 1 0 2 0 3 0 6 1 8 4l25 35 108 0c6 0 10 5 10 10l0 195c0 6-4 10-10 10z m-220-453l-102 0c-4 0-7-1-9-4l-20-28-20 28c-2 3-5 4-8 4l-103 0 0 175 137 0c0 0 0 0 0 0 0-1 1-3 1-4 0 0 0 0 0-1 1-1 1-2 1-3 0 0 0-1 0-1 1-1 1-2 2-3 0-1 0-1 0-1 0-1 1-2 1-3 0 0 0-1 0-1 1-1 1-2 2-3 0 0 0-1 0-1 5-10 11-19 19-27l-128 0c-6 0-10-5-10-10 0-6 4-10 10-10l155 0c11-6 24-10 38-11 0 0 0 0 0 0 1 0 2 0 4 0 0 0 0 0 0 0 2 0 3 0 5 0 1 0 2 0 3 0 0 0 0 0 1 0 0 0 1 0 1 0 1 0 1 0 2 0 0 0 1 0 1 0 1 0 1 0 2 0 0 0 0 0 1 0 1 0 2 0 4 1 0 0 0 0 0 0 1 0 2 0 2 0 1 0 1 0 1 0 2 1 5 1 7 2z m-41 207l-7 0 33 32 0-42c0-6 4-10 10-10l3 0-29-30 0 40c0 5-5 10-10 10z m20-91c0 0 0 0 0 0-1 0-2 0-3 0 0 0 0 0 0 1 0 0 0 1 0 2-1 0-1 1-1 2 0 0-1 1-1 1 0 1-1 1-1 2-1 0-1 1-2 1 0 0-1 1-1 1-1 0-2 0-2 1-1 0-1 0-2 0l63 62c3 3 4 8 3 11-2 4-6 7-10 7l-17 0 0 55c0 4-3 8-6 9-4 2-8 1-11-2l-68-65c-3-3-4-7-2-11 1-4 5-6 9-6l22 0 0-54c0-4 2-8 6-9 1-1 2-1 3-1 0 0 0 0-1-1 0 0 0-1 0-1-1-1-1-2-1-2 0-1 0-1 0-1 0 0 0 0 0 0-18 4-34 14-45 28 0 0 0 0 0 0-1 1-2 2-3 3 0 0 0 0 0 0 0 1-1 2-2 3 0 0 0 0 0 1-1 1-1 2-2 3 0 1-1 1-1 2-1 1-1 1-1 1 0 1-1 2-1 3 0 0-1 0-1 1 0 1-1 2-1 2 0 1 0 1 0 1-1 1-1 2-1 3 0 0-1 1-1 1 0 1 0 2-1 3 0 0 0 0 0 1 0 1 0 2-1 2 0 1 0 1 0 2 0 1 0 1-1 2 0 1 0 1 0 2 0 0 0 1 0 2 0 1-1 1-1 2 0 4 0 8 0 12 0 45 36 82 82 82 1 0 2-1 3-1 1 0 1 0 1 0 1 0 3 0 4 0 0 0 0 0 0 0 1 0 2 0 4 0 0 0 0 0 0-1 2 0 3 0 4 0 0 0 0 0 0 0 1 0 3-1 4-1 0 0 0 0 0 0 35-9 62-41 62-79 0-44-35-80-78-82z m231 142l-103 0c-3 0-6-1-8-4l-20-28-15 20c-13 25-36 43-63 50-1 0-1 0-2 0 0 1-1 1-1 1-1 0-1 0-2 0 0 0-1 0-1 0-1 1-2 1-3 1 0 0 0 0-1 0-1 0-1 0-2 1 0 0-1 0-1 0-1 0-2 0-3 0 0 0 0 0 0 0-1 0-2 0-3 0 0 0-1 0-1 0-1 0-2 0-2 0-1 0-1 0-1 0-1 1-2 1-3 1-1 0-3 0-4-1 0 0 0 0-1 0 0 0-1 0-2 0 0 0 0 0-1 0 0 0-1 0-1 0-2 0-3 0-4 0 0 0 0 0 0 0-1 0-2 0-3-1 0 0 0 0 0 0-4 0-8-1-11-2l0 137 262 0z m-428-188c0 1 0 1 0 2 0 0-1 1-1 1 0 1-1 2-1 2-3 2-6 3-9 3-1 0-2-1-2-1-1 0-1 0-2-1 0 0-1-1-1-1-1 0-1-1-2-2 0 0 0-1-1-1 0-1 0-1 0-2 0-1 0-1 0-2 0-1 0-1 0-2 0-1 0-1 0-2 1-1 1-1 1-2 1 0 1-1 2-1 1-2 4-3 7-3 2 0 5 1 7 3 0 0 1 1 1 1 0 1 1 1 1 2 0 1 0 1 0 2 1 1 1 1 1 2 0 1 0 1-1 2z m184 8l-157 0c-5 0-10-5-10-10 0-6 5-10 10-10l157 0c5 0 10 4 10 10 0 5-5 10-10 10z m219 299c0 0 0 1 0 2-1 0-1 1-1 1-1 1-1 1-2 2 0 0-1 1-1 1-1 0-1 1-2 1 0 0-1 0-2 1-1 0-2 0-4 0 0-1-1-1-1-1-1 0-2-1-2-1-1 0-1-1-2-1 0-1-1-1-1-2 0 0-1-1-1-1 0-1 0-2 0-2-1-1-1-2-1-2 0-1 0-2 1-2 0-1 0-2 0-2 0-1 1-1 1-2 0 0 1-1 1-1 1-1 1-1 2-2 0 0 1 0 2-1 0 0 1 0 1 0 1 0 2 0 2 0 1 0 2 0 2 0 1 0 2 0 2 0 1 1 1 1 2 1 0 1 1 1 1 2 1 0 1 1 2 1 0 1 0 1 1 2 0 0 0 1 0 2 0 0 0 1 0 2 0 0 0 1 0 2z m-46 8l-157 0c-5 0-10-5-10-10 0-6 5-10 10-10l157 0c5 0 10 4 10 10 0 5-5 10-10 10z m-147-57c0 0 0 1-1 2 0 0 0 1 0 1-1 1-1 1-2 2 0 0-1 1-1 1-1 1-1 1-2 1-1 0-1 1-2 1-1 0-2 0-4 0 0 0-1-1-2-1 0 0-1 0-1-1-1 0-1-1-2-1 0-1-1-1-1-2 0 0-1-1-1-1 0-1 0-2-1-2 0-1 0-1 0-2 0-1 0-1 0-2 1-1 1-1 1-2 0-1 1-1 1-2 0 0 1-1 1-1 1-1 1-1 2-1 0-1 1-1 1-1 1-1 2-1 2-1 1 0 2 0 2 0 1 0 2 0 2 0 1 0 1 0 2 1 1 0 1 0 2 1 0 0 1 0 1 1 1 0 1 1 2 1 0 1 0 1 0 2 1 1 1 1 1 2 0 1 0 1 0 2 0 1 0 1 0 2z m183 8l-156 0c-6 0-10-5-10-10 0-6 4-10 10-10l156 0c6 0 10 4 10 10 0 5-4 10-10 10z"/>
<glyph glyph-name="clipboard" unicode="&#75;" d="M423 463l-59 0 0 10c0 5-5 9-10 9l-53 0c-8 18-26 30-45 30-20 0-38-12-46-30l-53 0c-5 0-10-4-10-9l0-10-58 0c-6 0-10-5-10-10l0-443c0-6 4-10 10-10l334 0c6 0 10 4 10 10l0 443c0 5-4 10-10 10z m-206 0c5 0 9 3 10 7 3 13 15 22 29 22 13 0 25-9 28-22 1-4 5-7 10-7l50 0 0-40-177 0 0 40z m-80-384l59 0c6 0 10 4 10 10 0 5-4 9-10 9l-59 0 0 345 10 0 0-29c0-6 5-10 10-10l197 0c5 0 10 4 10 10l0 29 10 0 0-384-237 0z m277-59l-316 0 0 423 20 0 0-394c0-5 4-10 10-10l256 0c5 0 9 5 9 10l0 394 21 0z m-178 71c0 0-1 1-1 1 0 1 0 2-1 2 0 1-1 1-1 2-1 0-1 0-2 1 0 0-1 0-1 1-1 0-1 0-2 0-3 1-7 0-9-2 0-1-1-1-1-2-1 0-1-1-1-2 0 0-1-1-1-1 0-1 0-2 0-2 0-1 0-2 0-2 0-1 1-2 1-2 0-1 0-1 1-2 0 0 1-1 1-1 2-2 4-3 7-3 1 0 1 0 2 0 1 0 1 0 2 1 0 0 1 0 1 0 1 1 1 1 2 2 0 0 1 1 1 1 1 1 1 1 1 2 0 0 1 1 1 2 0 0 0 1 0 2 0 0 0 1 0 2z m103 195l-28 28c-2 2-4 3-7 3-2 0-5-1-7-3l-48-49-35 35c-4 4-10 4-14 0l-28-28c-2-2-3-4-3-7 0-3 1-5 3-7l70-70c1-1 4-2 7-2 2 0 5 1 7 2l83 84c4 4 4 10 0 14z m-90-77l-56 56 14 14 35-35c3-4 10-4 14 0l48 49 14-14z"/>
<glyph glyph-name="cloud" unicode="&#76;" d="M512 371c0 78-63 141-141 141-50 0-95-27-120-67l0 0-228-228 12-12 199 200c-2-11-4-22-4-34 0-36 13-69 36-94l-234-233 12-12 233 234c25-23 58-36 94-36 12 0 23 2 34 4l-202-201 12-12 231 231c40 25 66 69 66 119z m-141-125c-69 0-125 56-125 125 0 69 56 124 125 124 69 0 124-55 124-124 0-69-55-125-124-125z m17 216l-9 0 0 17-16 0 0-17-9 0c-27 0-49-22-49-50 0-27 22-49 49-49l34 0c18 0 33-15 33-34 0-18-15-33-33-33l-34 0c-18 0-33 15-33 33l0 9-16 0 0-9c0-27 22-49 49-49l9 0 0-17 16 0 0 17 9 0c27 0 49 22 49 49 0 28-22 50-49 50l-34 0c-18 0-33 15-33 33 0 19 15 34 33 34l34 0c18 0 33-15 33-34l0-8 16 0 0 8c0 28-22 50-49 50z m-376-256l11-12-11-11-12 11z m182-206l-11 12 10 10 12-11z m-174 8l-12 12 12 12 12-11z m145 78l125 125 12-12-125-125z m-12-36l-12 12 12 11 11-11z m-67 141l-11 12 12 12 11-12z m113 136l12-12-102-101-11 12z m-88-161l-60-60-12 11 61 61z m-83-83l-11 12 11 11 12-11z m467 122l17 0 0-17-17 0z m-33 0l17 0 0-17-17 0z m17 17l16 0 0-17-16 0z m0-34l16 0 0-16-16 0z m-67-83l17 0 0-16-17 0z m-33 0l17 0 0-16-17 0z m17 17l16 0 0-17-16 0z m0-33l16 0 0-17-16 0z m-199 390l16 0 0-17-16 0z m-33 0l16 0 0-17-16 0z m16 16l17 0 0-16-17 0z m0-33l17 0 0-16-17 0z m-108-33l17 0 0-17-17 0z m-33 0l17 0 0-17-17 0z m17 17l16 0 0-17-16 0z m0-34l16 0 0-16-16 0z"/>
<glyph glyph-name="cloud-computing" unicode="&#77;" d="M400 234c-12 0-24-2-36-6 2 10 4 21 4 31 0 70-58 128-128 128-68 0-124-54-128-121-63-8-112-62-112-127 0-71 57-128 128-128l40 0c4 0 7 3 7 8 0 4-3 7-7 7l-40 0c-62 0-113 51-113 113 0 59 46 108 105 112 4 0 7 4 7 8l0 0c0 62 51 113 113 113 62 0 113-51 113-113 0-14-3-28-8-41-3-7 4-13 10-10 14 8 30 11 45 11 54 0 97-43 97-96 0-54-43-97-97-97l-194 0c-5 0-8-3-8-7 0-5 3-8 8-8l194 0c62 0 112 50 112 112 0 61-50 111-112 111z m-115-85c12 9 19 23 19 38 0 26-22 47-48 47-26 0-48-21-48-47 0-15 7-29 19-38l-18-73c-2-4 2-9 7-9l80 0c5 0 9 5 7 9z m-59-67l17 69c0 3-1 6-4 8-10 6-16 16-16 28 0 18 15 32 33 32 18 0 33-14 33-32 0-12-6-22-16-28-3-2-4-5-4-8l17-69z m237 333c-24 42-65 73-111 86-4 1-8-2-10-6-1-4 2-8 6-9 43-11 80-40 102-78 3-4 8-5 11-3 3 2 4 7 2 10z m-41-24c-18 31-48 54-83 63-4 1-8-1-9-5-1-4 1-8 5-9 31-8 58-29 74-57 2-3 7-4 11-2 3 2 4 7 2 10z m-42-24c-12 20-31 35-53 41-4 1-8-2-9-6-1-4 1-8 5-9 18-5 34-17 44-34 2-3 7-4 11-2 3 2 4 7 2 10z"/>
<glyph glyph-name="cloud-computing-1" unicode="&#78;" d="M400 360c-12 0-24-2-36-6 2 10 4 20 4 30 0 71-58 128-128 128-68 0-124-54-128-121-63-8-112-62-112-127 0-70 57-128 128-128l48 0 0-25-32 0c-7 0-10-9-5-13l112-96c3-3 7-3 10 0l112 96c5 4 2 13-5 13l-32 0 0 25 64 0c62 0 112 50 112 112 0 62-50 112-112 112z m0-209l-64 0 0 65c0 4-4 7-8 7l-16 0c-4 0-8-3-8-7 0-4 4-8 8-8l9 0 0-104c0-4 3-8 7-8l20 0-92-79-92 79 20 0c4 0 7 4 7 8l0 104 86 0c4 0 8 4 8 8 0 4-4 7-8 7l-93 0c-4 0-8-3-8-7l0-65-48 0c-62 0-113 51-113 113 0 59 46 109 105 112 4 1 7 4 7 8l0 0c0 62 51 113 113 113 62 0 113-51 113-113 0-14-3-28-8-41-3-6 4-13 10-9 14 7 30 11 45 11 54 0 97-44 97-97 0-53-43-97-97-97z m-72 104l-144 0c-4 0-8-3-8-7 0-4 4-8 8-8l144 0c4 0 8 4 8 8 0 4-4 7-8 7z m0 25l-144 0c-4 0-8-4-8-8 0-4 4-7 8-7l144 0c4 0 8 3 8 7 0 4-4 8-8 8z m0 24l-144 0c-4 0-8-4-8-8 0-4 4-7 8-7l144 0c4 0 8 3 8 7 0 4-4 8-8 8z"/>
<glyph glyph-name="cloud-computing-2" unicode="&#79;" d="M400 292c-12 0-24-2-36-6 2 9 4 20 4 30 0 71-58 128-128 128-68 0-124-54-128-121-63-8-112-62-112-127 0-71 57-128 128-128l188 0c5 0 8 3 8 8 0 4-3 7-8 7l-188 0c-62 0-113 51-113 113 0 59 46 108 105 112 4 1 7 4 7 8l0 0c0 62 51 113 113 113 62 0 113-51 113-113 0-14-3-28-8-41-3-6 4-13 10-9 14 7 30 11 45 11 54 0 97-44 97-97 0-53-43-97-97-97l-48 0c-4 0-7-3-7-7 0-5 3-8 7-8l48 0c62 0 112 50 112 112 0 61-50 112-112 112z m-248-57c-22 0-40-17-40-39 0-22 18-40 40-40 22 0 39 18 39 40 0 22-17 39-39 39z m0-64c-14 0-25 11-25 25 0 13 11 24 25 24 13 0 24-11 24-24 0-14-11-25-24-25z m97 48l-23 5c0 2-1 3-2 5l13 19c2 3 2 7-1 10l-22 23c-3 2-7 2-10 0l-19-13c-2 1-4 2-5 2l-5 24c-1 3-4 6-7 6l-32 0c-4 0-7-3-8-6l-4-24c-2 0-3-1-5-2l-20 13c-3 2-7 2-9 0l-23-23c-2-3-3-7-1-10l13-19c0-2-1-3-2-5l-23-5c-3 0-6-4-6-7l0-32c0-4 3-7 6-8l23-4c1-2 2-3 2-5l-13-20c-2-3-1-7 1-9l23-23c2-2 6-3 9-1l20 13c1 0 3-1 5-2l4-23c1-3 4-6 8-6l32 0c3 0 6 3 7 6l5 23c1 1 3 2 5 2l19-13c3-2 7-1 10 1l22 23c3 2 3 6 1 9l-13 20c1 2 2 3 2 5l23 4c4 1 7 4 7 8l0 32c0 3-3 7-7 7z m-9-33l-21-4c-2-1-5-3-5-5-2-4-3-8-5-11-1-3-1-5 0-8l12-18-13-14-19 12c-2 2-5 2-7 1-4-2-7-4-11-5-3-1-5-3-5-6l-4-21-20 0-4 21c-1 3-3 5-5 6-4 1-8 3-11 5-3 1-6 1-8-1l-18-12-14 14 12 18c2 3 2 5 1 8-2 3-4 7-5 11-1 2-3 4-6 5l-21 4 0 20 21 4c3 1 5 3 6 5 1 4 3 7 5 11 1 2 1 5-1 8l-12 18 14 14 18-12c2-2 5-2 8-1 3 2 7 3 11 5 2 0 4 3 5 5l4 22 20 0 4-22c0-2 2-5 5-5 4-2 7-3 11-5 2-1 5-1 7 1l19 12 13-14-12-18c-1-3-1-6 0-8 2-4 3-7 5-11 0-2 3-4 5-5l21-4z m208 19c-1 15-29 22-56 22-27 0-54-7-55-22 0-1 0-1 0-1l0-33-33 0c-4 0-7-3-7-7 0-4 3-8 7-8l33 0 0-16c0-16 28-24 55-24 28 0 56 8 56 24l0 64c0 0 0 0 0 1z m-56 7c24 0 37-5 40-8-3-3-16-9-40-9-23 0-37 6-40 9 3 3 17 8 40 8z m41-72c-2-3-16-9-41-9-24 0-38 6-40 9l0 15c10-5 25-7 40-7 15 0 30 2 41 7z m0 32c-2-2-16-9-41-9-24 0-38 7-40 9l0 15c10-5 25-7 40-7 15 0 30 2 41 7z m-153-1l-8 0c-4 0-7-3-7-7 0-4 3-8 7-8l8 0c4 0 8 4 8 8 0 4-4 7-8 7z m32 210c-1 16-29 23-56 23-27 0-55-7-56-23 0 0 0 0 0-1l0-64c0-15 23-22 48-23l0-25c0-4 4-7 8-7 4 0 8 3 8 7l0 25c25 1 48 8 48 23l0 64c0 1 0 1 0 1z m-56 8c23 0 37-6 40-9-3-3-17-8-40-8-23 0-37 5-40 8 3 3 17 9 40 9z m41-72c-2-3-16-9-41-9-25 0-39 6-41 9l0 14c11-4 26-6 41-6 15 0 30 2 41 6z m0 32c-2-3-16-9-41-9-25 0-39 6-41 9l0 14c11-4 26-6 41-6 15 0 30 2 41 6z m-41-98c-4 0-8-3-8-7l0-8c0-4 4-8 8-8 4 0 8 4 8 8l0 8c0 4-4 7-8 7z"/>
<glyph glyph-name="cloud-computing-3" unicode="&#80;" d="M400 324c-12 0-24-2-36-6 2 10 4 20 4 30 0 71-58 128-128 128-68 0-124-54-128-121-63-8-112-62-112-127 0-71 57-128 128-128l55 0c3-5 7-10 10-15 16-22 37-39 60-48 2-1 4-1 6 0 32 13 54 37 70 63 1 0 1 0 1 0l70 0c62 0 112 50 112 112 0 62-50 112-112 112z m0-209l-63 0c11 21 17 44 22 63 1 5-2 9-6 9-4 1-8-1-9-5-10-46-34-106-88-130-37 16-64 51-81 104-11 33-14 64-15 83 11-6 27-11 48-11 23 0 40 9 48 15 8-6 25-15 48-15 21 0 37 5 48 11 0-8-1-16-2-26-1-4 2-8 6-9 4 0 8 3 9 7 2 18 3 34 3 41 0 6-8 10-13 6 0 0-17-15-51-15-26 0-42 14-43 15-3 2-7 2-10 0-1-1-17-15-43-15-34 0-51 15-51 15-5 4-13 0-13-6 0-13 2-56 16-101 5-13 9-25 15-36l-47 0c-62 0-113 51-113 113 0 59 46 109 105 112 4 1 7 4 7 8l0 0c0 62 51 113 113 113 62 0 113-51 113-113 0-14-3-28-8-41-3-6 4-13 10-9 14 7 30 11 45 11 54 0 97-44 97-97 0-53-43-97-97-97z m-128 104l-32 0c-4 0-8-3-8-7l0-72c0-4 4-8 8-8l32 0c4 0 8 4 8 8l0 72c0 4-4 7-8 7z m-7-72l-18 0 0 57 18 0z m-9-24c-13 0-24-10-24-23 0-13 11-24 24-24 13 0 24 11 24 24 0 13-11 23-24 23z m0-32c-5 0-9 4-9 9 0 4 4 8 9 8 5 0 9-4 9-8 0-5-4-9-9-9z"/>
<glyph glyph-name="cloud-computing-4" unicode="&#81;" d="M364 424c-9 0-18-2-26-6 1 5 2 10 2 14 0 44-36 80-80 80-43 0-78-34-80-77-7 3-16 5-24 5-40 0-72-32-72-72 0-39 32-71 72-71l56 0 0-9-24 0c-3 0-6-2-7-5-1-3 0-7 2-9l22-19-57 0c-4 0-8-3-8-7l0-48c0-2 1-4 2-5l78-78 0-109c0-6 6-9 10-8l48 16c3 1 6 4 6 8l0 93 78 78c1 1 2 3 2 5l0 48c0 4-4 7-8 7l-57 0 22 19c5 5 2 14-5 14l-24 0 0 9 72 0c35 0 64 28 64 63 0 35-29 64-64 64z m-95-395l-34-11 0 30 9 0c4 0 7 3 7 8 0 4-3 7-7 7l-9 0 0 17 9 0c4 0 7 4 7 8 0 4-3 7-7 7l-9 0 0 17 34 0z m80 211l0-33-33 0c-4 0-7-3-7-7 0-4 3-8 7-8l22 0-65-65-42 0-65 65 115 0c4 0 8 4 8 8 0 4-4 7-8 7l-126 0 0 33 65 0c0 0 1 1 1 1l26-23c3-2 7-2 10 0l25 22z m15 72l-72 0 0 64c0 4-4 8-8 8-4 0-7-4-7-8l0-96c0-4 3-7 7-7l12 0-44-39-44 39 12 0c4 0 7 3 7 7l0 96c0 4-3 8-7 8-4 0-8-4-8-8l0-64-56 0c-31 0-57 25-57 56 0 31 26 57 57 57 10 0 20-3 29-8 5-3 12 1 11 7 0 3-1 6-1 8 0 36 29 65 65 65 36 0 65-29 65-65 0-10-3-19-7-28-2-4-1-8 3-10 3-2 7-2 9 1 9 9 21 14 34 14 27 0 49-22 49-49 0-27-22-48-49-48z"/>
<glyph glyph-name="cloud-computing-5" unicode="&#82;" d="M128 103l-96 0c-5 0-8-3-8-7l0-64c0-5 3-8 8-8l96 0c4 0 7 3 7 8l0 64c0 4-3 7-7 7z m-8-64l-81 0 0 49 81 0z m-32 88l-16 0c-5 0-8-3-8-7 0-4 3-8 8-8l16 0c4 0 7 4 7 8 0 4-3 7-7 7z m32 0l-8 0c-4 0-8-3-8-7 0-4 4-8 8-8l8 0c4 0 7 4 7 8 0 4-3 7-7 7z m-72 0l-8 0c-5 0-8-3-8-7 0-4 3-8 8-8l8 0c4 0 7 4 7 8 0 4-3 7-7 7z m448 24l-56 0 0 81c0 4-4 7-8 7l-145 0c-3 12-12 21-23 24l0 34 45 0c5 0 8 3 8 7 0 4-3 8-8 8l-157 0c-31 0-57 25-57 56 0 31 26 57 57 57 10 0 20-3 29-8 5-3 12 1 11 7 0 3-1 6-1 8 0 36 29 65 65 65 36 0 65-29 65-65 0-10-3-19-7-28-2-4-1-8 3-10 3-2 7-2 9 1 9 9 21 14 34 14 27 0 49-22 49-49 0-27-22-48-49-48l-15 0c-4 0-8-4-8-8 0-4 4-7 8-7l15 0c35 0 64 28 64 63 0 35-29 64-64 64-9 0-18-2-26-6 1 5 2 10 2 14 0 44-36 80-80 80-43 0-78-34-80-77-7 3-16 5-24 5-40 0-72-32-72-72 0-39 32-71 72-71l96 0 0-34c-11-3-20-12-23-24l-145 0c-4 0-8-3-8-7l0-81-56 0c-9 0-16-7-16-15l0-120c0-9 7-16 16-16l128 0c8 0 15 7 15 16l0 120c0 8-7 15-15 15l-57 0 0 73 138 0c3-11 12-20 23-23l0-50-56 0c-9 0-16-7-16-15l0-120c0-9 7-16 16-16l128 0c9 0 16 7 16 16l0 120c0 8-7 15-16 15l-56 0 0 50c11 3 20 12 23 23l138 0 0-73-57 0c-8 0-15-7-15-15l0-120c0-9 7-16 15-16l128 0c9 0 16 7 16 16l0 120c0 8-7 15-16 15z m-352-15c0 0 0 0 0 0l0-120c0-1 0-1 0-1l-128 0c-1 0-1 0-1 1l0 120c0 0 0 0 1 0z m176 0c0 0 1 0 1 0l0-120c0-1-1-1-1-1l-128 0c0 0-1 0-1 1l0 120c0 0 1 0 1 0z m-64 79c-9 0-17 8-17 17 0 9 8 16 17 16 9 0 17-7 17-16 0-9-8-17-17-17z m241-199c0-1 0-1-1-1l-128 0c0 0 0 0 0 1l0 120c0 0 0 0 0 0l128 0c1 0 1 0 1 0z m-17 87l-96 0c-4 0-7-3-7-7l0-64c0-5 3-8 7-8l96 0c5 0 8 3 8 8l0 64c0 4-3 7-8 7z m-7-64l-81 0 0 49 81 0z m-33 88l-16 0c-4 0-7-3-7-7 0-4 3-8 7-8l16 0c5 0 8 4 8 8 0 4-3 7-8 7z m32 0l-8 0c-4 0-7-3-7-7 0-4 3-8 7-8l8 0c5 0 8 4 8 8 0 4-3 7-8 7z m-72 0l-8 0c-4 0-7-3-7-7 0-4 3-8 7-8l8 0c4 0 8 4 8 8 0 4-4 7-8 7z m-96-24l-96 0c-4 0-8-3-8-7l0-64c0-5 4-8 8-8l96 0c4 0 8 3 8 8l0 64c0 4-4 7-8 7z m-7-64l-82 0 0 49 82 0z m-33 88l-16 0c-4 0-8-3-8-7 0-4 4-8 8-8l16 0c4 0 8 4 8 8 0 4-4 7-8 7z m32 0l-8 0c-4 0-7-3-7-7 0-4 3-8 7-8l8 0c4 0 8 4 8 8 0 4-4 7-8 7z m-72 0l-8 0c-4 0-8-3-8-7 0-4 4-8 8-8l8 0c4 0 7 4 7 8 0 4-3 7-7 7z"/>
<glyph glyph-name="cloud-computing-6" unicode="&#83;" d="M488 47c-10 0-19-7-22-16l-186 0 0 266 17 0 0-217c0-4 3-8 7-8l130 0c3-9 12-16 22-16 13 0 24 11 24 24 0 13-11 23-24 23-10 0-19-7-22-16l-122 0 0 210 25 0 0-153c0-4 3-8 7-8l42 0c3-9 12-16 22-16 13 0 24 11 24 24 0 13-11 23-24 23-10 0-19-6-22-16l-34 0 0 146 10 0c35 0 64 28 64 63 0 35-29 64-64 64-9 0-18-2-26-6 1 5 2 10 2 14 0 12-3 24-8 35-2 3-6 5-10 3-4-2-5-6-4-10 5-9 7-18 7-28 0-10-3-19-7-28-2-4-1-8 3-10 3-2 7-2 9 1 9 9 21 14 34 14 27 0 49-22 49-49 0-27-22-48-49-48l-208 0c-31 0-57 25-57 56 0 31 26 57 57 57 10 0 20-3 29-8 5-3 12 1 11 7 0 3-1 6-1 8 0 36 29 65 65 65 12 0 24-4 35-10 3-2 8-1 10 2 2 4 1 8-2 11-13 8-28 12-43 12-43 0-78-34-80-77-7 3-16 5-24 5-40 0-72-32-72-72 0-39 32-71 72-71l6 0 0-114-18 0c-3 10-12 16-22 16-13 0-24-10-24-23 0-13 11-24 24-24 10 0 19 7 22 16l26 0c4 0 7 4 7 8l0 121 25 0 0-178-106 0c-3 10-12 16-22 16-13 0-24-10-24-23 0-13 11-24 24-24 10 0 19 7 22 16l114 0c4 0 7 4 7 8l0 185 17 0c0-1 0-1 0-1l0-240-187 0c-3 9-11 15-21 15-13 0-24-10-24-23 0-13 11-24 24-24 10 0 19 7 22 17l194 0c4 0 7 3 7 8l0 247c0 0 0 0 0 1l18 0 0-273c0-5 3-8 7-8l194 0c3-9 12-16 22-16 13 0 24 11 24 24 0 13-11 23-24 23z m-32 41c5 0 9-4 9-8 0-5-4-9-9-9-4 0-8 4-8 9 0 4 4 8 8 8z m-48 64c5 0 9-4 9-8 0-5-4-9-9-9-4 0-8 4-8 9 0 4 4 8 8 8z m-288 15c-5 0-9 4-9 9 0 5 4 8 9 8 4 0 8-3 8-8 0-5-4-9-8-9z m-48-64c-5 0-9 4-9 9 0 4 4 8 9 8 4 0 8-4 8-8 0-5-4-9-8-9z m-48-64c-5 0-9 4-9 9 0 4 4 8 9 8 4 0 8-4 8-8 0-5-4-9-8-9z m464-24c-4 0-8 4-8 9 0 4 4 8 8 8 5 0 9-4 9-8 0-5-4-9-9-9z m-232 369c-13 0-24-11-24-24 0-13 11-23 24-23 13 0 24 10 24 23 0 13-11 24-24 24z m0-32c-5 0-9 4-9 8 0 5 4 9 9 9 5 0 9-4 9-9 0-4-4-8-9-8z m38 87c-12 6-25 9-38 9-13 0-26-3-38-9-3-1-5-6-3-10 2-3 6-5 10-3 10 4 20 7 31 7 11 0 21-3 31-7 1-1 2-1 3-1 4 0 7 3 8 6 0 4-1 7-4 8z m-14-29c-8 4-16 6-24 6-8 0-16-2-24-6-4-1-5-6-3-10 1-3 6-5 10-3 5 2 11 4 17 4 6 0 12-2 17-4 4-2 9 0 10 3 2 4 1 9-3 10z"/>
<glyph glyph-name="coin" unicode="&#84;" d="M438 87c-11 37-43 65-82 70l-42 7 0 9c28 16 48 43 55 75 20 3 36 20 36 41l0 74c0 82-67 149-149 149-82 0-149-67-149-149l0-74c0-21 16-38 36-41 7-32 27-59 55-75l0-9-42-7c-39-5-71-33-82-70l-27-87 418 0z m-116 186c-27 0-49 22-49 49 0 27 22 50 49 50 27 0 50-23 50-50 0-27-23-49-50-49z m49-7c0 2 1 4 1 7l0 6c5 6 10 14 13 22 2-3 3-8 3-12 0-11-7-20-17-23z m-247 97c0 73 59 132 132 132 73 0 132-59 132-132l0-41c0 36-30 66-66 66l-132 0c-36 0-66-30-66-66z m0-74c0 4 1 9 3 12 3-8 8-16 13-22l0-6c0-3 1-5 1-7-10 3-17 12-17 23z m16 33c0 27 23 50 50 50 27 0 49-23 49-50 0-27-22-49-49-49-27 0-50 22-50 49z m17-57c10-6 21-9 33-9 36 0 66 30 66 66 0 20-9 37-23 50l46 0c-14-13-23-30-23-50 0-36 30-66 66-66 12 0 23 3 33 9-4-51-47-92-99-92-52 0-95 41-99 92z m140-100l0-5c-9-12-25-20-41-20-16 0-32 8-41 20l0 5c13-5 26-8 41-8 15 0 28 3 41 8z m-147-148l7 56-17 2-7-58-64 0 21 65c9 31 36 54 68 59l5 1-7-40 24-8-8-31 60-46z m41 52l9 36-26 8 6 31 21 4 46-122z m34 62c10-4 20-7 31-7 11 0 21 3 31 7l-31-83z m147-56l-17-2 7-56-82 0 22 17-10 13-27-21 46 122 21-4 6-31-26-8 9-36-17-13 10-13 26 20-8 31 24 8-7 40 5-1c32-5 59-28 68-59l21-65-64 0z m-91 140c0 13-11 24-25 24-14 0-25-11-25-24 0-14 11-25 25-25 14 0 25 11 25 25z m-33 0c0 4 3 8 8 8 5 0 8-4 8-8 0-5-3-9-8-9-5 0-8 4-8 9z m70 124l4 0c5 0 8-4 8-9l17 0c0 11-7 20-17 24l0 9-16 0 0-8c-10-2-17-11-17-21 0-11 10-20 21-20l8 0c2 0 4-2 4-4 0-3-2-4-4-4l-4 0c-4 0-8 3-8 8l-17 0c0-11 7-20 17-23l0-10 16 0 0 8c10 2 17 11 17 21 0 11-9 20-21 20l-8 0c-2 0-4 2-4 4 0 3 2 5 4 5z m-120-58l0 8c10 2 17 11 17 21 0 11-10 20-21 20l-8 0c-2 0-4 2-4 4 0 3 2 5 4 5l4 0c4 0 8-4 8-9l17 0c0 11-7 20-17 24l0 9-16 0 0-8c-10-2-17-11-17-21 0-11 9-20 21-20l8 0c2 0 4-2 4-4 0-3-2-4-4-4l-4 0c-5 0-8 3-8 8l-17 0c0-11 7-20 17-23l0-10z"/>
<glyph glyph-name="computer" unicode="&#85;" d="M463 448l-414 0c-5 0-10-4-10-10l0-236c0-6 5-10 10-10l414 0c5 0 10 4 10 10l0 236c0 6-5 10-10 10z m-10-197l-59 0c-6 0-10-4-10-10 0-5 4-10 10-10l59 0 0-19-394 0 0 216 394 0z m49 236l-492 0c-6 0-10-4-10-9l0-316c0-5 4-9 10-9l187 0 0-68-39 0c-6 0-10-5-10-10l0-41c0-5 4-9 10-9l196 0c6 0 10 4 10 9l0 41c0 5-4 10-10 10l-39 0 0 68 187 0c6 0 10 4 10 9l0 316c0 5-4 9-10 9z m-160-422l3 0 0-21-178 0 0 21z m-125 20l0 68 78 0 0-68z m275 87l-472 0 0 296 472 0z m-118 71c0 1 0 1-1 2 0 1 0 1-1 2 0 0 0 1-1 1 0 1-1 1-1 1-1 1-1 1-2 1-1 1-1 1-2 1-1 0-2 0-4 0 0 0-1 0-1-1-1 0-2 0-2-1-1 0-1 0-2-1 0 0-1-1-1-1 0-1-1-1-1-2 0-1 0-1 0-2 0 0-1-1-1-2 0 0 1-1 1-2 0 0 0-1 0-2 0 0 1-1 1-1 0-1 1-1 1-2 1 0 1-1 2-1 0 0 1-1 2-1 0 0 1 0 1 0 1-1 2-1 2-1 1 0 2 0 2 1 1 0 1 0 2 0 1 0 1 1 2 1 0 0 1 1 1 1 1 1 1 1 1 2 1 0 1 1 1 1 1 1 1 2 1 2 0 1 0 2 0 2 0 1 0 2 0 2z m-169 21l-36 53 36 54c3 4 2 11-3 14-4 3-10 1-13-3l-40-59c-2-4-2-8 0-11l40-59c2-3 5-5 8-5 2 0 4 1 5 2 5 3 6 9 3 14z m158 59l-40 59c-3 4-9 6-13 3-5-3-6-10-3-14l36-54-36-53c-3-5-2-11 3-14 1-1 3-2 5-2 3 0 6 2 8 5l40 59c2 3 2 7 0 11z m-84 63c-5 1-11-1-13-6l-39-119c-2-5 1-10 6-12 1 0 2-1 3-1 4 0 8 3 10 7l39 118c2 5-1 11-6 13z"/>
<glyph glyph-name="computer-1" unicode="&#86;" d="M463 448l-414 0c-5 0-10-4-10-10l0-236c0-6 5-10 10-10l414 0c5 0 10 4 10 10l0 236c0 6-5 10-10 10z m-10-197l-59 0c-6 0-10-4-10-10 0-5 4-10 10-10l59 0 0-19-394 0 0 216 394 0z m49 236l-492 0c-6 0-10-4-10-9l0-316c0-5 4-9 10-9l187 0 0-68-39 0c-6 0-10-5-10-10l0-41c0-5 4-9 10-9l196 0c6 0 10 4 10 9l0 41c0 5-4 10-10 10l-39 0 0 68 187 0c6 0 10 4 10 9l0 316c0 5-4 9-10 9z m-157-422l0-21-178 0 0 21z m-128 20l0 68 78 0 0-68z m275 87l-472 0 0 296 472 0z m-118 71c0 1 0 1-1 2 0 1 0 1-1 2 0 0 0 1-1 1 0 1-1 1-1 1-1 1-1 1-2 1-1 1-1 1-2 1-1 0-2 0-4 0 0 0-1 0-1-1-1 0-2 0-2-1-1 0-1 0-2-1 0 0-1-1-1-1 0-1-1-1-1-2 0-1 0-1 0-2 0 0-1-1-1-2 0 0 1-1 1-2 0 0 0-1 0-2 0 0 1-1 1-1 0-1 1-1 1-2 1 0 1-1 2-1 0 0 1-1 2-1 0 0 1 0 1 0 1-1 2-1 2-1 1 0 2 0 2 1 1 0 1 0 2 0 1 0 1 1 2 1 0 0 1 1 1 1 1 1 1 1 1 2 1 0 1 1 1 1 1 1 1 2 1 2 0 1 0 2 0 2 0 1 0 2 0 2z m-197 161l-88 0c-6 0-10-5-10-10 0-6 4-10 10-10l88 0c6 0 10 4 10 10 0 5-4 10-10 10z m245-40l-333 0c-6 0-10-4-10-10 0-5 4-9 10-9l333 0c6 0 10 4 10 9 0 6-4 10-10 10z m0-39l-333 0c-6 0-10-4-10-10 0-5 4-10 10-10l333 0c6 0 10 5 10 10 0 6-4 10-10 10z"/>
<glyph glyph-name="cooperation" unicode="&#87;" d="M502 396l-14 0 0 20c0 12-4 22-11 30 1 2 2 4 2 6l0 50c0 6-5 10-10 10l-133 0c-6 0-10-4-10-10l0-50c0-2 0-3 1-4-5-6-8-14-9-22 0-2 0-4-1-6l-16-24-291 0c-6 0-10-5-10-10l0-206c0-6 4-10 10-10l14 0 0-74c0-12 4-22 11-30-1-2-2-4-2-6l0-50c0-6 5-10 10-10l133 0c6 0 10 4 10 10l0 50c0 2 0 3-1 4 5 6 8 14 9 22 0 2 0 4 1 6l38 58c0 0 0 0 0 0 4 6 5 13 4 20l99 0c-2-13 2-27 11-37 9-11 22-17 36-17 14 0 28 6 37 17 8 10 12 24 10 37l72 0c6 0 10 4 10 10l0 206c0 6-4 10-10 10z m-43 96l0-30-113 0 0 30z m-164-143c0 0 0 0 0 0 0 0 0 1 0 1 0 0 0 0 0 0 0 0 0 0 0 1 0 0 0 0 1 0 0 0 0 0 0 1 0 0 0 0 0 0l18 27 1 2 18 28c4 5 5 10 5 16 1 9 8 17 17 17l87 0c14 0 26-12 26-26l0-141c0 0 0 0 0 0 0-5-4-9-8-9 0 0-1 0-1 0-4 0-8 4-8 8 0 0 0 0 0 0l0 51c0 5-5 10-10 10-6 0-10-5-10-10l0-52c0 0 0 0 0-1l0-26c-1-2-1-3-3-5 0 0 0 0 0 0-2-2-4-2-6-2-4 0-8 3-8 8 0 0 0 0 0 0l0 78c0 5-5 10-10 10-6 0-10-5-10-10l0-78c0 0 0 0 0 0-1-5-5-8-9-8-4 0-8 3-9 7l0 11c0 1 0 1 0 1l0 67c0 5-4 10-10 10-5 0-10-5-10-10l0-68c0 0 0 0 0 0l0-1c0-1 0-3-1-4-1-3-4-4-7-5 0 0 0 0 0 0-5 0-8 4-9 8 0 0 0 0 0 1 0 0 0 0 0 0l0 2c0 0 0 0 0 0l0 92c0 4-3 8-7 10-4 1-9-1-11-5l-8-12c-1 0-1 0-1-1-1-2-3-3-5-4-3-1-5 0-8 1 0 0 0 0 0 1 0 0 0 0 0 0-2 1-3 3-4 5 0 0 0 0 0 0 0 0 0 0 0 0 0 0 0 0 0 1 0 0 0 0 0 0 0 0 0 0 0 0 0 1 0 2 0 3z m-129-329l-113 0 0 30 113 0z m50 140l-37-57c-4-5-5-10-5-16-1-9-8-17-17-17l-87 0c-14 0-26 12-26 26l0 141c0 0 0 0 0 0 0 5 4 9 8 9 0 0 1 0 1 0 0 0 0 0 1 0 0 0 0 0 0 0 2-1 4-2 6-4 0 0 0 0 0 0 0 0 0-1 0-1 0 0 1 0 1-1 0 0 0 0 0-1 0 0 0 0 0 0 0 0 0-1 0-1 0 0 0 0 0 0 0 0 0 0 0 0l0-51c0-5 5-10 10-10 6 0 10 5 10 10l0 51c0 1 0 1 0 2l0 26c0 0 0 0 0 0 0 0 0 0 0 0 0 1 1 1 1 1 0 0 0 0 0 0 0 0 0 1 0 1 0 0 0 0 0 0 0 0 0 0 0 0 0 1 0 1 0 1 0 0 0 0 0 0 1 0 1 1 1 1 0 0 0 0 0 0 0 0 1 1 1 1 0 0 0 0 1 1 0 0 0 0 0 0 0 0 0 0 1 0 0 0 0 0 0 0 0 0 0 0 0 0 0 1 0 1 1 1 0 0 0 0 0 0 0 0 0 0 0 0 1 0 1 0 1 0 0 0 0 0 1 0 0 0 0 0 0 0 0 0 0 0 1 0 0 0 0 0 0 0 0 0 0 0 1 0 0 0 0 0 0 0 4 0 7-4 7-8 0 0 0 0 0 0l0-78c0-5 5-10 10-10 6 0 10 5 10 10l0 78c0 0 0 0 1 0 0 1 0 2 0 2 0 0 0 1 0 1 0 0 0 1 1 1 0 0 0 0 0 1 0 0 0 0 0 0 0 0 0 0 0 0 1 0 1 1 1 1 0 0 0 0 0 0 0 0 0 0 0 0 1 0 1 1 1 1 1 0 1 1 2 1 0 0 1 0 1 0 0 0 1 0 1 0 1 0 1 0 2 0 3 0 5-2 7-4 0 0 0 0 0 0 0-1 0-1 0-1 0 0 0 0 0 0 0 0 0 0 0-1 0 0 0 0 0 0 0 0 0 0 0 0 0 0 0-1 0-1 1 0 1 0 1 0l0-10c0 0 0 0 0 0l0-69c0-5 4-10 10-10 5 0 10 5 10 10l0 69c0 0 0 0 0 0 0 0 0 0 0 0 0 1 0 2 1 3 0 1 0 1 0 1 0 1 1 1 1 1 0 1 0 1 0 1 0 0 0 0 0 0 0 0 1 0 1 0 0 0 0 0 0 0 0 1 0 1 0 1 0 0 0 0 1 0 0 0 0 0 0 0 0 0 0 0 0 0 0 0 0 0 0 1 1 0 1 0 2 0 0 0 0 0 0 0 0 0 0 0 0 0 0 0 1 0 1 0 0 0 0 0 0 0 0 0 1 1 1 1 5 0 9-4 9-9 0 0 0 0 0 0l0-2c0 0 0 0 0 0l0-92c0-4 3-8 7-10 4-1 9 1 11 5l8 12c1 0 1 0 1 1 0 1 1 1 2 2 0 0 0 0 0 0 0 0 0 0 1 1 0 0 0 0 0 0 0 0 0 0 0 0 0 0 0 0 0 0 1 0 1 1 2 1l0 0c0 0 0 0 1 0l0 0c0 0 0 0 1 0l1 0c0 0 0 0 0 0 0 0 0 0 0 0 0 0 1 0 1 0l0 0c0 0 0 0 0 0 1 0 1 0 1 0 0 0 0 0 0 0 0 0 0 0 1 0l0 0c0 0 0 0 1-1l0 0c0 0 0 0 0 0 0 0 0 0 1 0 0 0 0 0 0 0 0 0 0 0 0 0 0 0 0 0 0 0 0-1 1-1 1-1 0 0 0 0 0 0 1-1 2-3 3-5 1-2 0-5-1-7z m43 92l-1 0c-3 1-6 0-8-2-3-2-4-5-4-8l0-52-23 0c0 0 0 0 0 0 0 0 0 0 0 0 0 0 0 0 0 0 0 0 0 0 0 0-1 1-1 1-2 1 0 0 0 0-1 0 0 0 0 0 0 1 0 0 0 0-1 0l0 0c-1 0-2 1-3 1 0 0 0 0 0 0-1 0-1 0-1 0 0 0-1 0-1 1 0 0 0 0 0 0-1 0-1 0-1 0 0 0-1 0-1 0 0 0 0 0 0 0-1 0-1 0-1 0l0 0c0 0 0 0 0 0-1 0-2 0-2 0 0 0-1 0-1 0 0 0 0 0 0 0 0 0-1 0-1 0 0 0 0 0 0 0l0 0c-1 0-1 0-2 0 0 0 0 0-1 0l0 0c0 0 0 0 0 0-1 0-2 0-3-1 0 0 0 0 0 0 0 0 0 0-1 0 0 0 0 0 0 0-1 0-1 0-1 0 0 0 0 0 0 0 0 0 0 0 0 0-1 0-1-1-1-1-1 0-1 0-1 0 0 0-1 0-1 0 0 0 0 0 0 0-1-1-2-1-2-1 0-1-1-1-1-1 0 0 0 0 0 0 0 0 0 0 0 0 0 0 0 0 0 0l0 62c0 0 0 1 0 1l0 4c0 0 0 0 0 0 0 0 0 0 0 0 0 0 0 0 0 0 0 1 0 1 0 1 0 0 0 1 0 1 0 0 0 0 0 0 0 1 0 1 0 1 0 0 0 0 0 1-3 13-15 24-29 24 0 0 0 0 0 0 0 0 0 0-1 0 0 0-1-1-1-1 0 0 0 0-1 0 0 0 0 0-1 0 0 0 0 0 0 0-3 0-7-1-9-3-3 3-5 6-9 8-1 1-3 2-4 2-2 1-4 1-5 2-1 0-2 0-2 0 0 0 0 0-1 0 0 0 0 0-1 0 0 0 0 0 0 0-1 0-1 0-2 0 0 0 0 0 0 0-1 0-2 0-3 0 0 0 0 0 0 0-1 0-1 0-1 0 0 0-1 0-1 0-2 0-3-1-5-1 0-1 0-1 0-1-1 0-1 0-1 0-1 0-1 0-1 0 0 0 0-1 0-1-2 0-3-1-4-2 0 0 0 0-1 0 0 0 0-1-1-1 0 0 0 0-1-1-1 1-2 2-3 3-1 1-3 2-4 2-2 1-4 1-6 2 0 0 0 0 0 0 0 0-1 0-1 0 0 0-1 0-1 0 0 0-1 0-1 0 0 0 0 0 0 0-1 0-1 0-2 0 0 0 0 0 0 0 0 0 0 0 0 0-1 0-2 0-3 0 0 0 0 0-1 0 0 0-1 0-1 0 0 0 0 0 0 0-4-1-7-2-10-4-1 0-1 0-1 0 0-1-1-1-1-1 0 0 0 0 0 0-1-1-1-1-2-1 0-1 0-1 0-1 0 0-1-1-1-1 0 0 0 0 0 0 0 0 0 0 0 0-1 0-1-1-1-1-1 0-1 0-1-1 0 0 0 0-1-1 0 0 0 0 0 0 0 0 0-1-1-1 0 0 0 0 0-1 0 0-1 0-1-1 0 0 0 0 0 0 0 0 0 0 0 0 0 0 0-1-1-1 0 0 0-1 0-1 0 0 0 0 0 0 0-1 0-1-1-1 0 0 0-1 0-1 0 0 0 0 0-1 0 0 0 0 0 0 0-1-1-2-1-3 0 0 0 0 0-1 0 0 0 0 0 0 0-1 0-1 0-1 0 0 0 0 0-1-1 0-1-1-1-1 0 0 0 0 0 0 0 0 0-1 0-1l0-1c0 0 0 0-1 0l0 71 72 0c5 0 10 4 10 10 0 5-5 10-10 10l-82 0c-5 0-10-5-10-10l0-83c-9-5-15-13-16-24 0 0 0 0 0-1 0 0 0-1 0-1l0-47-4 0 0 186 226 0 0-60c0-3 1-6 4-8 2-2 5-3 8-2l1 0c8 1 16-1 22-6 6-5 10-13 10-21 0-8-4-16-10-21-6-5-14-7-22-6z m233-62l-74 0c-3 0-6-1-8-4-1-2-2-5-2-8l2-10c2-8-1-16-6-22-5-6-13-10-21-10-8 0-16 4-21 10-5 6-7 14-6 22l2 10c1 3 0 6-2 8-2 3-5 4-8 4l-82 0 0 42c10 0 20 4 28 11 9 8 15 19 17 31 0 2 0 3 0 5 0 14-6 27-17 36-1 1-2 2-3 3 0 0 0 0 0 0-8 5-16 8-25 8l0 50 22 0-9-14c0 0 0 0 0 0-1-1-1-1-1-1 0-1 0-1 0-1 0 0 0 0-1-1 0 0 0 0 0 0-2-6-3-13-1-19 2-7 5-13 11-17 0 0 0 0 0 0 0 0 1 0 1 0 0 0 0 0 0-1 1 0 1 0 1 0 1-1 2-1 2-1 0 0 0 0 1 0 0-1 0-1 1-1 0 0 0 0 0 0 6-2 13-3 19-1 2 0 5 2 7 3l0-62c0 0 0-1 0-1l0-4c0 0 0 0 0 0 1-16 14-28 29-28 0 0 0 0 0 0 1 0 1 0 1 0 4 1 9 2 12 4 1-1 2-3 4-4 0 0 0 0 0 0 0 0 0 0 0 0 5-5 12-8 20-8 7 0 14 2 19 7 5-5 11-7 18-7 8 0 15 3 20 8 5 5 8 11 9 18 0 0 0 1 0 1l0 1c3 0 6-1 9-1 15 1 27 12 28 27 0 0 0 0 0 1 0 0 0 1 0 1l0 101 4 0z m-313 158c0 0-1 1-1 2 0 0 0 1-1 1 0 1-1 2-1 2 0 0-1 1-2 1 0 1-1 1-1 1-1 0-1 1-2 1-3 0-7-1-9-3-1 0-1-1-1-2-1 0-1-1-1-1-1-1-1-2-1-2 0-1 0-1 0-2 0-1 0-1 0-2 0-1 0-1 1-2 0-1 0-1 1-2 0 0 0-1 1-1 0-1 1-1 1-1 1-1 2-1 2-1 1-1 1-1 2-1 1 0 1 0 2 0 1 0 1 0 2 0 1 0 1 0 2 1 0 0 1 0 1 1 1 0 2 0 2 1 0 0 1 1 1 1 1 1 1 1 1 2 0 1 1 1 1 2 0 1 0 1 0 2 0 1 0 1 0 2z"/>
<glyph glyph-name="cpu" unicode="&#88;" d="M256 512c-4 0-8-3-8-8l0-8c0-4 4-7 8-7 4 0 8 3 8 7l0 8c0 5-4 8-8 8z m64 0c-4 0-7-3-7-8l0-8c0-4 3-7 7-7 4 0 8 3 8 7l0 8c0 5-4 8-8 8z m64 0c-4 0-7-3-7-8l0-8c0-4 3-7 7-7 4 0 8 3 8 7l0 8c0 5-4 8-8 8z m-256 0c-4 0-8-3-8-8l0-8c0-4 4-7 8-7 4 0 7 3 7 7l0 8c0 5-3 8-7 8z m64 0c-4 0-8-3-8-8l0-8c0-4 4-7 8-7 4 0 7 3 7 7l0 8c0 5-3 8-7 8z m64-489c-4 0-8-3-8-7l0-8c0-5 4-8 8-8 4 0 8 3 8 8l0 8c0 4-4 7-8 7z m64 0c-4 0-7-3-7-7l0-8c0-5 3-8 7-8 4 0 8 3 8 8l0 8c0 4-4 7-8 7z m64 0c-4 0-7-3-7-7l0-8c0-5 3-8 7-8 4 0 8 3 8 8l0 8c0 4-4 7-8 7z m-256 0c-4 0-8-3-8-7l0-8c0-5 4-8 8-8 4 0 7 3 7 8l0 8c0 4-3 7-7 7z m64 0c-4 0-8-3-8-7l0-8c0-5 4-8 8-8 4 0 7 3 7 8l0 8c0 4-3 7-7 7z m312 241l-8 0c-4 0-7-4-7-8 0-4 3-8 7-8l8 0c5 0 8 4 8 8 0 4-3 8-8 8z m0 64l-8 0c-4 0-7-4-7-8 0-4 3-7 7-7l8 0c5 0 8 3 8 7 0 4-3 8-8 8z m-32-15c5 0 8 3 8 7 0 4-3 8-8 8l-16 0 0 49 16 0c5 0 8 3 8 7 0 4-3 8-8 8l-16 0 0 32c0 18-14 32-32 32l-32 0 0 16c0 5-4 8-8 8-4 0-7-3-7-8l0-16-49 0 0 16c0 5-4 8-8 8-4 0-7-3-7-8l0-16-49 0 0 16c0 5-4 8-8 8-4 0-8-3-8-8l0-16-49 0 0 16c0 5-3 8-7 8-4 0-8-3-8-8l0-16-49 0 0 16c0 5-3 8-7 8-4 0-8-3-8-8l0-16-32 0c-18 0-32-14-32-32l0-32-16 0c-5 0-8-4-8-8 0-4 3-7 8-7l16 0 0-49-16 0c-5 0-8-4-8-8 0-4 3-7 8-7l16 0 0-49-16 0c-5 0-8-4-8-8 0-4 3-8 8-8l16 0 0-49-16 0c-5 0-8-3-8-7 0-4 3-8 8-8l16 0 0-49-16 0c-5 0-8-3-8-7 0-4 3-8 8-8l16 0 0-32c0-18 14-32 32-32l32 0 0-16c0-5 4-8 8-8 4 0 7 3 7 8l0 16 49 0 0-16c0-5 4-8 8-8 4 0 7 3 7 8l0 16 49 0 0-16c0-5 4-8 8-8 4 0 8 3 8 8l0 16 49 0 0-16c0-5 3-8 7-8 4 0 8 3 8 8l0 16 49 0 0-16c0-5 3-8 7-8 4 0 8 3 8 8l0 16 32 0c18 0 32 14 32 32l0 32 16 0c5 0 8 4 8 8 0 4-3 7-8 7l-16 0 0 49 16 0c5 0 8 4 8 8 0 4-3 7-8 7l-16 0 0 49 16 0c5 0 8 4 8 8 0 4-3 8-8 8l-16 0 0 49 16 0z m-31-225c0-9-8-17-17-17l-336 0c-9 0-17 8-17 17l0 336c0 9 8 17 17 17l336 0c9 0 17-8 17-17z m63 304l-8 0c-4 0-7-4-7-8 0-4 3-7 7-7l8 0c5 0 8 3 8 7 0 4-3 8-8 8z m0-257l-8 0c-4 0-7-3-7-7 0-4 3-8 7-8l8 0c5 0 8 4 8 8 0 4-3 7-8 7z m0 64l-8 0c-4 0-7-3-7-7 0-4 3-8 7-8l8 0c5 0 8 4 8 8 0 4-3 7-8 7z m-488 65l-8 0c-5 0-8-4-8-8 0-4 3-8 8-8l8 0c4 0 7 4 7 8 0 4-3 8-7 8z m0 64l-8 0c-5 0-8-4-8-8 0-4 3-7 8-7l8 0c4 0 7 3 7 7 0 4-3 8-7 8z m0 64l-8 0c-5 0-8-4-8-8 0-4 3-7 8-7l8 0c4 0 7 3 7 7 0 4-3 8-7 8z m0-257l-8 0c-5 0-8-3-8-7 0-4 3-8 8-8l8 0c4 0 7 4 7 8 0 4-3 7-7 7z m0 64l-8 0c-5 0-8-3-8-7 0-4 3-8 8-8l8 0c4 0 7 4 7 8 0 4-3 7-7 7z m392 217l-57 0c-4 0-7-4-7-8 0-4 3-7 7-7l50 0 0-290-290 0 0 290 205 0c4 0 8 3 8 7 0 4-4 8-8 8l-212 0c-4 0-8-4-8-8l0-304c0-4 4-8 8-8l304 0c4 0 8 4 8 8l0 304c0 4-4 8-8 8z m-77-126c-3 1-7 0-9-2l-36-49c-4-4 0-12 6-12l36 0c4 0 8 4 8 8l0 48c0 3-2 6-5 7z m-10-48l-14 0 14 19z m43 0l-4 0 0 77c0 9-6 16-14 19-8 2-16 0-21-7l-73-96c-4-6-5-14-1-21 3-6 10-11 17-11l53 0 0-4c0-11 8-20 19-20 11 0 20 9 20 20l0 4 4 0c11 0 20 9 20 20 0 11-9 19-20 19z m0-24l-12 0c-4 0-7-3-7-7l0-12c0-3-2-5-5-5-2 0-4 2-4 5l0 12c0 4-4 7-8 7l-60 0c-4 0-6 5-4 8l73 96c2 3 8 1 8-3l0-84c0-4 3-8 7-8l12 0c3 0 5-2 5-4 0-3-2-5-5-5z m-176 58c-19 0-34-15-36-33 0-1 0-2 0-3 0-20 16-36 36-36 19 0 35 16 35 36 0 20-16 36-35 36z m0-57c-11 0-21 10-21 21 0 0 0 1 0 1 1 11 10 20 21 20 11 0 20-10 20-21 0-11-9-21-20-21z m43 62c-7 8-16 13-25 16 4 4 8 6 9 7 5 3 7 8 8 13 1 5 0 10-3 14-6 9-19 11-27 5-2-1-17-12-32-28-21-23-32-44-33-65l0 0c0 0 0 0 0 0 0-1 0-2 0-3 0-33 27-60 60-60 33 0 59 27 59 60 0 16-5 30-16 41z m-43-86c-25 0-45 20-45 45 0 1 0 2 0 3 3 41 58 80 58 81 3 2 8-1 7-5 0-1-1-2-1-3-7-4-16-12-23-19-4-4-1-12 5-12 25-1 43-21 43-45 0-25-20-45-44-45z"/>
<glyph glyph-name="credit" unicode="&#89;" d="M264 208l-16 0c-5 0-9 4-9 8l-16 0c0-14 11-25 25-25l0-16 16 0 0 16c14 0 25 11 25 25 0 14-11 25-25 25l-16 0c-5 0-9 4-9 8 0 5 4 9 9 9l16 0c5 0 9-4 9-9l16 0c0 14-11 25-25 25l0 17-16 0 0-17c-14 0-25-11-25-25 0-13 11-25 25-25l16 0c5 0 9-3 9-8 0-4-4-8-9-8z m181 110c22 18 35 44 35 73 0 50-41 91-91 91-34 0-65-19-81-48-9 2-18 4-27 5l0 10 26 0-51 63-51-63 26 0 0-10c-9-1-18-3-27-5-16 29-47 48-81 48-50 0-91-41-91-91 0-29 13-55 35-73-12-26-19-55-19-85 0-56 22-106 58-143l-17-54c-2-8-1-17 5-25 5-7 13-11 22-11 13 0 24 8 27 20l10 33c30-18 65-28 103-28 38 0 73 10 103 28l10-33c3-12 14-20 27-20 9 0 17 4 22 11 6 8 7 17 5 25l-17 54c35 36 57 85 58 139l5 4-5 4c-1 29-7 56-19 81z m-110 125c36-14 69-37 93-67l13 11c-24 29-56 53-91 68 12 6 25 10 39 10 41 0 75-33 75-74 0-10-2-19-5-28-3 4-6 8-8 12l-14-10c5-6 9-12 12-18-3-5-7-9-12-13-24 43-64 78-112 95 3 5 6 9 10 14z m-54-21c88-12 157-84 165-171l-19 15c-14 72-73 129-146 139z m66-198c0 3 0 6 0 9 0 3 0 5 0 8l75 0 0 8 20-16-20-16 0 7z m-66 165c58-10 106-52 125-107l0-24-62 0c-9 30-33 54-63 63z m-25 96l16-20-8 0 0-141c-2 0-5 0-8 0-3 0-6 0-8 0l0 141-8 0z m0-177c41 0 75-34 75-75 0-42-34-75-75-75-41 0-75 33-75 75 0 41 34 75 75 75z m-202 55c-4 9-6 18-6 28 0 41 34 74 75 74 14 0 27-4 39-11-45-18-82-50-108-91z m9-16c26 44 66 77 114 95 4-4 7-8 10-13-48-17-88-52-112-95-5 4-9 8-12 13z m64-322c-1-5-6-8-11-8-3 0-7 1-9 4-2 3-3 7-2 10l14 46c6-6 12-11 19-15z m280 6c1-3 0-7-2-10-2-3-6-4-9-4-5 0-10 3-11 8l-11 37c7 4 13 9 19 15z m-151 11c-105 0-191 85-191 191 0 95 72 177 166 189l0-17c-86-12-150-85-150-172 0-40 14-79 39-110l13 10c-22 28-35 64-35 100 0 78 57 143 133 155l0-67c-38-11-66-47-66-88 0-51 41-92 91-92 42 0 77 28 88 67l62 0 0-25c-21-63-81-108-150-108-42 0-82 16-112 46l-12-11c33-34 77-52 124-52 84 0 155 60 171 141l19 16c-9-97-91-173-190-173z"/>
<glyph glyph-name="crown" unicode="&#90;" d="M502 103l-20 0 0 286c12 9 20 23 20 39 0 27-22 50-49 50-27 0-49-23-49-50 0-12 4-23 12-32l-28-56-47 0-26 52c6 11 10 23 10 36 0 38-31 69-69 69-38 0-69-31-69-69 0-13 4-25 10-36l-26-52-47 0-28 56c8 9 12 20 12 32 0 27-22 50-49 50-27 0-49-23-49-50 0-16 8-30 20-39l0-286-20 0c-6 0-10-4-10-9l0-69c0-6 4-10 10-10l492 0c6 0 10 4 10 10l0 69c0 5-4 9-10 9z m-49 355c16 0 29-13 29-30 0-11-6-20-15-25 0-1 0-1-1-1 0 0 0 0 0 0-1 0-1-1-2-1 0 0 0 0 0 0 0 0-1 0-1-1-1 0-1 0-1 0 0 0-1 0-1 0 0 0 0 0 0 0-2-1-3-1-4-1 0 0 0 0 0 0-1 0-1 0-2 0 0 0 0 0 0 0-1 0-1 0-2 0-1 0-1 0-1 0-1 0-1 0-1 0 0 0-1 0-1 0 0 0 0 0-1 0 0 0 0 0 0 0 0 0-1 0-1 0 0 0 0 0 0 0-1 0-1 0-1 0 0 0-1 0-1 1-1 0-2 0-3 1 0 0 0 0 0 0 0 0-1 0-1 0 0 0 0 0 0 0-1 0-1 0-1 0 0 0 0 0-1 1 0 0 0 0 0 0 0 0-1 0-1 0 0 0 0 0 0 0-9 5-16 15-16 26 0 17 14 30 30 30z m-197 20c27 0 49-23 49-50 0-23-17-43-39-48 0 0 0 0 0 0-1 0-2 0-2 0 0 0-1 0-1 0-1-1-1-1-2-1 0 0-1 0-1 0-1 0-1 0-1 0-1 0-2 0-3 0-1 0-2 0-3 0 0 0 0 0-1 0 0 0-1 0-1 0-1 0-1 0-2 1 0 0 0 0-1 0 0 0-1 0-2 0 0 0 0 0 0 0-22 5-39 25-39 48 0 27 22 50 49 50z m-147-153c2-3 5-5 9-5l59 0c4 0 7 2 9 5l25 51c10-8 22-14 34-16 0 0 1 0 1 0 1 0 2 0 3 0 0 0 0 0 0 0 1 0 2 0 3 0 0 0 0-1 1-1 1 0 2 0 3 0 1 0 2 0 3 0 1 0 1 1 1 1 1 0 2 0 3 0 0 0 0 0 0 0 1 0 2 0 3 0 0 0 1 0 1 0 12 2 24 8 34 16l25-51c2-3 5-5 9-5l59 0c4 0 7 2 9 5l29 59c0 0 0 0 0 0 1-1 2-1 2-1 0 0 0 0 1 0 0-1 1-1 2-1 0 0 0 0 0 0 1-1 2-1 2-1 0 0 1 0 1 0 0 0 1 0 2-1 0 0 0 0 0 0 1 0 2 0 3 0 0 0 0 0 0 0 1 0 1 0 2-1 0 0 0 0 1 0 0 0 1 0 2 0 0 0 0 0 0 0 1 0 2 0 3 0 1 0 2 0 2 0 3 0 5 1 8 1l0-277-414 0 0 277c3 0 5-1 8-1 0 0 1 0 2 0 1 0 2 0 3 0 0 0 0 0 0 0 1 0 2 0 2 0 1 0 1 0 1 0 1 1 1 1 2 1 0 0 0 0 0 0 1 0 2 0 3 0 0 0 0 0 0 0 1 1 2 1 2 1 0 0 1 0 1 0 0 0 1 0 2 1 0 0 0 0 0 0 1 0 2 0 2 1 1 0 1 0 1 0 0 0 1 0 2 1 0 0 0 0 0 0z m-50 133c16 0 30-13 30-30 0-11-7-21-16-26 0 0 0 0 0 0 0 0-1 0-1 0 0 0 0 0 0 0-1-1-1-1-1-1 0 0 0 0-1 0 0 0 0 0 0 0 0 0-1 0-1 0 0 0 0 0 0 0-1-1-2-1-3-1 0-1-1-1-1-1 0 0 0 0-1 0 0 0 0 0 0 0 0 0-1 0-1 0 0 0 0 0 0 0-1 0-1 0-1 0 0 0-1 0-1 0 0 0 0 0-1 0 0 0 0 0-1 0-1 0-1 0-2 0 0 0 0 0 0 0-1 0-1 0-2 0 0 0 0 0 0 0-1 0-2 0-4 1 0 0 0 0 0 0 0 0-1 0-1 0 0 0 0 0-1 0 0 1-1 1-1 1 0 0 0 0 0 0-1 0-1 1-2 1 0 0 0 0 0 0-1 0-1 0-1 1-9 5-15 14-15 25 0 17 13 30 29 30z m433-424l-472 0 0 15 59 0c5 0 10 5 10 10 0 6-5 10-10 10l-59 0 0 15 472 0z m-190 244l-19 19c-2 2-5 3-7 3l-40 0c-2 0-5-1-7-3l-19-19c-2-2-3-5-3-7l0-99c0-2 1-5 3-7l19-19c2-2 5-3 7-3l40 0c2 0 5 1 7 3l19 19c2 2 3 5 3 7l0 99c0 2-1 5-3 7z m-16-102l-14-14-32 0-14 14 0 65 10 0c6 0 10 5 10 10 0 6-4 10-10 10l-10 0 0 6 14 14 32 0 14-14z m143 88l-14 14c-2 2-4 3-7 3l-28 0c-3 0-5-1-7-3l-14-14c-2-2-3-5-3-7l0-71c0-2 1-5 3-7l14-14c2-2 4-3 7-3l28 0c3 0 5 1 7 3l14 14c2 2 3 5 3 7l0 71c0 2-1 5-3 7z m-17-74l-8-8-20 0-8 8 0 63 8 8 20 0 8-8z m-259 74l-14 14c-2 2-4 3-7 3l-28 0c-3 0-5-1-7-3l-14-14c-2-2-3-5-3-7l0-71c0-2 1-5 3-7l14-14c2-2 4-3 7-3l28 0c3 0 5 1 7 3l14 14c2 2 3 5 3 7l0 71c0 2-1 5-3 7z m-17-74l-8-8-20 0-8 8 0 63 8 8 20 0 8-8z m-18-129c0 1 0 1-1 2 0 0 0 1-1 2 0 0 0 1-1 1 0 0-1 1-1 1-1 1-1 1-2 1-1 0-1 1-2 1-1 0-2 0-4 0 0 0-1-1-1-1-1 0-2 0-2-1-1 0-1-1-2-1 0 0-1-1-1-1 0-1-1-2-1-2 0-1 0-1 0-2 0-1-1-1-1-2 0-1 1-1 1-2 0 0 0-1 0-2 0 0 1-1 1-1 0-1 1-1 1-2 1 0 1-1 2-1 0 0 1-1 2-1 0 0 1 0 1-1 1 0 2 0 2 0 1 0 2 0 2 0 1 1 1 1 2 1 1 0 1 1 2 1 0 0 1 1 1 1 1 1 1 1 1 2 1 0 1 1 1 1 1 1 1 2 1 2 0 1 0 1 0 2 0 1 0 1 0 2z m155 197c-1 0-1 1-2 1 0 1-1 1-1 1-1 0-2 1-2 1-2 0-3 0-4 0-1 0-1-1-2-1-1 0-1 0-2-1 0 0-1-1-1-1-2-2-3-4-3-7 0-3 1-5 3-7 0 0 1-1 1-1 1 0 1-1 2-1 1 0 1 0 2-1 1 0 1 0 2 0 0 0 1 0 2 0 0 1 1 1 2 1 0 0 1 1 1 1 1 0 1 1 2 1 2 2 3 4 3 7 0 3-1 5-3 7z"/>
<glyph glyph-name="curriculum" unicode="&#48;" d="M364 387c-2 4-6 6-10 4-4-2-5-6-3-10 17-37 11-81-15-112l-44 21c-3 2-4 5-4 8l0 11c9 8 16 21 16 35l0 9c0 0 0 0 0 0 4 0 8 3 8 7l0 16c0 26-22 48-48 48l-16 0c-26 0-48-22-48-48l0-16c0-4 4-7 8-7 0 0 0 0 0 0l0-9c0-14 7-27 16-35l0-11c0-3-1-6-4-8l-44-21c-16 18-25 42-25 67 0 28 11 54 31 74 36 36 92 41 134 12 3-2 8-1 10 2 3 3 2 8-2 10-47 34-112 28-153-13-22-23-35-53-35-85 0-32 13-62 35-84 23-23 53-36 85-36 32 0 62 13 85 36 35 35 45 90 23 135z m-149-18l0 7c0 18 15 33 33 33l16 0c18 0 33-15 33-33l0-8c-33 2-53 14-53 14-1 1-3 2-4 2-2 0-4-1-5-2-8-8-15-11-20-13z m8-25l0 12c6 2 12 6 18 11 8-4 24-11 48-14l0-9c0-18-15-32-33-32-18 0-33 14-33 32z m26-112c-23 1-45 10-62 25l39 20c2 1 3 1 4 2l19-18z m-10 60c0 2 0 4 0 6l0 2c6-2 11-3 17-3 6 0 11 1 17 3l0-2c0-2 0-4 0-6l-17-17z m25-60l0 29 18 18c1-1 2-1 4-2l39-20c-17-15-39-24-61-25z m184 178c0 6-3 12-7 16l-79 79c-4 5-10 7-16 7l-266 0c-9 0-16-7-16-16l0-480c0-9 7-16 16-16l352 0c9 0 16 7 16 16z m-88 76l62-62-62 0c0 0 0 0 0 0z m72-471l-352 0c-1 0-1 0-1 1l0 480c0 1 0 1 1 1l265 0 0-73c0-8 7-15 15-15l73 0 0-393c0-1 0-1-1-1z m-248 160l-32 0c-4 0-8-3-8-7 0-4 4-8 8-8l32 0c4 0 7 4 7 8 0 4-3 7-7 7z m176 0l-144 0c-4 0-8-3-8-7 0-4 4-8 8-8l144 0c4 0 8 4 8 8 0 4-4 7-8 7z m-176-32l-32 0c-4 0-8-3-8-7 0-4 4-8 8-8l32 0c4 0 7 4 7 8 0 4-3 7-7 7z m176 0l-144 0c-4 0-8-3-8-7 0-4 4-8 8-8l144 0c4 0 8 4 8 8 0 4-4 7-8 7z m-176-32l-32 0c-4 0-8-3-8-7 0-4 4-8 8-8l32 0c4 0 7 4 7 8 0 4-3 7-7 7z m176 0l-144 0c-4 0-8-3-8-7 0-4 4-8 8-8l144 0c4 0 8 4 8 8 0 4-4 7-8 7z m-176-32l-32 0c-4 0-8-3-8-7 0-5 4-8 8-8l32 0c4 0 7 3 7 8 0 4-3 7-7 7z m176 0l-144 0c-4 0-8-3-8-7 0-5 4-8 8-8l144 0c4 0 8 3 8 8 0 4-4 7-8 7z"/>
<glyph glyph-name="customer-service" unicode="&#49;" d="M423 293l0 40c0 33-16 62-42 81l0 88c0 6-4 10-10 10l-231 0c-6 0-10-4-10-10l0-88c-26-19-42-48-42-81l0-40c-49-8-88-51-88-103l0-38c0-52 39-95 89-102 5-23 25-41 49-41l68 0c1-5 5-9 10-9l20 0c16 0 29 13 29 30 0 16-13 29-29 29l-20 0c-5 0-10-4-10-10l0-20-68 0c-13 0-24 8-28 20l38 0c6 0 10 4 10 9l0 226c0 6-4 10-10 10l-40 0 0 39c0 21 8 41 22 55l0-59c0-5 4-10 10-10l54 0 55-51c2-1 4-2 7-2 2 0 4 1 6 2l55 51 54 0c6 0 10 5 10 10l0 59c14-14 22-34 22-55l0-39-39 0c-6 0-10-4-10-10l0-226c0-5 4-9 10-9l44 0c57 0 104 46 104 103l0 38c0 52-39 96-89 103z m-197-254l10 0c5 0 10-4 10-9 0-6-5-10-10-10l-10 0z m-88 235l0-206-34 0c0 0-1 0-2 0-1 1-2 1-4 1-1 0-2 0-3 0-42 4-75 40-75 83l0 38c0 41 29 75 68 83l0-96c0-5 5-10 10-10 6 0 10 5 10 10l0 97z m224 65l-48 0c-3 0-5-1-7-3l-51-47-52 47c-1 2-4 3-6 3l-48 0 0 153 212 0z m130-187c0-41-30-75-69-82l0 88c0 5-4 9-10 9-5 0-10-4-10-9l0-90-29 0 0 206 34 0c46 0 84-37 84-84z m-384-2c0 0-1 1-1 1 0 1 0 2-1 2 0 1-1 1-1 2 0 0-1 1-1 1-1 0-2 1-2 1-1 0-1 0-2 0-1 1-3 1-4 0 0 0-1 0-2 0 0 0-1-1-1-1-1 0-1-1-2-1 0-1-1-1-1-2 0 0-1-1-1-2 0 0 0-1-1-1 0-1 0-2 0-2 0-1 0-2 0-2 1-1 1-1 1-2 0-1 1-1 1-2 0 0 1-1 1-1 2-2 4-3 7-3 1 0 1 0 2 0 1 0 1 0 2 1 0 0 1 0 2 1 0 0 1 0 1 1 0 0 1 1 1 1 1 1 1 1 1 2 0 1 1 1 1 2 0 0 0 1 0 2 0 0 0 1 0 2z m315 39c0 0-1 1-1 2 0 0 0 1-1 1 0 1 0 1-1 2 0 0-1 1-1 1-1 0-1 1-2 1-1 0-1 0-2 0-1 1-3 1-4 0 0 0-1 0-2 0 0 0-1-1-1-1-1 0-1-1-2-1 0-1-1-1-1-2 0 0-1-1-1-1 0-1 0-2-1-2 0-1 0-2 0-2 0-1 0-2 0-2 1-1 1-1 1-2 0-1 1-1 1-2 0 0 1-1 1-1 1-1 1-1 2-1 0-1 1-1 1-1 1-1 2-1 2-1 1 0 1 0 2 0 1 0 1 0 2 0 1 0 1 0 2 1 1 0 1 0 2 1 0 0 1 0 1 1 1 0 1 1 1 1 1 1 1 1 1 2 0 1 1 1 1 2 0 0 0 1 0 2 0 0 0 1 0 2z m-167 276l-79 0c-6 0-10-5-10-10 0-5 4-10 10-10l79 0c5 0 9 5 9 10 0 5-4 10-9 10z m78-40l-157 0c-6 0-10-4-10-9 0-6 4-10 10-10l157 0c6 0 10 4 10 10 0 5-4 9-10 9z m0-39l-157 0c-6 0-10-4-10-10 0-5 4-10 10-10l157 0c6 0 10 5 10 10 0 6-4 10-10 10z"/>
</font>
</defs>
</svg>
