<svg xmlns="http://www.w3.org/2000/svg" viewBox="0 0 612 792"><path fill="#37CFDC" d="M306 526.5c-3.2 0-6.5-.9-9.3-2.7L171.3 445c-37-23.3-59.2-63.3-59.2-107.1V137.3c0-26.1 21.2-47.3 47.3-47.3h293.2c26.1 0 47.3 21.2 47.3 47.3v106.1c0 9.7-7.9 17.5-17.5 17.5s-17.5-7.9-17.5-17.5V137.3c0-6.7-5.5-12.2-12.2-12.2H159.4c-6.7 0-12.2 5.5-12.2 12.2V338c0 31.6 16 60.5 42.7 77.4l116 72.9 116-72.9c26.8-16.8 42.7-45.7 42.7-77.4 0-9.7 7.9-17.5 17.5-17.5s17.5 7.9 17.5 17.5c0 43.8-22.1 83.8-59.2 107.1L315 523.9c-2.5 1.7-5.8 2.6-9 2.6z"/><path fill="#CEE8FA" d="M264.6 491.7l-51.8 45.8c-14.1 12.4-22.1 30.3-22.1 49.1v98h230.6v-98c0-18.8-8.1-36.6-22.1-49.1l-51.8-45.8h-82.8z"/><path fill="#2D527C" d="M421.3 702H190.7c-9.7 0-17.5-7.9-17.5-17.5v-98c0-23.8 10.2-46.5 28.1-62.2l51.8-45.8c3.2-2.8 7.3-4.4 11.6-4.4h82.7c4.3 0 8.4 1.6 11.6 4.4l51.8 45.8c17.8 15.7 28.1 38.4 28.1 62.2v98c0 9.6-7.9 17.5-17.6 17.5zm-213.1-35.1h195.5v-80.4c0-13.7-5.9-26.8-16.2-35.9l-46.8-41.4h-69.4l-46.8 41.4c-10.3 9.1-16.2 22.2-16.2 35.9l-.1 80.4z"/><path opacity=".5" fill="#37CFDC" d="M264.6 491.7l-51.8 45.8c-14.1 12.4-22.1 30.3-22.1 49.1v98h230.6v-98c0-18.8-8.1-36.6-22.1-49.1l-51.8-45.8h-82.8z"/><g fill="#37CFDC"><path d="M421.3 702H190.7c-9.7 0-17.5-7.9-17.5-17.5v-98c0-23.8 10.2-46.5 28.1-62.2l51.8-45.8c3.2-2.8 7.3-4.4 11.6-4.4h82.7c4.3 0 8.4 1.6 11.6 4.4l51.8 45.8c17.8 15.7 28.1 38.4 28.1 62.2v98c0 9.6-7.9 17.5-17.6 17.5zm-213.1-35.1h195.5v-80.4c0-13.7-5.9-26.8-16.2-35.9l-46.8-41.4h-69.4l-46.8 41.4c-10.3 9.1-16.2 22.2-16.2 35.9l-.1 80.4zm83.9-385.1l-7.8 4.8c-2.4 1.6-4.8 2.1-6.7 2.1-7.8 0-13.1-8.3-13.1-16.6 0-5.6 2.4-11 7.8-14.2l35.4-21.4c2.1-1.3 4.8-1.9 7.8-1.9 8.6 0 18.5 5.1 18.5 13.1v170.5c0 8.6-10.5 12.9-20.9 12.9-10.5 0-20.9-4.3-20.9-12.9l-.1-136.4z"/><path d="M481.9 702H130.1c-9.7 0-17.5-7.9-17.5-17.5 0-9.7 7.9-17.5 17.5-17.5h351.7c9.7 0 17.5 7.9 17.5 17.5.1 9.6-7.7 17.5-17.4 17.5zm82.9-393.7c-5.2 0-10.3-2.3-13.8-6.6-6-7.6-4.7-18.6 2.8-24.6 8-6.4 12.6-15.9 12.6-26.1 0-18.4-15-33.3-33.3-33.3s-33.3 15-33.3 33.3c0 9.7-7.9 17.5-17.5 17.5s-17.5-7.9-17.5-17.5c0-37.7 30.7-68.4 68.4-68.4s68.4 30.7 68.4 68.4c0 21-9.5 40.6-25.9 53.6-3.2 2.4-7.1 3.7-10.9 3.7zm-517.6 0c-3.8 0-7.7-1.2-10.9-3.8-16.5-13.1-25.9-32.6-25.9-53.6 0-37.7 30.7-68.4 68.4-68.4s68.4 30.7 68.4 68.4c0 9.7-7.9 17.5-17.5 17.5-9.7 0-17.5-7.9-17.5-17.5 0-18.4-15-33.3-33.3-33.3s-33.3 15-33.3 33.3c0 10.2 4.6 19.8 12.6 26.1 7.6 6 8.9 17.1 2.8 24.6-3.5 4.4-8.6 6.7-13.8 6.7z"/></g><path opacity=".5" fill="#37CFDC" d="M482.3 181.9v-44.7c0-16.4-13.3-29.7-29.7-29.7H159.4c-16.4 0-29.7 13.3-29.7 29.7v44.7h352.6z"/><path fill="#37CFDC" d="M482.3 199.5H129.7c-9.7 0-17.5-7.9-17.5-17.5v-44.7c0-26.1 21.2-47.3 47.3-47.3h293.2c26.1 0 47.3 21.2 47.3 47.3V182c-.1 9.6-8 17.5-17.7 17.5zm-335.1-35.1h317.6v-27.1c0-6.7-5.5-12.2-12.2-12.2H159.4c-6.7 0-12.2 5.5-12.2 12.2v27.1z"/></svg>