<svg xmlns="http://www.w3.org/2000/svg" viewBox="0 0 612 792"><path d="M306 415.1c-3.8 0-7.7-1.2-11-3.5l-124.2-88c-25-17.7-39.9-46.9-39.9-78.3V109c0-10.5 8.5-19 19-19s19 8.5 19 19v136.3c0 19 8.9 36.7 23.9 47.3L306 372.8l113.3-80.2c15-10.6 23.9-28.2 23.9-47.3v-52.7c0-10.5 8.5-19 19-19s19 8.5 19 19v52.7c0 31.4-14.9 60.6-40 78.3l-124.2 88c-3.3 2.3-7.2 3.5-11 3.5zm225.3 175.7c-10.5 0-19-8.5-19-19V220.2c0-10.5 8.5-19 19-19s19 8.5 19 19v351.6c0 10.5-8.5 19-19 19zm-450.6 0c-10.5 0-19-8.5-19-19V220.2c0-10.5 8.5-19 19-19s19 8.5 19 19v351.6c0 10.5-8.5 19-19 19z" fill="#37CFDC"/><path d="M149.8 571.9h312.3v111H149.8zm312.4-462.8v111H149.8V109h.2-.2v136.4c0 25.2 12 48.7 31.9 62.8l124.2 88 124.2-88c20-14.1 31.9-37.6 31.9-62.8v-52.7l.2-83.6z" opacity=".5" fill="#37CFDC"/><path fill="#37CFDC" d="M536.2 663.9h-55.1V546.6c0-31.4-14.9-60.6-39.9-78.3L339 396l102.2-72.3c25-17.7 40-46.9 40-78.3V128.1h55.1c10.5 0 19-8.5 19-19s-8.5-19-19-19H151.7c-1.1-.1-2.3-.1-3.4 0H75.7c-10.5 0-19 8.5-19 19s8.5 19 19 19h55.1v117.3c0 31.4 14.9 60.6 39.9 78.3l124.2 88c.6.4 1.3.8 2 1.2l122.3 86.6c15 10.6 23.9 28.2 23.9 47.3v6.3H168.8v-6.3c0-19 8.9-36.7 23.9-47.3 8.6-6.1 10.6-17.9 4.6-26.5-6.1-8.6-17.9-10.6-26.5-4.6-25 17.7-40 46.9-40 78.3V664H75.7c-10.5 0-19 8.5-19 19s8.5 19 19 19H148c.6.1 1.2.1 1.9.1h312.3c.6 0 1.2 0 1.9-.1h72.2c10.5 0 19-8.5 19-19 0-10.6-8.6-19.1-19.1-19.1zm-93-535.8v73H168.8v-73h274.4zM168.8 245.4v-6.3h274.3v6.3c0 19-8.9 36.7-23.9 47.3L306 372.8l-113.3-80.2c-14.9-10.5-23.9-28.2-23.9-47.2zm0 345.5h274.3v73H168.8v-73z"/></svg>